<svg xmlns="http://www.w3.org/2000/svg" xmlns:xlink="http://www.w3.org/1999/xlink" width="936" height="567" viewBox="0 0 936 567">
  <defs>
    <clipPath id="clip-path">
      <rect id="Rectángulo_15395" data-name="Rectángulo 15395" width="12.1" height="12.352" fill="#db9600"/>
    </clipPath>
  </defs>
  <g id="Grupo_59357" data-name="Grupo 59357" transform="translate(3668 -5265)">
    <g id="Grupo_59356" data-name="Grupo 59356" transform="translate(-4166 -1285)">
      <rect id="Rectángulo_3677" data-name="Rectángulo 3677" width="422" height="188" transform="translate(498 6626)" fill="#eef0f2"/>
      <rect id="Rectángulo_15657" data-name="Rectángulo 15657" width="422" height="118" transform="translate(498 6999)" fill="#eef0f2"/>
      <rect id="Rectángulo_15654" data-name="Rectángulo 15654" width="422" height="163" transform="translate(498 6826)" fill="#f4dfaf"/>
      <rect id="Rectángulo_15651" data-name="Rectángulo 15651" width="501" height="188" transform="translate(933 6626)" fill="#eef0f2"/>
      <rect id="Rectángulo_15656" data-name="Rectángulo 15656" width="501" height="118" transform="translate(933 6999)" fill="#eef0f2"/>
      <rect id="Rectángulo_15655" data-name="Rectángulo 15655" width="501" height="163" transform="translate(933 6826)" fill="#f4dfaf"/>
      <rect id="Rectángulo_3680" data-name="Rectángulo 3680" width="422" height="61" transform="translate(498 6550)" fill="#99b182"/>
      <rect id="Rectángulo_15653" data-name="Rectángulo 15653" width="501" height="61" transform="translate(933 6550)" fill="#70a83b"/>
      <text id="Paso" transform="translate(498 6569)" fill="#fff" font-size="20" font-family="Helvetica-Bold, Helvetica" font-weight="700"><tspan x="187.099" y="15">Paso</tspan></text>
      <text id="Realizar_la_descripción_de_la_realidad_e_identificación_de_problemas_encontrados_en_el_sistema_productivo." data-name="Realizar la descripción de la realidad e identificación de problemas encontrados en el sistema productivo." transform="translate(546 6685)" fill="#00223d" font-size="18" font-family="Helvetica"><tspan x="0" y="14">Realizar la descripción de la realidad e </tspan><tspan x="0" y="38">identificación de problemas encontrados en </tspan><tspan x="0" y="62">el sistema productivo.</tspan></text>
      <text id="Documentar_el_análisis_de_información_realizado." data-name="Documentar el análisis de información realizado." transform="translate(546 7040)" fill="#00223d" font-size="18" font-family="Helvetica"><tspan x="0" y="14">Documentar el análisis de información </tspan><tspan x="0" y="38">realizado.</tspan></text>
      <text id="Identificar_las_causas_de_los_problemas_detectados._" data-name="Identificar las causas de los problemas detectados. " transform="translate(546 6893)" fill="#00223d" font-size="18" font-family="Helvetica"><tspan x="0" y="14">Identificar las causas de los problemas </tspan><tspan x="0" y="38">detectados. </tspan></text>
      <text id="a." transform="translate(520 6685)" fill="#db9600" font-size="18" font-family="Helvetica-Bold, Helvetica" font-weight="700"><tspan x="0" y="14">a.</tspan></text>
      <text id="b." transform="translate(520 6894)" fill="#db9600" font-size="18" font-family="Helvetica-Bold, Helvetica" font-weight="700"><tspan x="0" y="14">b.</tspan></text>
      <text id="c." transform="translate(520 7039)" fill="#db9600" font-size="18" font-family="Helvetica-Bold, Helvetica" font-weight="700"><tspan x="0" y="14">c.</tspan></text>
      <text id="Se_recomienda_dar_respuesta_a_los_siguientes_interrogantes." data-name="Se recomienda dar respuesta a los siguientes interrogantes." transform="translate(960 6645)" fill="#00223d" font-size="18" font-family="Helvetica"><tspan x="0" y="14">Se recomienda dar respuesta a los siguientes </tspan><tspan x="0" y="38">interrogantes.</tspan></text>
      <text id="Se_recomienda_dar_respuesta_los_siguientes_interrogantes:" data-name="Se recomienda dar respuesta los siguientes interrogantes:" transform="translate(960 6842)" fill="#00223d" font-size="18" font-family="Helvetica"><tspan x="0" y="14">Se recomienda dar respuesta los siguientes </tspan><tspan x="0" y="38">interrogantes:</tspan></text>
      <text id="_Qué_requisitos_se_deben_cumplir_para_BPA_Cómo_está_mi_proceso_productivo_Con_que_se_cuenta_y_que_hace_falta_para_cumplir_BPA_" data-name="¿Qué requisitos se deben cumplir para BPA?
¿Cómo está mi proceso productivo?
¿Con que se cuenta y que hace falta para cumplir BPA?
" transform="translate(984 6700)" fill="#00223d" font-size="18" font-family="Helvetica"><tspan x="0" y="14">¿Qué requisitos se deben cumplir para BPA?</tspan><tspan x="0" y="38">¿Cómo está mi proceso productivo?</tspan><tspan x="0" y="62">¿Con que se cuenta y que hace falta para cumplir </tspan><tspan x="0" y="86">BPA?</tspan></text>
      <text id="_Por_qué_se_presenta_el_problema_Desde_cuándo_se_presenta_el_problema_Qué_consecuencias_nos_traerán_estos_problemas_" data-name="¿Por qué se presenta el problema? 
¿Desde cuándo se presenta el problema?, 
¿Qué consecuencias nos traerán estos problemas?
" transform="translate(984 6899)" fill="#00223d" font-size="18" font-family="Helvetica"><tspan x="0" y="14">¿Por qué se presenta el problema? </tspan><tspan x="0" y="38">¿Desde cuándo se presenta el problema?, </tspan><tspan x="0" y="62">¿Qué consecuencias nos traerán estos problemas?</tspan><tspan font-family="CerebriSans-Regular, Cerebri Sans"><tspan x="0" y="86"></tspan></tspan></text>
      <text id="Preguntas" transform="translate(933 6569)" fill="#fff" font-size="20" font-family="Helvetica-Bold, Helvetica" font-weight="700"><tspan x="201.599" y="15">Preguntas</tspan></text>
      <g id="Grupo_56471" data-name="Grupo 56471" transform="translate(960 6707)">
        <g id="Grupo_56039" data-name="Grupo 56039" clip-path="url(#clip-path)">
          <path id="Trazado_112171" data-name="Trazado 112171" d="M.291,2.663,2.32,5.707a.845.845,0,0,1,0,.938L.291,9.689a1.713,1.713,0,0,0,2.851,1.9L5.824,7.566a2.506,2.506,0,0,0,0-2.78L3.141.763a1.713,1.713,0,0,0-2.851,1.9" transform="translate(0)" fill="#db9600"/>
          <path id="Trazado_112172" data-name="Trazado 112172" d="M73.606,2.663l2.029,3.044a.845.845,0,0,1,0,.938L73.606,9.689a1.713,1.713,0,1,0,2.85,1.9l2.682-4.023a2.506,2.506,0,0,0,0-2.78L76.457.763a1.713,1.713,0,0,0-2.85,1.9" transform="translate(-67.46)" fill="#db9600"/>
        </g>
      </g>
      <g id="Grupo_56476" data-name="Grupo 56476" transform="translate(960 6904)">
        <g id="Grupo_56039-2" data-name="Grupo 56039" clip-path="url(#clip-path)">
          <path id="Trazado_112171-2" data-name="Trazado 112171" d="M.291,2.663,2.32,5.707a.845.845,0,0,1,0,.938L.291,9.689a1.713,1.713,0,0,0,2.851,1.9L5.824,7.566a2.506,2.506,0,0,0,0-2.78L3.141.763a1.713,1.713,0,0,0-2.851,1.9" transform="translate(0)" fill="#db9600"/>
          <path id="Trazado_112172-2" data-name="Trazado 112172" d="M73.606,2.663l2.029,3.044a.845.845,0,0,1,0,.938L73.606,9.689a1.713,1.713,0,1,0,2.85,1.9l2.682-4.023a2.506,2.506,0,0,0,0-2.78L76.457.763a1.713,1.713,0,0,0-2.85,1.9" transform="translate(-67.46)" fill="#db9600"/>
        </g>
      </g>
      <g id="Grupo_56472" data-name="Grupo 56472" transform="translate(960 6731)">
        <g id="Grupo_56039-3" data-name="Grupo 56039" clip-path="url(#clip-path)">
          <path id="Trazado_112171-3" data-name="Trazado 112171" d="M.291,2.663,2.32,5.707a.845.845,0,0,1,0,.938L.291,9.689a1.713,1.713,0,0,0,2.851,1.9L5.824,7.566a2.506,2.506,0,0,0,0-2.78L3.141.763a1.713,1.713,0,0,0-2.851,1.9" transform="translate(0)" fill="#db9600"/>
          <path id="Trazado_112172-3" data-name="Trazado 112172" d="M73.606,2.663l2.029,3.044a.845.845,0,0,1,0,.938L73.606,9.689a1.713,1.713,0,1,0,2.85,1.9l2.682-4.023a2.506,2.506,0,0,0,0-2.78L76.457.763a1.713,1.713,0,0,0-2.85,1.9" transform="translate(-67.46)" fill="#db9600"/>
        </g>
      </g>
      <g id="Grupo_56475" data-name="Grupo 56475" transform="translate(960 6928)">
        <g id="Grupo_56039-4" data-name="Grupo 56039" clip-path="url(#clip-path)">
          <path id="Trazado_112171-4" data-name="Trazado 112171" d="M.291,2.663,2.32,5.707a.845.845,0,0,1,0,.938L.291,9.689a1.713,1.713,0,0,0,2.851,1.9L5.824,7.566a2.506,2.506,0,0,0,0-2.78L3.141.763a1.713,1.713,0,0,0-2.851,1.9" transform="translate(0)" fill="#db9600"/>
          <path id="Trazado_112172-4" data-name="Trazado 112172" d="M73.606,2.663l2.029,3.044a.845.845,0,0,1,0,.938L73.606,9.689a1.713,1.713,0,1,0,2.85,1.9l2.682-4.023a2.506,2.506,0,0,0,0-2.78L76.457.763a1.713,1.713,0,0,0-2.85,1.9" transform="translate(-67.46)" fill="#db9600"/>
        </g>
      </g>
      <g id="Grupo_56473" data-name="Grupo 56473" transform="translate(960 6755)">
        <g id="Grupo_56039-5" data-name="Grupo 56039" clip-path="url(#clip-path)">
          <path id="Trazado_112171-5" data-name="Trazado 112171" d="M.291,2.663,2.32,5.707a.845.845,0,0,1,0,.938L.291,9.689a1.713,1.713,0,0,0,2.851,1.9L5.824,7.566a2.506,2.506,0,0,0,0-2.78L3.141.763a1.713,1.713,0,0,0-2.851,1.9" transform="translate(0)" fill="#db9600"/>
          <path id="Trazado_112172-5" data-name="Trazado 112172" d="M73.606,2.663l2.029,3.044a.845.845,0,0,1,0,.938L73.606,9.689a1.713,1.713,0,1,0,2.85,1.9l2.682-4.023a2.506,2.506,0,0,0,0-2.78L76.457.763a1.713,1.713,0,0,0-2.85,1.9" transform="translate(-67.46)" fill="#db9600"/>
        </g>
      </g>
      <g id="Grupo_56474" data-name="Grupo 56474" transform="translate(960 6952)">
        <g id="Grupo_56039-6" data-name="Grupo 56039" clip-path="url(#clip-path)">
          <path id="Trazado_112171-6" data-name="Trazado 112171" d="M.291,2.663,2.32,5.707a.845.845,0,0,1,0,.938L.291,9.689a1.713,1.713,0,0,0,2.851,1.9L5.824,7.566a2.506,2.506,0,0,0,0-2.78L3.141.763a1.713,1.713,0,0,0-2.851,1.9" transform="translate(0)" fill="#db9600"/>
          <path id="Trazado_112172-6" data-name="Trazado 112172" d="M73.606,2.663l2.029,3.044a.845.845,0,0,1,0,.938L73.606,9.689a1.713,1.713,0,1,0,2.85,1.9l2.682-4.023a2.506,2.506,0,0,0,0-2.78L76.457.763a1.713,1.713,0,0,0-2.85,1.9" transform="translate(-67.46)" fill="#db9600"/>
        </g>
      </g>
    </g>
  </g>
</svg>
