<svg xmlns="http://www.w3.org/2000/svg" width="259.125" height="349" viewBox="0 0 259.125 349">
  <g id="Grupo_59359" data-name="Grupo 59359" transform="translate(3596 -12258)">
    <path id="Trazado_145188" data-name="Trazado 145188" d="M0,0H259V335H0Z" transform="translate(-3596 12272)" fill="#70a83b"/>
    <path id="Trazado_145187" data-name="Trazado 145187" d="M0,0H259.125V18.34H0Z" transform="translate(-3596 12258)" fill="#e5ff94"/>
    <path id="Trazado_145191" data-name="Trazado 145191" d="M0,0H4.132V208.338H0Z" transform="translate(-3345.73 12312.831)" fill="#00261e"/>
    <path id="Trazado_145180" data-name="Trazado 145180" d="M193.59,58.09a24.921,24.921,0,1,1-24.92-24.92,24.92,24.92,0,0,1,24.92,24.92" transform="translate(-3635 12266)" fill="#00261e"/>
    <path id="Trazado_145189" data-name="Trazado 145189" d="M1.538,1.089h5.81a3.938,3.938,0,0,1,2.777.971A3.524,3.524,0,0,1,11.18,4.789a3.968,3.968,0,0,1-.94,2.632A3.563,3.563,0,0,1,7.348,8.542H3.287V14H1.538ZM9.413,4.8A1.943,1.943,0,0,0,8.358,2.864a3.808,3.808,0,0,0-1.591-.272H3.287V7.065h3.48a3.326,3.326,0,0,0,1.912-.5A1.985,1.985,0,0,0,9.413,4.8Zm4.966,6.7a1.3,1.3,0,0,0,.5,1.081,1.857,1.857,0,0,0,1.187.4,3.608,3.608,0,0,0,1.617-.387A2.176,2.176,0,0,0,19,10.484V9.21a2.707,2.707,0,0,1-.747.308,6.366,6.366,0,0,1-.9.176l-.958.123a3.664,3.664,0,0,0-1.292.36A1.4,1.4,0,0,0,14.379,11.5Zm3.832-3.2a.859.859,0,0,0,.729-.457,1.391,1.391,0,0,0,.105-.606,1.285,1.285,0,0,0-.576-1.173,3.089,3.089,0,0,0-1.648-.365,2.094,2.094,0,0,0-1.758.668,2.2,2.2,0,0,0-.378,1.1H13.21A2.718,2.718,0,0,1,14.339,5.04a4.637,4.637,0,0,1,2.518-.681,5.124,5.124,0,0,1,2.7.633A2.147,2.147,0,0,1,20.584,6.96v5.423a.694.694,0,0,0,.1.4.487.487,0,0,0,.426.149q.105,0,.237-.013t.281-.04v1.169a4.406,4.406,0,0,1-.562.132,4.111,4.111,0,0,1-.527.026,1.3,1.3,0,0,1-1.187-.58,2.239,2.239,0,0,1-.272-.87,4.025,4.025,0,0,1-1.389,1.1,4.3,4.3,0,0,1-2,.466,2.967,2.967,0,0,1-2.14-.8,2.642,2.642,0,0,1-.831-1.991,2.564,2.564,0,0,1,.817-2.03,3.889,3.889,0,0,1,2.145-.888Zm5.01-3.709h1.5V6.213a3.592,3.592,0,0,1,.905-1.156,2.347,2.347,0,0,1,1.661-.681q.044,0,.149.009t.36.035V6.09a2.363,2.363,0,0,0-.259-.035q-.119-.009-.259-.009a2.258,2.258,0,0,0-1.837.769A2.684,2.684,0,0,0,24.8,8.586V14H23.221ZM30.384,11.5a1.3,1.3,0,0,0,.5,1.081,1.857,1.857,0,0,0,1.187.4,3.608,3.608,0,0,0,1.617-.387,2.176,2.176,0,0,0,1.318-2.1V9.21a2.707,2.707,0,0,1-.747.308,6.366,6.366,0,0,1-.9.176l-.958.123a3.664,3.664,0,0,0-1.292.36A1.4,1.4,0,0,0,30.384,11.5Zm3.832-3.2a.859.859,0,0,0,.729-.457,1.391,1.391,0,0,0,.105-.606,1.285,1.285,0,0,0-.576-1.173,3.089,3.089,0,0,0-1.648-.365,2.094,2.094,0,0,0-1.758.668,2.2,2.2,0,0,0-.378,1.1H29.215A2.718,2.718,0,0,1,30.344,5.04a4.637,4.637,0,0,1,2.518-.681,5.124,5.124,0,0,1,2.7.633A2.147,2.147,0,0,1,36.589,6.96v5.423a.694.694,0,0,0,.1.4.487.487,0,0,0,.426.149q.105,0,.237-.013t.281-.04v1.169a4.406,4.406,0,0,1-.562.132,4.111,4.111,0,0,1-.527.026,1.3,1.3,0,0,1-1.187-.58,2.239,2.239,0,0,1-.272-.87,4.025,4.025,0,0,1-1.389,1.1,4.3,4.3,0,0,1-2,.466,2.967,2.967,0,0,1-2.14-.8,2.642,2.642,0,0,1-.831-1.991,2.564,2.564,0,0,1,.817-2.03,3.889,3.889,0,0,1,2.145-.888ZM44.227,1.089h1.582V14H44.227ZM49.395,11.5a1.3,1.3,0,0,0,.5,1.081,1.857,1.857,0,0,0,1.187.4,3.608,3.608,0,0,0,1.617-.387,2.176,2.176,0,0,0,1.318-2.1V9.21a2.707,2.707,0,0,1-.747.308,6.366,6.366,0,0,1-.9.176l-.958.123a3.664,3.664,0,0,0-1.292.36A1.4,1.4,0,0,0,49.395,11.5Zm3.832-3.2a.859.859,0,0,0,.729-.457,1.391,1.391,0,0,0,.105-.606,1.285,1.285,0,0,0-.576-1.173,3.089,3.089,0,0,0-1.648-.365,2.094,2.094,0,0,0-1.758.668,2.2,2.2,0,0,0-.378,1.1H48.226A2.718,2.718,0,0,1,49.355,5.04a4.637,4.637,0,0,1,2.518-.681,5.124,5.124,0,0,1,2.7.633A2.147,2.147,0,0,1,55.6,6.96v5.423a.694.694,0,0,0,.1.4.487.487,0,0,0,.426.149q.105,0,.237-.013t.281-.04v1.169a4.406,4.406,0,0,1-.562.132,4.111,4.111,0,0,1-.527.026,1.3,1.3,0,0,1-1.187-.58,2.239,2.239,0,0,1-.272-.87,4.025,4.025,0,0,1-1.389,1.1,4.3,4.3,0,0,1-2,.466,2.967,2.967,0,0,1-2.14-.8,2.642,2.642,0,0,1-.831-1.991A2.564,2.564,0,0,1,48.56,9.5,3.889,3.889,0,0,1,50.7,8.612Zm13.939,4.641a2.257,2.257,0,0,0,1.841-.927,4.413,4.413,0,0,0,.734-2.773A5.176,5.176,0,0,0,69.416,7.3a2.383,2.383,0,0,0-4.5.088,6.514,6.514,0,0,0-.325,2.232,4.732,4.732,0,0,0,.325,1.854A2.243,2.243,0,0,0,67.166,12.937Zm-4.1-8.306h1.538V5.879a3.84,3.84,0,0,1,1.037-.993,3.338,3.338,0,0,1,1.881-.527,3.537,3.537,0,0,1,2.716,1.226,5.023,5.023,0,0,1,1.116,3.5q0,3.076-1.608,4.395a3.634,3.634,0,0,1-2.373.835,3.221,3.221,0,0,1-1.784-.466,4.111,4.111,0,0,1-.94-.905v4.808H63.07ZM73.248,1.089H74.83V14H73.248ZM78.416,11.5a1.3,1.3,0,0,0,.5,1.081,1.857,1.857,0,0,0,1.187.4,3.608,3.608,0,0,0,1.617-.387,2.176,2.176,0,0,0,1.318-2.1V9.21a2.707,2.707,0,0,1-.747.308,6.366,6.366,0,0,1-.9.176l-.958.123a3.664,3.664,0,0,0-1.292.36A1.4,1.4,0,0,0,78.416,11.5Zm3.832-3.2a.859.859,0,0,0,.729-.457,1.391,1.391,0,0,0,.105-.606,1.285,1.285,0,0,0-.576-1.173,3.089,3.089,0,0,0-1.648-.365,2.094,2.094,0,0,0-1.758.668,2.2,2.2,0,0,0-.378,1.1H77.247A2.718,2.718,0,0,1,78.376,5.04a4.637,4.637,0,0,1,2.518-.681,5.124,5.124,0,0,1,2.7.633A2.147,2.147,0,0,1,84.621,6.96v5.423a.694.694,0,0,0,.1.4.487.487,0,0,0,.426.149q.105,0,.237-.013t.281-.04v1.169a4.406,4.406,0,0,1-.562.132,4.111,4.111,0,0,1-.527.026,1.3,1.3,0,0,1-1.187-.58,2.239,2.239,0,0,1-.272-.87,4.025,4.025,0,0,1-1.389,1.1,4.3,4.3,0,0,1-2,.466,2.967,2.967,0,0,1-2.14-.8,2.642,2.642,0,0,1-.831-1.991,2.564,2.564,0,0,1,.817-2.03,3.889,3.889,0,0,1,2.145-.888Zm4.966-3.709h1.5V5.923a4.215,4.215,0,0,1,1.415-1.187,3.773,3.773,0,0,1,1.661-.36,2.739,2.739,0,0,1,2.707,1.4,4.962,4.962,0,0,1,.387,2.188V14H93.278V8.067a3.212,3.212,0,0,0-.255-1.389A1.545,1.545,0,0,0,91.494,5.8a3.114,3.114,0,0,0-.923.114,2.377,2.377,0,0,0-1.143.773,2.329,2.329,0,0,0-.514.962A6.478,6.478,0,0,0,88.8,9.069V14H87.214Zm13.931-.211a4.294,4.294,0,0,1,1.942.47,3.582,3.582,0,0,1,1.433,1.217,4.2,4.2,0,0,1,.633,1.661,10.868,10.868,0,0,1,.141,2.074h-6.9a4.026,4.026,0,0,0,.677,2.3,2.266,2.266,0,0,0,1.96.866,2.534,2.534,0,0,0,1.978-.817,2.755,2.755,0,0,0,.6-1.1h1.556a3.276,3.276,0,0,1-.409,1.156,4.111,4.111,0,0,1-.778,1.042,3.687,3.687,0,0,1-1.784.949,5.42,5.42,0,0,1-1.292.141,3.964,3.964,0,0,1-2.979-1.279A4.976,4.976,0,0,1,96.7,9.474a5.41,5.41,0,0,1,1.23-3.683A4.059,4.059,0,0,1,101.145,4.376Zm2.522,4.166a4.1,4.1,0,0,0-.448-1.644,2.3,2.3,0,0,0-2.171-1.143,2.406,2.406,0,0,0-1.828.787,2.972,2.972,0,0,0-.782,2Zm4.781,2.953a1.3,1.3,0,0,0,.5,1.081,1.857,1.857,0,0,0,1.187.4,3.608,3.608,0,0,0,1.617-.387,2.176,2.176,0,0,0,1.318-2.1V9.21a2.707,2.707,0,0,1-.747.308,6.366,6.366,0,0,1-.9.176l-.958.123a3.664,3.664,0,0,0-1.292.36A1.4,1.4,0,0,0,108.448,11.5Zm3.832-3.2a.859.859,0,0,0,.729-.457,1.391,1.391,0,0,0,.105-.606,1.285,1.285,0,0,0-.576-1.173,3.089,3.089,0,0,0-1.648-.365,2.094,2.094,0,0,0-1.758.668,2.2,2.2,0,0,0-.378,1.1h-1.477a2.718,2.718,0,0,1,1.129-2.421,4.637,4.637,0,0,1,2.518-.681,5.124,5.124,0,0,1,2.7.633,2.147,2.147,0,0,1,1.028,1.969v5.423a.694.694,0,0,0,.1.4.487.487,0,0,0,.426.149q.105,0,.237-.013t.281-.04v1.169a4.406,4.406,0,0,1-.562.132,4.111,4.111,0,0,1-.527.026,1.3,1.3,0,0,1-1.187-.58,2.239,2.239,0,0,1-.272-.87,4.025,4.025,0,0,1-1.389,1.1,4.3,4.3,0,0,1-2,.466,2.967,2.967,0,0,1-2.14-.8,2.642,2.642,0,0,1-.831-1.991,2.564,2.564,0,0,1,.817-2.03,3.889,3.889,0,0,1,2.145-.888Zm8.6-3.981a4.1,4.1,0,0,1,2.588.773,3.705,3.705,0,0,1,1.2,2.663h-1.538a2.839,2.839,0,0,0-.642-1.446,2.027,2.027,0,0,0-1.608-.576,2.222,2.222,0,0,0-2.162,1.477,5.865,5.865,0,0,0-.422,2.364,4.449,4.449,0,0,0,.6,2.382,2.317,2.317,0,0,0,3.441.365,3.311,3.311,0,0,0,.8-1.648h1.538a4.129,4.129,0,0,1-1.318,2.738,4.113,4.113,0,0,1-2.7.866,3.6,3.6,0,0,1-2.944-1.349,5.164,5.164,0,0,1-1.1-3.371,5.678,5.678,0,0,1,1.2-3.858A3.891,3.891,0,0,1,120.876,4.314Zm5.37.316h1.608V14h-1.608Zm0-3.542h1.608V2.882h-1.608ZM133.98,12.98a2.182,2.182,0,0,0,2.158-1.191,5.933,5.933,0,0,0,.584-2.65A4.718,4.718,0,0,0,136.3,7a2.373,2.373,0,0,0-2.3-1.3A2.271,2.271,0,0,0,131.889,6.8a5.133,5.133,0,0,0-.659,2.672,4.465,4.465,0,0,0,.659,2.5A2.322,2.322,0,0,0,133.98,12.98Zm.062-8.666a4.262,4.262,0,0,1,3.076,1.213A4.736,4.736,0,0,1,138.375,9.1a6.122,6.122,0,0,1-1.107,3.762,4.006,4.006,0,0,1-3.437,1.485,3.88,3.88,0,0,1-3.085-1.314A5.19,5.19,0,0,1,129.6,9.5a5.615,5.615,0,0,1,1.2-3.779A4.041,4.041,0,0,1,134.042,4.314ZM135.879.8l-2.347,2.54h-1.213L133.928.8Zm4.377,3.788h1.5V5.923a4.215,4.215,0,0,1,1.415-1.187,3.773,3.773,0,0,1,1.661-.36,2.739,2.739,0,0,1,2.707,1.4,4.962,4.962,0,0,1,.387,2.188V14H146.32V8.067a3.212,3.212,0,0,0-.255-1.389,1.545,1.545,0,0,0-1.529-.879,3.114,3.114,0,0,0-.923.114,2.377,2.377,0,0,0-1.143.773,2.329,2.329,0,0,0-.514.962,6.478,6.478,0,0,0-.119,1.419V14h-1.582Zm20.892,0H162.9q-.334.905-1.485,4.131-.861,2.426-1.441,3.955a26.739,26.739,0,0,1-1.934,4.395,2.21,2.21,0,0,1-1.934.791,3.794,3.794,0,0,1-.514-.026,4.062,4.062,0,0,1-.444-.1V16.294a5.458,5.458,0,0,0,.6.141,2.333,2.333,0,0,0,.325.026,1.139,1.139,0,0,0,.646-.145,1.338,1.338,0,0,0,.347-.356q.044-.07.316-.721t.4-.967l-3.48-9.686h1.793l2.522,7.664ZM5.08,25.976a4.294,4.294,0,0,1,1.942.47,3.582,3.582,0,0,1,1.433,1.217,4.2,4.2,0,0,1,.633,1.661A10.868,10.868,0,0,1,9.229,31.4h-6.9a4.026,4.026,0,0,0,.677,2.3,2.266,2.266,0,0,0,1.96.866,2.534,2.534,0,0,0,1.978-.817,2.755,2.755,0,0,0,.6-1.1H9.1A3.276,3.276,0,0,1,8.688,33.8a4.111,4.111,0,0,1-.778,1.042,3.687,3.687,0,0,1-1.784.949,5.42,5.42,0,0,1-1.292.141,3.964,3.964,0,0,1-2.979-1.279A4.976,4.976,0,0,1,.633,31.074a5.41,5.41,0,0,1,1.23-3.683A4.059,4.059,0,0,1,5.08,25.976ZM7.6,30.142A4.1,4.1,0,0,0,7.154,28.5a2.3,2.3,0,0,0-2.171-1.143,2.406,2.406,0,0,0-1.828.787,2.972,2.972,0,0,0-.782,2Zm5.15-5.625H11.171V22.689h1.582ZM9.677,37.982a3.149,3.149,0,0,0,1.279-.189q.215-.154.215-.962v-10.6h1.582V37a2.84,2.84,0,0,1-.334,1.538,2.31,2.31,0,0,1-2.1.861q-.114,0-.242-.009t-.4-.035ZM19.09,25.976a4.294,4.294,0,0,1,1.942.47,3.582,3.582,0,0,1,1.433,1.217,4.2,4.2,0,0,1,.633,1.661,10.868,10.868,0,0,1,.141,2.074h-6.9a4.026,4.026,0,0,0,.677,2.3,2.266,2.266,0,0,0,1.96.866,2.534,2.534,0,0,0,1.978-.817,2.755,2.755,0,0,0,.6-1.1h1.556A3.276,3.276,0,0,1,22.7,33.8a4.111,4.111,0,0,1-.778,1.042,3.687,3.687,0,0,1-1.784.949,5.42,5.42,0,0,1-1.292.141,3.964,3.964,0,0,1-2.979-1.279,4.976,4.976,0,0,1-1.222-3.582,5.41,5.41,0,0,1,1.23-3.683A4.059,4.059,0,0,1,19.09,25.976Zm2.522,4.166a4.1,4.1,0,0,0-.448-1.644,2.3,2.3,0,0,0-2.171-1.143,2.406,2.406,0,0,0-1.828.787,2.972,2.972,0,0,0-.782,2Zm7.2-4.228a4.1,4.1,0,0,1,2.588.773,3.705,3.705,0,0,1,1.2,2.663H31.061a2.839,2.839,0,0,0-.642-1.446,2.027,2.027,0,0,0-1.608-.576,2.222,2.222,0,0,0-2.162,1.477,5.865,5.865,0,0,0-.422,2.364,4.449,4.449,0,0,0,.6,2.382,2.317,2.317,0,0,0,3.441.365,3.311,3.311,0,0,0,.8-1.648H32.6a3.72,3.72,0,0,1-4.017,3.6,3.6,3.6,0,0,1-2.944-1.349,5.164,5.164,0,0,1-1.1-3.371,5.678,5.678,0,0,1,1.2-3.858A3.891,3.891,0,0,1,28.811,25.914Zm6.952.272v6.249a2.635,2.635,0,0,0,.229,1.178,1.6,1.6,0,0,0,1.573.844,2.224,2.224,0,0,0,2.25-1.477,5.858,5.858,0,0,0,.325-2.171V26.187h1.582V35.6H40.228l.018-1.389a3.191,3.191,0,0,1-.765.905,3.365,3.365,0,0,1-2.2.738,2.834,2.834,0,0,1-2.742-1.345,4,4,0,0,1-.4-1.925v-6.4Zm12.059-.272a4.1,4.1,0,0,1,2.588.773,3.705,3.705,0,0,1,1.2,2.663H50.071a2.839,2.839,0,0,0-.642-1.446,2.027,2.027,0,0,0-1.608-.576,2.222,2.222,0,0,0-2.162,1.477,5.865,5.865,0,0,0-.422,2.364,4.449,4.449,0,0,0,.6,2.382,2.317,2.317,0,0,0,3.441.365,3.311,3.311,0,0,0,.8-1.648h1.538a3.72,3.72,0,0,1-4.017,3.6,3.6,3.6,0,0,1-2.944-1.349,5.164,5.164,0,0,1-1.1-3.371,5.678,5.678,0,0,1,1.2-3.858A3.891,3.891,0,0,1,47.821,25.914Zm5.37.316H54.8V35.6H53.191Zm0-3.542H54.8v1.793H53.191ZM60.926,34.58a2.182,2.182,0,0,0,2.158-1.191,5.933,5.933,0,0,0,.584-2.65,4.718,4.718,0,0,0-.422-2.145,2.373,2.373,0,0,0-2.3-1.3A2.271,2.271,0,0,0,58.834,28.4a5.133,5.133,0,0,0-.659,2.672,4.465,4.465,0,0,0,.659,2.5A2.322,2.322,0,0,0,60.926,34.58Zm.062-8.666a4.262,4.262,0,0,1,3.076,1.213A4.736,4.736,0,0,1,65.32,30.7a6.122,6.122,0,0,1-1.107,3.762,4.006,4.006,0,0,1-3.437,1.485,3.88,3.88,0,0,1-3.085-1.314A5.19,5.19,0,0,1,56.549,31.1a5.615,5.615,0,0,1,1.2-3.779A4.041,4.041,0,0,1,60.987,25.914ZM62.824,22.4l-2.347,2.54H59.265l1.608-2.54ZM67.2,26.187h1.5v1.336a4.215,4.215,0,0,1,1.415-1.187,3.773,3.773,0,0,1,1.661-.36,2.739,2.739,0,0,1,2.707,1.4,4.962,4.962,0,0,1,.387,2.188V35.6H73.266V29.667a3.212,3.212,0,0,0-.255-1.389,1.545,1.545,0,0,0-1.529-.879,3.114,3.114,0,0,0-.923.114,2.377,2.377,0,0,0-1.143.773,2.329,2.329,0,0,0-.514.962,6.478,6.478,0,0,0-.119,1.419V35.6H67.2ZM83.215,31a4.666,4.666,0,0,0,.642,2.531,2.248,2.248,0,0,0,2.057,1.02,2.166,2.166,0,0,0,1.806-.945,4.462,4.462,0,0,0,.708-2.711,4.009,4.009,0,0,0-.729-2.641,2.276,2.276,0,0,0-1.8-.857,2.378,2.378,0,0,0-1.938.914A4.186,4.186,0,0,0,83.215,31ZM85.6,26.02a3.349,3.349,0,0,1,1.811.457,4.253,4.253,0,0,1,.958.923V22.645h1.521V35.6H88.462V34.29a3.423,3.423,0,0,1-1.31,1.257,3.748,3.748,0,0,1-1.731.387A3.506,3.506,0,0,1,82.7,34.611a5.172,5.172,0,0,1-1.151-3.52,6.076,6.076,0,0,1,1.05-3.564A3.439,3.439,0,0,1,85.6,26.02Zm10.547-.044a4.294,4.294,0,0,1,1.942.47,3.582,3.582,0,0,1,1.433,1.217,4.2,4.2,0,0,1,.633,1.661,10.868,10.868,0,0,1,.141,2.074h-6.9a4.026,4.026,0,0,0,.677,2.3,2.266,2.266,0,0,0,1.96.866,2.534,2.534,0,0,0,1.978-.817,2.755,2.755,0,0,0,.6-1.1h1.556a3.276,3.276,0,0,1-.409,1.156,4.111,4.111,0,0,1-.778,1.042,3.687,3.687,0,0,1-1.784.949,5.42,5.42,0,0,1-1.292.141,3.964,3.964,0,0,1-2.979-1.279A4.976,4.976,0,0,1,91.7,31.074a5.41,5.41,0,0,1,1.23-3.683A4.059,4.059,0,0,1,96.144,25.976Zm2.522,4.166a4.1,4.1,0,0,0-.448-1.644,2.3,2.3,0,0,0-2.171-1.143,2.406,2.406,0,0,0-1.828.787,2.972,2.972,0,0,0-.782,2Zm3.612-7.453h1.582V35.6h-1.582Zm12.929,11.848a2.257,2.257,0,0,0,1.841-.927,4.413,4.413,0,0,0,.734-2.773,5.176,5.176,0,0,0-.325-1.934,2.383,2.383,0,0,0-4.5.088,6.514,6.514,0,0,0-.325,2.232,4.732,4.732,0,0,0,.325,1.854A2.243,2.243,0,0,0,115.207,34.537Zm-4.1-8.306h1.538v1.248a3.84,3.84,0,0,1,1.037-.993,3.338,3.338,0,0,1,1.881-.527,3.537,3.537,0,0,1,2.716,1.226,5.023,5.023,0,0,1,1.116,3.5q0,3.076-1.608,4.395a3.634,3.634,0,0,1-2.373.835,3.221,3.221,0,0,1-1.784-.466,4.111,4.111,0,0,1-.94-.905v4.808h-1.582Zm10.178-3.542h1.582V35.6h-1.582ZM126.457,33.1a1.3,1.3,0,0,0,.5,1.081,1.857,1.857,0,0,0,1.187.4,3.608,3.608,0,0,0,1.617-.387,2.176,2.176,0,0,0,1.318-2.1V30.81a2.707,2.707,0,0,1-.747.308,6.366,6.366,0,0,1-.9.176l-.958.123a3.664,3.664,0,0,0-1.292.36A1.4,1.4,0,0,0,126.457,33.1Zm3.832-3.2a.859.859,0,0,0,.729-.457,1.391,1.391,0,0,0,.105-.606,1.285,1.285,0,0,0-.576-1.173,3.089,3.089,0,0,0-1.648-.365,2.094,2.094,0,0,0-1.758.668,2.2,2.2,0,0,0-.378,1.1h-1.477a2.718,2.718,0,0,1,1.129-2.421,4.637,4.637,0,0,1,2.518-.681,5.124,5.124,0,0,1,2.7.633,2.147,2.147,0,0,1,1.028,1.969v5.423a.694.694,0,0,0,.1.4.487.487,0,0,0,.426.149q.105,0,.237-.013t.281-.04v1.169a4.406,4.406,0,0,1-.562.132,4.111,4.111,0,0,1-.527.026,1.3,1.3,0,0,1-1.187-.58,2.239,2.239,0,0,1-.272-.87,4.025,4.025,0,0,1-1.389,1.1,4.3,4.3,0,0,1-2,.466,2.967,2.967,0,0,1-2.14-.8,2.642,2.642,0,0,1-.831-1.991,2.564,2.564,0,0,1,.817-2.03,3.889,3.889,0,0,1,2.145-.888Zm4.966-3.709h1.5v1.336a4.215,4.215,0,0,1,1.415-1.187,3.773,3.773,0,0,1,1.661-.36,2.739,2.739,0,0,1,2.707,1.4,4.962,4.962,0,0,1,.387,2.188V35.6h-1.608V29.667a3.212,3.212,0,0,0-.255-1.389,1.545,1.545,0,0,0-1.529-.879,3.114,3.114,0,0,0-.923.114,2.377,2.377,0,0,0-1.143.773,2.329,2.329,0,0,0-.514.962,6.478,6.478,0,0,0-.119,1.419V35.6h-1.582ZM1.556,46.354A2.821,2.821,0,0,1,1.9,44.913,2.423,2.423,0,0,1,4.034,44.1q.149,0,.308.009t.36.026v1.441q-.246-.018-.356-.022t-.207,0q-.721,0-.861.374a7.385,7.385,0,0,0-.141,1.9H4.7v1.248H3.12V57.2H1.556V49.079H.246V47.831h1.31Zm4.667-.272V44.289H7.8v1.793Zm0,1.749H7.8V57.2H6.223Zm4.254-2.672h1.6v2.628h1.5v1.292h-1.5v6.144a.665.665,0,0,0,.334.659,1.42,1.42,0,0,0,.615.1q.114,0,.246,0t.308-.022V57.2a3.532,3.532,0,0,1-.567.114,5.39,5.39,0,0,1-.637.035,1.717,1.717,0,0,1-1.5-.567,2.519,2.519,0,0,1-.4-1.472V49.079H9.2V47.787h1.274ZM18.9,56.18a2.182,2.182,0,0,0,2.158-1.191,5.933,5.933,0,0,0,.584-2.65,4.718,4.718,0,0,0-.422-2.145,2.373,2.373,0,0,0-2.3-1.3A2.271,2.271,0,0,0,16.8,50a5.133,5.133,0,0,0-.659,2.672,4.465,4.465,0,0,0,.659,2.5A2.322,2.322,0,0,0,18.9,56.18Zm.062-8.666a4.262,4.262,0,0,1,3.076,1.213A4.736,4.736,0,0,1,23.291,52.3a6.122,6.122,0,0,1-1.107,3.762,4.006,4.006,0,0,1-3.437,1.485,3.88,3.88,0,0,1-3.085-1.314A5.19,5.19,0,0,1,14.52,52.7a5.615,5.615,0,0,1,1.2-3.779A4.041,4.041,0,0,1,18.958,47.514Zm7.154,6.732a2.3,2.3,0,0,0,.4,1.213,2.485,2.485,0,0,0,2.074.765,3.059,3.059,0,0,0,1.547-.382A1.27,1.27,0,0,0,30.8,54.66a1.011,1.011,0,0,0-.536-.923,6.374,6.374,0,0,0-1.354-.448l-1.257-.316a6.131,6.131,0,0,1-1.775-.668,2,2,0,0,1-1.02-1.775,2.713,2.713,0,0,1,.962-2.162,3.839,3.839,0,0,1,2.588-.826,3.593,3.593,0,0,1,3.067,1.248,2.708,2.708,0,0,1,.571,1.705H30.551a1.83,1.83,0,0,0-.378-.976,2.41,2.41,0,0,0-1.89-.624,2.259,2.259,0,0,0-1.358.343,1.074,1.074,0,0,0-.461.905,1.114,1.114,0,0,0,.606.984,3.644,3.644,0,0,0,1.037.387l1.046.255a8.087,8.087,0,0,1,2.285.8,2.118,2.118,0,0,1,.923,1.907,2.906,2.906,0,0,1-.954,2.171,4.059,4.059,0,0,1-2.9.914,3.9,3.9,0,0,1-2.975-.954,3.606,3.606,0,0,1-.936-2.36Zm9.272.448a1.3,1.3,0,0,0,.5,1.081,1.857,1.857,0,0,0,1.187.4,3.608,3.608,0,0,0,1.617-.387,2.176,2.176,0,0,0,1.318-2.1V52.41a2.707,2.707,0,0,1-.747.308,6.366,6.366,0,0,1-.9.176l-.958.123a3.664,3.664,0,0,0-1.292.36A1.4,1.4,0,0,0,35.385,54.7Zm3.832-3.2a.859.859,0,0,0,.729-.457,1.391,1.391,0,0,0,.105-.606,1.285,1.285,0,0,0-.576-1.173,3.089,3.089,0,0,0-1.648-.365,2.094,2.094,0,0,0-1.758.668,2.2,2.2,0,0,0-.378,1.1H34.216a2.718,2.718,0,0,1,1.129-2.421,4.637,4.637,0,0,1,2.518-.681,5.124,5.124,0,0,1,2.7.633A2.147,2.147,0,0,1,41.59,50.16v5.423a.694.694,0,0,0,.1.4.487.487,0,0,0,.426.149q.105,0,.237-.013t.281-.04v1.169a4.406,4.406,0,0,1-.562.132,4.111,4.111,0,0,1-.527.026,1.3,1.3,0,0,1-1.187-.58,2.239,2.239,0,0,1-.272-.87,4.025,4.025,0,0,1-1.389,1.1,4.3,4.3,0,0,1-2,.466,2.967,2.967,0,0,1-2.14-.8,2.642,2.642,0,0,1-.831-1.991,2.564,2.564,0,0,1,.817-2.03,3.889,3.889,0,0,1,2.145-.888Zm4.966-3.709h1.5v1.336A4.215,4.215,0,0,1,47.1,47.936a3.773,3.773,0,0,1,1.661-.36,2.739,2.739,0,0,1,2.707,1.4,4.962,4.962,0,0,1,.387,2.188V57.2H50.247V51.267a3.212,3.212,0,0,0-.255-1.389A1.545,1.545,0,0,0,48.463,49a3.114,3.114,0,0,0-.923.114,2.377,2.377,0,0,0-1.143.773,2.329,2.329,0,0,0-.514.962,6.478,6.478,0,0,0-.119,1.419V57.2H44.183Zm10.011.044H55.8V57.2H54.193Zm0-3.542H55.8v1.793H54.193Zm4.315.87h1.6v2.628h1.5v1.292h-1.5v6.144a.665.665,0,0,0,.334.659,1.42,1.42,0,0,0,.615.1q.114,0,.246,0t.308-.022V57.2a3.532,3.532,0,0,1-.567.114,5.39,5.39,0,0,1-.637.035,1.717,1.717,0,0,1-1.5-.567,2.519,2.519,0,0,1-.4-1.472V49.079H57.234V47.787h1.274Zm5.9,9.536a1.3,1.3,0,0,0,.5,1.081,1.857,1.857,0,0,0,1.187.4,3.608,3.608,0,0,0,1.617-.387,2.176,2.176,0,0,0,1.318-2.1V52.41a2.707,2.707,0,0,1-.747.308,6.366,6.366,0,0,1-.9.176l-.958.123a3.664,3.664,0,0,0-1.292.36A1.4,1.4,0,0,0,64.406,54.7Zm3.832-3.2a.859.859,0,0,0,.729-.457,1.391,1.391,0,0,0,.105-.606,1.285,1.285,0,0,0-.576-1.173,3.089,3.089,0,0,0-1.648-.365,2.094,2.094,0,0,0-1.758.668,2.2,2.2,0,0,0-.378,1.1H63.237a2.718,2.718,0,0,1,1.129-2.421,4.637,4.637,0,0,1,2.518-.681,5.124,5.124,0,0,1,2.7.633,2.147,2.147,0,0,1,1.028,1.969v5.423a.694.694,0,0,0,.1.4.487.487,0,0,0,.426.149q.105,0,.237-.013t.281-.04v1.169a4.406,4.406,0,0,1-.562.132,4.111,4.111,0,0,1-.527.026,1.3,1.3,0,0,1-1.187-.58,2.239,2.239,0,0,1-.272-.87,4.025,4.025,0,0,1-1.389,1.1,4.3,4.3,0,0,1-2,.466,2.967,2.967,0,0,1-2.14-.8,2.642,2.642,0,0,1-.831-1.991,2.564,2.564,0,0,1,.817-2.03,3.889,3.889,0,0,1,2.145-.888Zm5.01-3.709h1.5v1.626a3.592,3.592,0,0,1,.905-1.156,2.347,2.347,0,0,1,1.661-.681q.044,0,.149.009t.36.035v1.67a2.363,2.363,0,0,0-.259-.035q-.119-.009-.259-.009a2.258,2.258,0,0,0-1.837.769,2.684,2.684,0,0,0-.642,1.771V57.2H73.248Zm5.95.044h1.608V57.2H79.2Zm0-3.542h1.608v1.793H79.2ZM86.933,56.18A2.182,2.182,0,0,0,89.09,54.99a5.933,5.933,0,0,0,.584-2.65,4.718,4.718,0,0,0-.422-2.145,2.373,2.373,0,0,0-2.3-1.3A2.271,2.271,0,0,0,84.841,50a5.133,5.133,0,0,0-.659,2.672,4.465,4.465,0,0,0,.659,2.5A2.322,2.322,0,0,0,86.933,56.18Zm.062-8.666a4.262,4.262,0,0,1,3.076,1.213A4.736,4.736,0,0,1,91.327,52.3a6.122,6.122,0,0,1-1.107,3.762,4.006,4.006,0,0,1-3.437,1.485A3.88,3.88,0,0,1,83.7,56.229,5.19,5.19,0,0,1,82.556,52.7a5.615,5.615,0,0,1,1.2-3.779A4.041,4.041,0,0,1,86.994,47.514ZM99.211,52.6a4.666,4.666,0,0,0,.642,2.531,2.248,2.248,0,0,0,2.057,1.02,2.166,2.166,0,0,0,1.806-.945,4.462,4.462,0,0,0,.708-2.711,4.009,4.009,0,0,0-.729-2.641,2.276,2.276,0,0,0-1.8-.857,2.378,2.378,0,0,0-1.938.914A4.186,4.186,0,0,0,99.211,52.6Zm2.382-4.983a3.349,3.349,0,0,1,1.811.457,4.253,4.253,0,0,1,.958.923V44.245h1.521V57.2h-1.424V55.89a3.423,3.423,0,0,1-1.31,1.257,3.748,3.748,0,0,1-1.731.387,3.506,3.506,0,0,1-2.725-1.323,5.172,5.172,0,0,1-1.151-3.52,6.076,6.076,0,0,1,1.05-3.564A3.439,3.439,0,0,1,101.593,47.62Zm10.547-.044a4.294,4.294,0,0,1,1.942.47,3.582,3.582,0,0,1,1.433,1.217,4.2,4.2,0,0,1,.633,1.661A10.868,10.868,0,0,1,116.288,53h-6.9a4.026,4.026,0,0,0,.677,2.3,2.266,2.266,0,0,0,1.96.866A2.534,2.534,0,0,0,114,55.346a2.755,2.755,0,0,0,.6-1.1h1.556a3.276,3.276,0,0,1-.409,1.156,4.111,4.111,0,0,1-.778,1.042,3.687,3.687,0,0,1-1.784.949,5.42,5.42,0,0,1-1.292.141,3.964,3.964,0,0,1-2.979-1.279,4.976,4.976,0,0,1-1.222-3.582,5.41,5.41,0,0,1,1.23-3.683A4.059,4.059,0,0,1,112.14,47.576Zm2.522,4.166a4.1,4.1,0,0,0-.448-1.644,2.3,2.3,0,0,0-2.171-1.143,2.406,2.406,0,0,0-1.828.787,2.972,2.972,0,0,0-.782,2Zm3.445-7.5h1.538v4.685a3.447,3.447,0,0,1,2.8-1.389,3.667,3.667,0,0,1,2.852,1.208,5.148,5.148,0,0,1,1.094,3.564,6.112,6.112,0,0,1-1.081,3.709,3.507,3.507,0,0,1-3,1.477,3.071,3.071,0,0,1-1.811-.519,4.372,4.372,0,0,1-.94-.984v1.2h-1.459ZM122.221,56.1a2.114,2.114,0,0,0,1.92-1.02,5.02,5.02,0,0,0,.637-2.689,4.414,4.414,0,0,0-.637-2.461,2.1,2.1,0,0,0-1.876-.976,2.617,2.617,0,0,0-1.894.8,3.592,3.592,0,0,0-.813,2.637,5.827,5.827,0,0,0,.334,2.153A2.308,2.308,0,0,0,122.221,56.1Zm9.94-8.525a4.294,4.294,0,0,1,1.942.47,3.582,3.582,0,0,1,1.433,1.217,4.2,4.2,0,0,1,.633,1.661A10.868,10.868,0,0,1,136.31,53h-6.9a4.026,4.026,0,0,0,.677,2.3,2.266,2.266,0,0,0,1.96.866,2.534,2.534,0,0,0,1.978-.817,2.755,2.755,0,0,0,.6-1.1h1.556a3.276,3.276,0,0,1-.409,1.156,4.111,4.111,0,0,1-.778,1.042,3.687,3.687,0,0,1-1.784.949,5.42,5.42,0,0,1-1.292.141,3.964,3.964,0,0,1-2.979-1.279,4.976,4.976,0,0,1-1.222-3.582,5.41,5.41,0,0,1,1.23-3.683A4.059,4.059,0,0,1,132.161,47.576Zm2.522,4.166a4.1,4.1,0,0,0-.448-1.644,2.3,2.3,0,0,0-2.171-1.143,2.406,2.406,0,0,0-1.828.787,2.972,2.972,0,0,0-.782,2Zm12.2-4.228a4.1,4.1,0,0,1,2.588.773,3.705,3.705,0,0,1,1.2,2.663h-1.538a2.839,2.839,0,0,0-.642-1.446,2.027,2.027,0,0,0-1.608-.576,2.222,2.222,0,0,0-2.162,1.477,5.865,5.865,0,0,0-.422,2.364,4.449,4.449,0,0,0,.6,2.382,2.317,2.317,0,0,0,3.441.365,3.311,3.311,0,0,0,.8-1.648h1.538a3.72,3.72,0,0,1-4.017,3.6,3.6,3.6,0,0,1-2.944-1.349,5.164,5.164,0,0,1-1.1-3.371,5.678,5.678,0,0,1,1.2-3.858A3.891,3.891,0,0,1,146.883,47.514Zm9.105,8.666a2.182,2.182,0,0,0,2.158-1.191,5.933,5.933,0,0,0,.584-2.65,4.718,4.718,0,0,0-.422-2.145,2.373,2.373,0,0,0-2.3-1.3A2.271,2.271,0,0,0,153.9,50a5.133,5.133,0,0,0-.659,2.672,4.465,4.465,0,0,0,.659,2.5A2.322,2.322,0,0,0,155.988,56.18Zm.062-8.666a4.262,4.262,0,0,1,3.076,1.213,4.736,4.736,0,0,1,1.257,3.568,6.122,6.122,0,0,1-1.107,3.762,4.006,4.006,0,0,1-3.437,1.485,3.88,3.88,0,0,1-3.085-1.314,5.19,5.19,0,0,1-1.143-3.529,5.615,5.615,0,0,1,1.2-3.779A4.041,4.041,0,0,1,156.05,47.514Zm6.214.272h1.5v1.336a4.215,4.215,0,0,1,1.415-1.187,3.773,3.773,0,0,1,1.661-.36,2.739,2.739,0,0,1,2.707,1.4,4.962,4.962,0,0,1,.387,2.188V57.2h-1.608V51.267a3.212,3.212,0,0,0-.255-1.389A1.545,1.545,0,0,0,166.544,49a3.114,3.114,0,0,0-.923.114,2.377,2.377,0,0,0-1.143.773,2.329,2.329,0,0,0-.514.962,6.478,6.478,0,0,0-.119,1.419V57.2h-1.582Zm10.327-2.628h1.6v2.628h1.5v1.292h-1.5v6.144a.665.665,0,0,0,.334.659,1.42,1.42,0,0,0,.615.1q.114,0,.246,0t.308-.022V57.2a3.532,3.532,0,0,1-.567.114,5.39,5.39,0,0,1-.637.035,1.717,1.717,0,0,1-1.5-.567,2.519,2.519,0,0,1-.4-1.472V49.079h-1.274V47.787h1.274Zm5.9,9.536a1.3,1.3,0,0,0,.5,1.081,1.857,1.857,0,0,0,1.187.4,3.608,3.608,0,0,0,1.617-.387,2.176,2.176,0,0,0,1.318-2.1V52.41a2.707,2.707,0,0,1-.747.308,6.366,6.366,0,0,1-.9.176l-.958.123a3.664,3.664,0,0,0-1.292.36A1.4,1.4,0,0,0,178.488,54.7Zm3.832-3.2a.859.859,0,0,0,.729-.457,1.391,1.391,0,0,0,.105-.606,1.285,1.285,0,0,0-.576-1.173,3.089,3.089,0,0,0-1.648-.365,2.094,2.094,0,0,0-1.758.668,2.2,2.2,0,0,0-.378,1.1h-1.477a2.718,2.718,0,0,1,1.129-2.421,4.637,4.637,0,0,1,2.518-.681,5.124,5.124,0,0,1,2.7.633,2.147,2.147,0,0,1,1.028,1.969v5.423a.694.694,0,0,0,.1.4.487.487,0,0,0,.426.149q.105,0,.237-.013t.281-.04v1.169a4.406,4.406,0,0,1-.562.132,4.111,4.111,0,0,1-.527.026,1.3,1.3,0,0,1-1.187-.58,2.239,2.239,0,0,1-.272-.87,4.025,4.025,0,0,1-1.389,1.1,4.3,4.3,0,0,1-2,.466,2.967,2.967,0,0,1-2.14-.8,2.642,2.642,0,0,1-.831-1.991,2.564,2.564,0,0,1,.817-2.03,3.889,3.889,0,0,1,2.145-.888Zm5.01-3.709h1.5v1.626a3.592,3.592,0,0,1,.905-1.156,2.347,2.347,0,0,1,1.661-.681q.044,0,.149.009t.36.035v1.67a2.363,2.363,0,0,0-.259-.035q-.119-.009-.259-.009a2.258,2.258,0,0,0-1.837.769,2.684,2.684,0,0,0-.642,1.771V57.2H187.33ZM4.79,69.114a4.1,4.1,0,0,1,2.588.773,3.705,3.705,0,0,1,1.2,2.663H7.04A2.839,2.839,0,0,0,6.4,71.105a2.027,2.027,0,0,0-1.608-.576,2.222,2.222,0,0,0-2.162,1.477,5.865,5.865,0,0,0-.422,2.364,4.449,4.449,0,0,0,.6,2.382,2.05,2.05,0,0,0,1.881.967,2.057,2.057,0,0,0,1.56-.6,3.311,3.311,0,0,0,.8-1.648H8.578A4.129,4.129,0,0,1,7.26,78.207a4.113,4.113,0,0,1-2.7.866,3.6,3.6,0,0,1-2.944-1.349,5.164,5.164,0,0,1-1.1-3.371,5.678,5.678,0,0,1,1.2-3.858A3.891,3.891,0,0,1,4.79,69.114ZM13.9,77.78a2.182,2.182,0,0,0,2.158-1.191,5.933,5.933,0,0,0,.584-2.65,4.718,4.718,0,0,0-.422-2.145,2.373,2.373,0,0,0-2.3-1.3A2.271,2.271,0,0,0,11.8,71.6a5.133,5.133,0,0,0-.659,2.672,4.465,4.465,0,0,0,.659,2.5A2.322,2.322,0,0,0,13.9,77.78Zm.062-8.666a4.262,4.262,0,0,1,3.076,1.213A4.736,4.736,0,0,1,18.29,73.9a6.122,6.122,0,0,1-1.107,3.762,4.006,4.006,0,0,1-3.437,1.485,3.88,3.88,0,0,1-3.085-1.314A5.19,5.19,0,0,1,9.519,74.3a5.615,5.615,0,0,1,1.2-3.779A4.041,4.041,0,0,1,13.957,69.114Zm6.214.272h1.5v1.336a4.215,4.215,0,0,1,1.415-1.187,3.773,3.773,0,0,1,1.661-.36,2.739,2.739,0,0,1,2.707,1.4,4.962,4.962,0,0,1,.387,2.188V78.8H26.235V72.867a3.212,3.212,0,0,0-.255-1.389,1.545,1.545,0,0,0-1.529-.879,3.114,3.114,0,0,0-.923.114,2.377,2.377,0,0,0-1.143.773,2.329,2.329,0,0,0-.514.962,6.478,6.478,0,0,0-.119,1.419V78.8H20.171ZM36.4,76.3a1.3,1.3,0,0,0,.5,1.081,1.857,1.857,0,0,0,1.187.4,3.608,3.608,0,0,0,1.617-.387,2.176,2.176,0,0,0,1.318-2.1V74.01a2.707,2.707,0,0,1-.747.308,6.366,6.366,0,0,1-.9.176l-.958.123a3.664,3.664,0,0,0-1.292.36A1.4,1.4,0,0,0,36.4,76.3Zm3.832-3.2a.859.859,0,0,0,.729-.457,1.391,1.391,0,0,0,.105-.606,1.285,1.285,0,0,0-.576-1.173,3.089,3.089,0,0,0-1.648-.365,2.094,2.094,0,0,0-1.758.668,2.2,2.2,0,0,0-.378,1.1H35.227a2.718,2.718,0,0,1,1.129-2.421,4.637,4.637,0,0,1,2.518-.681,5.124,5.124,0,0,1,2.7.633A2.147,2.147,0,0,1,42.6,71.76v5.423a.694.694,0,0,0,.1.4.487.487,0,0,0,.426.149q.105,0,.237-.013t.281-.04v1.169a4.406,4.406,0,0,1-.562.132,4.111,4.111,0,0,1-.527.026,1.3,1.3,0,0,1-1.187-.58,2.239,2.239,0,0,1-.272-.87,4.025,4.025,0,0,1-1.389,1.1,4.3,4.3,0,0,1-2,.466,2.967,2.967,0,0,1-2.14-.8,2.642,2.642,0,0,1-.831-1.991,2.564,2.564,0,0,1,.817-2.03,3.889,3.889,0,0,1,2.145-.888Zm5.906,2.751a2.3,2.3,0,0,0,.4,1.213,2.485,2.485,0,0,0,2.074.765,3.059,3.059,0,0,0,1.547-.382,1.27,1.27,0,0,0,.668-1.182,1.011,1.011,0,0,0-.536-.923,6.374,6.374,0,0,0-1.354-.448l-1.257-.316A6.131,6.131,0,0,1,45.9,73.9a2,2,0,0,1-1.02-1.775,2.713,2.713,0,0,1,.962-2.162,3.839,3.839,0,0,1,2.588-.826A3.593,3.593,0,0,1,51.5,70.389a2.708,2.708,0,0,1,.571,1.705H50.572a1.83,1.83,0,0,0-.378-.976,2.41,2.41,0,0,0-1.89-.624,2.259,2.259,0,0,0-1.358.343,1.074,1.074,0,0,0-.461.905,1.114,1.114,0,0,0,.606.984,3.644,3.644,0,0,0,1.037.387l1.046.255a8.087,8.087,0,0,1,2.285.8,2.118,2.118,0,0,1,.923,1.907,2.906,2.906,0,0,1-.954,2.171,4.059,4.059,0,0,1-2.9.914,3.9,3.9,0,0,1-2.975-.954,3.606,3.606,0,0,1-.936-2.36Zm11.979-6.671a4.294,4.294,0,0,1,1.942.47,3.582,3.582,0,0,1,1.433,1.217,4.2,4.2,0,0,1,.633,1.661,10.868,10.868,0,0,1,.141,2.074h-6.9a4.026,4.026,0,0,0,.677,2.3,2.266,2.266,0,0,0,1.96.866,2.534,2.534,0,0,0,1.978-.817,2.755,2.755,0,0,0,.6-1.1H62.13A3.276,3.276,0,0,1,61.721,77a4.111,4.111,0,0,1-.778,1.042,3.687,3.687,0,0,1-1.784.949,5.42,5.42,0,0,1-1.292.141,3.964,3.964,0,0,1-2.979-1.279,4.976,4.976,0,0,1-1.222-3.582,5.41,5.41,0,0,1,1.23-3.683A4.059,4.059,0,0,1,58.113,69.176Zm2.522,4.166a4.1,4.1,0,0,0-.448-1.644,2.3,2.3,0,0,0-2.171-1.143,2.406,2.406,0,0,0-1.828.787,2.972,2.972,0,0,0-.782,2Zm4.509,2.5a2.3,2.3,0,0,0,.4,1.213,2.485,2.485,0,0,0,2.074.765,3.059,3.059,0,0,0,1.547-.382,1.27,1.27,0,0,0,.668-1.182,1.011,1.011,0,0,0-.536-.923,6.374,6.374,0,0,0-1.354-.448l-1.257-.316a6.131,6.131,0,0,1-1.775-.668,2,2,0,0,1-1.02-1.775,2.713,2.713,0,0,1,.962-2.162,3.839,3.839,0,0,1,2.588-.826,3.593,3.593,0,0,1,3.067,1.248,2.708,2.708,0,0,1,.571,1.705H69.583a1.83,1.83,0,0,0-.378-.976,2.41,2.41,0,0,0-1.89-.624,2.259,2.259,0,0,0-1.358.343,1.074,1.074,0,0,0-.461.905,1.114,1.114,0,0,0,.606.984,3.644,3.644,0,0,0,1.037.387l1.046.255a8.087,8.087,0,0,1,2.285.8,2.118,2.118,0,0,1,.923,1.907,2.906,2.906,0,0,1-.954,2.171,4.059,4.059,0,0,1-2.9.914,3.9,3.9,0,0,1-2.975-.954,3.606,3.606,0,0,1-.936-2.36ZM76.939,77.78A2.182,2.182,0,0,0,79.1,76.59a5.933,5.933,0,0,0,.584-2.65A4.718,4.718,0,0,0,79.26,71.8a2.373,2.373,0,0,0-2.3-1.3A2.271,2.271,0,0,0,74.848,71.6a5.133,5.133,0,0,0-.659,2.672,4.465,4.465,0,0,0,.659,2.5A2.322,2.322,0,0,0,76.939,77.78ZM77,69.114a4.262,4.262,0,0,1,3.076,1.213A4.736,4.736,0,0,1,81.334,73.9a6.122,6.122,0,0,1-1.107,3.762,4.006,4.006,0,0,1-3.437,1.485,3.88,3.88,0,0,1-3.085-1.314A5.19,5.19,0,0,1,72.563,74.3a5.615,5.615,0,0,1,1.2-3.779A4.041,4.041,0,0,1,77,69.114Zm6.258.272h1.5v1.626a3.592,3.592,0,0,1,.905-1.156,2.347,2.347,0,0,1,1.661-.681q.044,0,.149.009t.36.035v1.67a2.363,2.363,0,0,0-.259-.035q-.119-.009-.259-.009a2.258,2.258,0,0,0-1.837.769,2.684,2.684,0,0,0-.642,1.771V78.8H83.259Zm6.451.044h1.608V78.8H89.71Zm2.8-3.832-2.347,2.54H88.954l1.608-2.54Zm2.909,10.7a1.3,1.3,0,0,0,.5,1.081,1.857,1.857,0,0,0,1.187.4,3.608,3.608,0,0,0,1.617-.387,2.176,2.176,0,0,0,1.318-2.1V74.01a2.707,2.707,0,0,1-.747.308,6.366,6.366,0,0,1-.9.176l-.958.123a3.664,3.664,0,0,0-1.292.36A1.4,1.4,0,0,0,95.423,76.3Zm3.832-3.2a.859.859,0,0,0,.729-.457,1.391,1.391,0,0,0,.105-.606,1.285,1.285,0,0,0-.576-1.173,3.089,3.089,0,0,0-1.648-.365,2.094,2.094,0,0,0-1.758.668,2.2,2.2,0,0,0-.378,1.1H94.254a2.718,2.718,0,0,1,1.129-2.421,4.637,4.637,0,0,1,2.518-.681,5.124,5.124,0,0,1,2.7.633,2.147,2.147,0,0,1,1.028,1.969v5.423a.694.694,0,0,0,.1.4.487.487,0,0,0,.426.149q.105,0,.237-.013t.281-.04v1.169a4.406,4.406,0,0,1-.562.132,4.111,4.111,0,0,1-.527.026,1.3,1.3,0,0,1-1.187-.58,2.239,2.239,0,0,1-.272-.87,4.025,4.025,0,0,1-1.389,1.1,4.3,4.3,0,0,1-2,.466,2.967,2.967,0,0,1-2.14-.8,2.642,2.642,0,0,1-.831-1.991,2.564,2.564,0,0,1,.817-2.03,3.889,3.889,0,0,1,2.145-.888ZM110.224,74.2a4.666,4.666,0,0,0,.642,2.531,2.248,2.248,0,0,0,2.057,1.02,2.166,2.166,0,0,0,1.806-.945,4.462,4.462,0,0,0,.708-2.711,4.009,4.009,0,0,0-.729-2.641,2.276,2.276,0,0,0-1.8-.857,2.378,2.378,0,0,0-1.938.914A4.186,4.186,0,0,0,110.224,74.2Zm2.382-4.983a3.349,3.349,0,0,1,1.811.457,4.253,4.253,0,0,1,.958.923V65.845h1.521V78.8h-1.424V77.49a3.423,3.423,0,0,1-1.31,1.257,3.748,3.748,0,0,1-1.731.387,3.506,3.506,0,0,1-2.725-1.323,5.172,5.172,0,0,1-1.151-3.52,6.076,6.076,0,0,1,1.05-3.564A3.439,3.439,0,0,1,112.605,69.22Zm10.547-.044a4.294,4.294,0,0,1,1.942.47,3.582,3.582,0,0,1,1.433,1.217,4.2,4.2,0,0,1,.633,1.661A10.868,10.868,0,0,1,127.3,74.6h-6.9a4.026,4.026,0,0,0,.677,2.3,2.266,2.266,0,0,0,1.96.866,2.534,2.534,0,0,0,1.978-.817,2.755,2.755,0,0,0,.6-1.1h1.556A3.276,3.276,0,0,1,126.76,77a4.111,4.111,0,0,1-.778,1.042,3.687,3.687,0,0,1-1.784.949,5.42,5.42,0,0,1-1.292.141,3.964,3.964,0,0,1-2.979-1.279,4.976,4.976,0,0,1-1.222-3.582,5.41,5.41,0,0,1,1.23-3.683A4.059,4.059,0,0,1,123.152,69.176Zm2.522,4.166a4.1,4.1,0,0,0-.448-1.644,2.3,2.3,0,0,0-2.171-1.143,2.406,2.406,0,0,0-1.828.787,2.972,2.972,0,0,0-.782,2Zm3.612-7.453h1.582V78.8h-1.582ZM139.456,76.3a1.3,1.3,0,0,0,.5,1.081,1.857,1.857,0,0,0,1.187.4,3.608,3.608,0,0,0,1.617-.387,2.176,2.176,0,0,0,1.318-2.1V74.01a2.707,2.707,0,0,1-.747.308,6.366,6.366,0,0,1-.9.176l-.958.123a3.664,3.664,0,0,0-1.292.36A1.4,1.4,0,0,0,139.456,76.3Zm3.832-3.2a.859.859,0,0,0,.729-.457,1.391,1.391,0,0,0,.105-.606,1.285,1.285,0,0,0-.576-1.173,3.089,3.089,0,0,0-1.648-.365,2.094,2.094,0,0,0-1.758.668,2.2,2.2,0,0,0-.378,1.1h-1.477a2.718,2.718,0,0,1,1.129-2.421,4.637,4.637,0,0,1,2.518-.681,5.124,5.124,0,0,1,2.7.633,2.147,2.147,0,0,1,1.028,1.969v5.423a.694.694,0,0,0,.1.4.487.487,0,0,0,.426.149q.105,0,.237-.013t.281-.04v1.169a4.406,4.406,0,0,1-.562.132,4.111,4.111,0,0,1-.527.026,1.3,1.3,0,0,1-1.187-.58,2.239,2.239,0,0,1-.272-.87,4.025,4.025,0,0,1-1.389,1.1,4.3,4.3,0,0,1-2,.466,2.967,2.967,0,0,1-2.14-.8,2.642,2.642,0,0,1-.831-1.991,2.564,2.564,0,0,1,.817-2.03,3.889,3.889,0,0,1,2.145-.888Zm5.906,2.751a2.3,2.3,0,0,0,.4,1.213,2.485,2.485,0,0,0,2.074.765,3.059,3.059,0,0,0,1.547-.382,1.27,1.27,0,0,0,.668-1.182,1.011,1.011,0,0,0-.536-.923,6.374,6.374,0,0,0-1.354-.448l-1.257-.316a6.131,6.131,0,0,1-1.775-.668,2,2,0,0,1-1.02-1.775,2.713,2.713,0,0,1,.962-2.162,3.839,3.839,0,0,1,2.588-.826,3.593,3.593,0,0,1,3.067,1.248,2.708,2.708,0,0,1,.571,1.705h-1.494a1.83,1.83,0,0,0-.378-.976,2.41,2.41,0,0,0-1.89-.624,2.259,2.259,0,0,0-1.358.343,1.074,1.074,0,0,0-.461.905,1.114,1.114,0,0,0,.606.984,3.644,3.644,0,0,0,1.037.387l1.046.255a8.087,8.087,0,0,1,2.285.8,2.118,2.118,0,0,1,.923,1.907,2.906,2.906,0,0,1-.954,2.171,4.059,4.059,0,0,1-2.9.914,3.9,3.9,0,0,1-2.975-.954,3.606,3.606,0,0,1-.936-2.36Zm8.06-6.416h1.608V78.8h-1.608Zm0-3.542h1.608v1.793h-1.608Zm4.939,9.958a2.3,2.3,0,0,0,.4,1.213,2.485,2.485,0,0,0,2.074.765,3.059,3.059,0,0,0,1.547-.382,1.27,1.27,0,0,0,.668-1.182,1.011,1.011,0,0,0-.536-.923,6.374,6.374,0,0,0-1.354-.448l-1.257-.316a6.131,6.131,0,0,1-1.775-.668,2,2,0,0,1-1.02-1.775,2.713,2.713,0,0,1,.962-2.162,3.839,3.839,0,0,1,2.588-.826,3.593,3.593,0,0,1,3.067,1.248,2.708,2.708,0,0,1,.571,1.705h-1.494a1.83,1.83,0,0,0-.378-.976,2.41,2.41,0,0,0-1.89-.624,2.259,2.259,0,0,0-1.358.343,1.074,1.074,0,0,0-.461.905,1.114,1.114,0,0,0,.606.984,3.644,3.644,0,0,0,1.037.387l1.046.255a8.087,8.087,0,0,1,2.285.8,2.118,2.118,0,0,1,.923,1.907,2.906,2.906,0,0,1-.954,2.171,4.059,4.059,0,0,1-2.9.914,3.9,3.9,0,0,1-2.975-.954,3.606,3.606,0,0,1-.936-2.36Zm8.376-9.088h1.6v2.628h1.5v1.292h-1.5v6.144a.665.665,0,0,0,.334.659,1.42,1.42,0,0,0,.615.1q.114,0,.246,0t.308-.022V78.8a3.532,3.532,0,0,1-.567.114,5.39,5.39,0,0,1-.637.035,1.717,1.717,0,0,1-1.5-.567,2.519,2.519,0,0,1-.4-1.472V70.679h-1.274V69.387h1.274Zm8.6,2.417a4.294,4.294,0,0,1,1.942.47,3.582,3.582,0,0,1,1.433,1.217,4.2,4.2,0,0,1,.633,1.661,10.868,10.868,0,0,1,.141,2.074h-6.9a4.026,4.026,0,0,0,.677,2.3,2.266,2.266,0,0,0,1.96.866,2.534,2.534,0,0,0,1.978-.817,2.755,2.755,0,0,0,.6-1.1h1.556A3.276,3.276,0,0,1,182.782,77,4.111,4.111,0,0,1,182,78.044a3.687,3.687,0,0,1-1.784.949,5.42,5.42,0,0,1-1.292.141,3.964,3.964,0,0,1-2.979-1.279,4.976,4.976,0,0,1-1.222-3.582,5.41,5.41,0,0,1,1.23-3.683A4.059,4.059,0,0,1,179.174,69.176Zm2.522,4.166a4.1,4.1,0,0,0-.448-1.644,2.3,2.3,0,0,0-2.171-1.143,2.406,2.406,0,0,0-1.828.787,2.972,2.972,0,0,0-.782,2Zm3.568-3.955h1.5v1.336a4.215,4.215,0,0,1,1.415-1.187,3.773,3.773,0,0,1,1.661-.36,2.739,2.739,0,0,1,2.707,1.4,4.962,4.962,0,0,1,.387,2.188V78.8h-1.608V72.867a3.212,3.212,0,0,0-.255-1.389,1.545,1.545,0,0,0-1.529-.879,3.114,3.114,0,0,0-.923.114,2.377,2.377,0,0,0-1.143.773,2.329,2.329,0,0,0-.514.962,6.478,6.478,0,0,0-.119,1.419V78.8h-1.582Zm10.327-2.628h1.6v2.628h1.5v1.292h-1.5v6.144a.665.665,0,0,0,.334.659,1.42,1.42,0,0,0,.615.1q.114,0,.246,0t.308-.022V78.8a3.532,3.532,0,0,1-.567.114,5.39,5.39,0,0,1-.637.035,1.717,1.717,0,0,1-1.5-.567,2.519,2.519,0,0,1-.4-1.472V70.679h-1.274V69.387h1.274Zm8.6,2.417a4.294,4.294,0,0,1,1.942.47,3.582,3.582,0,0,1,1.433,1.217,4.2,4.2,0,0,1,.633,1.661,10.868,10.868,0,0,1,.141,2.074h-6.9a4.026,4.026,0,0,0,.677,2.3,2.266,2.266,0,0,0,1.96.866,2.534,2.534,0,0,0,1.978-.817,2.755,2.755,0,0,0,.6-1.1h1.556A3.276,3.276,0,0,1,207.8,77a4.111,4.111,0,0,1-.778,1.042,3.687,3.687,0,0,1-1.784.949,5.42,5.42,0,0,1-1.292.141,3.964,3.964,0,0,1-2.979-1.279,4.976,4.976,0,0,1-1.222-3.582,5.41,5.41,0,0,1,1.23-3.683A4.059,4.059,0,0,1,204.2,69.176Zm2.522,4.166a4.1,4.1,0,0,0-.448-1.644,2.3,2.3,0,0,0-2.171-1.143,2.406,2.406,0,0,0-1.828.787,2.972,2.972,0,0,0-.782,2ZM1.477,88.359h1.6v2.628h1.5v1.292h-1.5v6.144a.665.665,0,0,0,.334.659,1.42,1.42,0,0,0,.615.1q.114,0,.246,0t.308-.022V100.4a3.532,3.532,0,0,1-.567.114,5.39,5.39,0,0,1-.637.035,1.717,1.717,0,0,1-1.5-.567,2.519,2.519,0,0,1-.4-1.472V92.279H.2V90.987H1.477Zm8.6,2.417a4.294,4.294,0,0,1,1.942.47,3.582,3.582,0,0,1,1.433,1.217,4.2,4.2,0,0,1,.633,1.661,10.868,10.868,0,0,1,.141,2.074H7.33a4.026,4.026,0,0,0,.677,2.3,2.266,2.266,0,0,0,1.96.866,2.534,2.534,0,0,0,1.978-.817,2.755,2.755,0,0,0,.6-1.1H14.1a3.276,3.276,0,0,1-.409,1.156,4.111,4.111,0,0,1-.778,1.042,3.687,3.687,0,0,1-1.784.949,5.42,5.42,0,0,1-1.292.141,3.964,3.964,0,0,1-2.979-1.279,4.976,4.976,0,0,1-1.222-3.582,5.41,5.41,0,0,1,1.23-3.683A4.059,4.059,0,0,1,10.081,90.776ZM12.6,94.942a4.1,4.1,0,0,0-.448-1.644,2.3,2.3,0,0,0-2.171-1.143,2.406,2.406,0,0,0-1.828.787,2.972,2.972,0,0,0-.782,2ZM11.909,87.2l-2.347,2.54H8.35L9.958,87.2ZM19.8,90.714a4.1,4.1,0,0,1,2.588.773,3.705,3.705,0,0,1,1.2,2.663H22.052a2.839,2.839,0,0,0-.642-1.446,2.027,2.027,0,0,0-1.608-.576,2.222,2.222,0,0,0-2.162,1.477,5.865,5.865,0,0,0-.422,2.364,4.449,4.449,0,0,0,.6,2.382,2.05,2.05,0,0,0,1.881.967,2.057,2.057,0,0,0,1.56-.6,3.311,3.311,0,0,0,.8-1.648H23.59a4.129,4.129,0,0,1-1.318,2.738,4.113,4.113,0,0,1-2.7.866,3.6,3.6,0,0,1-2.944-1.349,5.164,5.164,0,0,1-1.1-3.371,5.678,5.678,0,0,1,1.2-3.858A3.891,3.891,0,0,1,19.8,90.714Zm5.37.272h1.5v1.336a4.215,4.215,0,0,1,1.415-1.187,3.773,3.773,0,0,1,1.661-.36,2.739,2.739,0,0,1,2.707,1.4,4.962,4.962,0,0,1,.387,2.188V100.4H31.236V94.467a3.212,3.212,0,0,0-.255-1.389,1.545,1.545,0,0,0-1.529-.879,3.114,3.114,0,0,0-.923.114,2.377,2.377,0,0,0-1.143.773,2.329,2.329,0,0,0-.514.962,6.478,6.478,0,0,0-.119,1.419V100.4H25.172Zm10.011.044h1.608V100.4H35.183Zm0-3.542h1.608v1.793H35.183Zm7.629,3.226a4.1,4.1,0,0,1,2.588.773,3.705,3.705,0,0,1,1.2,2.663H45.062a2.839,2.839,0,0,0-.642-1.446,2.027,2.027,0,0,0-1.608-.576,2.222,2.222,0,0,0-2.162,1.477,5.865,5.865,0,0,0-.422,2.364,4.449,4.449,0,0,0,.6,2.382,2.317,2.317,0,0,0,3.441.365,3.311,3.311,0,0,0,.8-1.648H46.6a3.72,3.72,0,0,1-4.017,3.6,3.6,3.6,0,0,1-2.944-1.349,5.164,5.164,0,0,1-1.1-3.371,5.678,5.678,0,0,1,1.2-3.858A3.891,3.891,0,0,1,42.812,90.714Zm9.105,8.666a2.182,2.182,0,0,0,2.158-1.191,5.933,5.933,0,0,0,.584-2.65,4.718,4.718,0,0,0-.422-2.145,2.373,2.373,0,0,0-2.3-1.3A2.271,2.271,0,0,0,49.825,93.2a5.133,5.133,0,0,0-.659,2.672,4.465,4.465,0,0,0,.659,2.5A2.322,2.322,0,0,0,51.917,99.38Zm.062-8.666a4.262,4.262,0,0,1,3.076,1.213A4.736,4.736,0,0,1,56.312,95.5,6.122,6.122,0,0,1,55.2,99.257a4.006,4.006,0,0,1-3.437,1.485,3.88,3.88,0,0,1-3.085-1.314A5.19,5.19,0,0,1,47.54,95.9a5.615,5.615,0,0,1,1.2-3.779A4.041,4.041,0,0,1,51.979,90.714Zm6.592,7.77h1.837V100.4H58.57Z" transform="translate(-3582 12376)" fill="#fcfeff"/>
    <path id="Trazado_145190" data-name="Trazado 145190" d="M.938,0a9.981,9.981,0,0,1,.981-4.175q.894-2.124,4.219-4.5a30.938,30.938,0,0,0,3.735-2.959,4.373,4.373,0,0,0,1.3-3.047,3.375,3.375,0,0,0-.747-2.241,2.631,2.631,0,0,0-2.139-.894A2.608,2.608,0,0,0,5.7-16.392a7.047,7.047,0,0,0-.469,2.607H1.172a10.261,10.261,0,0,1,.981-4.38q1.67-3.179,5.933-3.179a7.523,7.523,0,0,1,5.361,1.868,6.458,6.458,0,0,1,1.992,4.944,6.693,6.693,0,0,1-1.406,4.189A14.01,14.01,0,0,1,11-7.632L9.331-6.445Q7.764-5.332,7.185-4.834a4.722,4.722,0,0,0-.974,1.157h9.272V0Z" transform="translate(-3475 12336)" fill="#fff"/>
  </g>
</svg>
