<svg xmlns="http://www.w3.org/2000/svg" xmlns:xlink="http://www.w3.org/1999/xlink" width="1076.647" height="552.004" viewBox="0 0 1076.647 552.004">
  <defs>
    <clipPath id="clip-path">
      <path id="Trazado_117616" data-name="Trazado 117616" d="M569.742,129.437c-3.3.779-7.285.458-11.216.137a44.335,44.335,0,0,0-9.517-.137c-6.134.908-5.95,5.237-10.454,9.379s-3.253,1.085-12.986-1.8-13.884,20.735-13.884,20.735c-25.222,6.141-17.395,40.7-15.512,47.777.222.816.36,1.269.36,1.269,5.413,14.06,26.508,18.026,34.987,18.026s7.573-8.833,12.261-11.9,10.28,1.622,14.246,1.806,9.009-.362,12.438-5.95,3.967-13.524,18.575-20.919,12.262-18.388,13.884-22.371,2.882-2.328,8.654-5.218,4.505-7.389,4.505-7.389c3.967-.908,16.775,3.421,16.775,3.421a.1.1,0,0,1-.009-.048,52.763,52.763,0,0,0-4.864-14.737c-3.607-6.673-31.19-16.95-39.483-17.311-.345-.014-.681-.022-1.013-.022-7.645,0-11.867,3.871-17.747,5.248" transform="translate(-493.544 -124.189)" fill="none"/>
    </clipPath>
    <linearGradient id="linear-gradient" x1="-4.322" y1="3.889" x2="-4.314" y2="3.889" gradientUnits="objectBoundingBox">
      <stop offset="0" stop-color="#618f24"/>
      <stop offset="1" stop-color="#98b523"/>
    </linearGradient>
    <clipPath id="clip-path-2">
      <path id="Trazado_117617" data-name="Trazado 117617" d="M430.724,52.977c-4.64,6.7-2.31,7.976-7.216,7.648s-6.961-3.127-11.24-.616-8.417,8.24-12.97,10.417-9.353,1.752-14.352,6.144-17.1,24.666-16.01,30.65a42.338,42.338,0,0,0,4.385,11.689s5.833-9.138,8.76-10.561c0,0,1.482,3.449,6.537,2.361s5.017-2.752,8.033-1.08,7.065,9.729,19.913,7.015,17.162,1.977,22.114,3.753,8.377-.416,10.769-2.52,3.529-7.849,8-8.281c1.726-.169,3.359.616,5.023,1.4,2.647,1.25,5.364,2.5,8.618-.111,5.185-4.159,16.009-16.752,13.05-28.073-.065-.257-.145-.512-.224-.769,0,0-13.065-32.906-34.091-23.064,0,0-9.055-7.949-15.133-7.949a4.535,4.535,0,0,0-3.965,1.947" transform="translate(-368.866 -51.03)" fill="none"/>
    </clipPath>
    <linearGradient id="linear-gradient-2" x1="-3.867" y1="6.2" x2="-3.856" y2="6.2" xlink:href="#linear-gradient"/>
    <clipPath id="clip-path-3">
      <path id="Trazado_117621" data-name="Trazado 117621" d="M444.027,23.581c-1.846,2.767.465,5.078-3.386,2s-12.472-3.24-15.248-1.234a29.613,29.613,0,0,0-4.929,4.625s-22.182-3.854-27.269,19.561c0,0,16.172-4.159,20.027-2.776,0,0-1.077,3.232,3.083,5.544s10.473,3.7,13.861,2.312a34.675,34.675,0,0,1,4.774-1.682,2.543,2.543,0,0,0,1.234,3.994c3.083,1.383,3.7,2.618,6.629,1.7s9.4-2.313,9.4-2.313a2.688,2.688,0,0,0,.309,3.39c1.54,1.689,2.922,2,5.542,1.689s23.268-2.767,23.268-2.767-3.853-24.808-10.789-23.574-5.7,3.695-7.391,2.155-.77-6.463-5.542-9.7c-3.327-2.249-7.693-4.128-10.667-4.128a3.275,3.275,0,0,0-2.9,1.2" transform="translate(-393.194 -22.378)" fill="none"/>
    </clipPath>
    <linearGradient id="linear-gradient-3" x1="-5.785" y1="13.645" x2="-5.77" y2="13.645" xlink:href="#linear-gradient"/>
    <clipPath id="clip-path-4">
      <path id="Trazado_117625" data-name="Trazado 117625" d="M503.814,0c-.814.026-1.788,1.824-2.4,2.964-2.019,3.726-2.029,6.371-2.57,7.994-1.888,5.667-12.179,4.721-17.408,8.32-4.714,3.244-8.226,12.19-2.671,37.382a72.843,72.843,0,0,0,18.23-21.824,72.856,72.856,0,0,0,8.36-26.18c.01-6.817-.7-8.517-1.424-8.648a.432.432,0,0,0-.08-.008Z" transform="translate(-475.92)" fill="none"/>
    </clipPath>
    <linearGradient id="linear-gradient-4" x1="-19.104" y1="9.749" x2="-19.064" y2="9.749" xlink:href="#linear-gradient"/>
    <clipPath id="clip-path-5">
      <path id="Trazado_117627" data-name="Trazado 117627" d="M494.534,219.87c-4.077.312-13.944,2.952-16.369,9.728-.057.153-.1.311-.153.468,0,0-4.784,21.244,9.309,23.543,0,0,2.938,11.461,7.616,9.673s3.941-3.248,6.318-1.379,2.45,4,5.5,4.214a22.068,22.068,0,0,0,4.7-.432,18.76,18.76,0,0,1,5.5-.358c3.07.478,5.357,2.357,9.42,1.86s17.241-6.593,18.767-10.009a26.038,26.038,0,0,0,1.829-7.457s-6.132,2.616-8.113,2.323c0,0,.445-2.265-2.5-3.467s-3.5-.344-4.456-2.239-.211-7.393-7.677-10.473-8.029-6.958-9.928-9.58-4.4-2.7-6.342-2.456-4.514,2.76-6.936,1.429c-2.339-1.284-2.319-5.405-6.057-5.405-.135,0-.276.007-.421.017" transform="translate(-477.23 -219.853)" fill="none"/>
    </clipPath>
    <linearGradient id="linear-gradient-5" x1="-7.728" y1="3.271" x2="-7.712" y2="3.271" xlink:href="#linear-gradient"/>
    <clipPath id="clip-path-6">
      <path id="Trazado_117628" data-name="Trazado 117628" d="M478.165,227.439c-.057.153-.1.311-.153.468,0,0-4.784,21.244,9.309,23.543,0,0,2.938,11.461,7.616,9.673s3.941-3.248,6.318-1.379,2.45,4,5.5,4.214a22.068,22.068,0,0,0,4.7-.432,18.76,18.76,0,0,1,5.5-.358c3.07.478,5.357,2.357,9.42,1.86s17.241-6.593,18.767-10.009a26.038,26.038,0,0,0,1.829-7.457s-8.943,16-30.406,5.326a189.438,189.438,0,0,1-38.118-25.755Z" transform="translate(-477.23 -227.133)" fill="none"/>
    </clipPath>
    <linearGradient id="linear-gradient-6" x1="-8.069" y1="6.049" x2="-8.052" y2="6.049" xlink:href="#linear-gradient"/>
    <clipPath id="clip-path-7">
      <path id="Trazado_117629" data-name="Trazado 117629" d="M600.1,138.509c-23.793,3.866-82.672,40.352-104.528,62.983.222.816.36,1.269.36,1.269,5.413,14.06,26.508,18.026,34.987,18.026s7.573-8.833,12.261-11.9,10.28,1.622,14.246,1.806,9.009-.362,12.438-5.95,3.967-13.524,18.575-20.919,12.262-18.388,13.884-22.371,2.882-2.328,8.654-5.218,4.505-7.389,4.505-7.389c3.967-.908,16.775,3.421,16.775,3.421a.1.1,0,0,1-.009-.048c-.258-.906-4.421-14.418-23.962-14.417a51.235,51.235,0,0,0-8.187.7" transform="translate(-495.572 -137.805)" fill="none"/>
    </clipPath>
    <linearGradient id="linear-gradient-7" x1="-6.351" y1="2.742" x2="-6.339" y2="2.742" xlink:href="#linear-gradient"/>
    <clipPath id="clip-path-8">
      <path id="Trazado_117631" data-name="Trazado 117631" d="M586.63,45.537c-8.352,1.014-9.366-2.784-13.669-3.921-2.341-.618-5.133-.078-8.5.463a42.765,42.765,0,0,1-9.728.674c-8.1-.511-8.865-2.282-18.483,0s-17.972,3.539-23.289,6.324-3.792,10.884-13.411,17.215S483.1,100.971,483.1,100.971,550.931,83.445,574.91,63.3c23.232-19.519,25.038-24.778,25.123-25.087a22.131,22.131,0,0,1-13.4,7.324" transform="translate(-483.102 -38.213)" fill="none"/>
    </clipPath>
    <linearGradient id="linear-gradient-8" x1="-10.269" y1="4.516" x2="-10.248" y2="4.516" xlink:href="#linear-gradient"/>
    <clipPath id="clip-path-9">
      <path id="Trazado_117695" data-name="Trazado 117695" d="M444.027,23.581c-1.846,2.767.465,5.078-3.386,2s-12.472-3.24-15.248-1.234a29.613,29.613,0,0,0-4.929,4.625s-22.182-3.854-27.269,19.561c0,0,14.413-12.652,30.9-10.175s57.22,19.266,57.22,19.266-3.853-24.808-10.789-23.574-5.7,3.695-7.391,2.155-.77-6.463-5.542-9.7c-3.327-2.249-7.693-4.128-10.667-4.128a3.275,3.275,0,0,0-2.9,1.2" transform="translate(-393.194 -22.378)" fill="none"/>
    </clipPath>
    <linearGradient id="linear-gradient-9" x1="-7.514" y1="5.835" x2="-7.495" y2="5.835" xlink:href="#linear-gradient"/>
    <clipPath id="clip-path-10">
      <path id="Trazado_117696" data-name="Trazado 117696" d="M430.724,52.977c-4.64,6.7-2.31,7.976-7.216,7.648s-6.961-3.127-11.24-.616-8.417,8.24-12.97,10.417-9.353,1.752-14.352,6.144-17.1,24.666-16.01,30.65a42.338,42.338,0,0,0,4.385,11.689s-2.672-29.682,35.931-35.041,74.8-.394,74.8-.394l.088-.663c-.065-.257-.145-.512-.224-.769,0,0-13.065-32.906-34.091-23.064,0,0-9.055-7.949-15.133-7.949a4.535,4.535,0,0,0-3.965,1.947" transform="translate(-368.866 -51.03)" fill="none"/>
    </clipPath>
    <linearGradient id="linear-gradient-10" x1="-3.478" y1="4.081" x2="-3.468" y2="4.081" xlink:href="#linear-gradient"/>
    <clipPath id="clip-path-11">
      <path id="Trazado_117697" data-name="Trazado 117697" d="M431.637,141.978c-3.193,4.609-1.591,5.489-4.966,5.264s-4.79-2.152-7.736-.423-5.793,5.671-8.926,7.167-6.436,1.206-9.875,4.229-11.767,16.975-11.018,21.093a29.088,29.088,0,0,0,3.017,8.045s4.014-6.288,6.029-7.268c0,0,1.019,2.373,4.5,1.624s3.453-1.894,5.528-.744,4.861,6.7,13.7,4.829,11.81,1.36,15.218,2.583,5.766-.287,7.411-1.735,2.428-5.4,5.506-5.7a6.786,6.786,0,0,1,3.455.965c1.823.86,3.692,1.719,5.933-.078,3.568-2.864,11.015-11.528,8.978-19.319-.043-.176-.1-.354-.153-.529,0,0-8.99-22.646-23.46-15.873,0,0-6.232-5.47-10.415-5.47a3.12,3.12,0,0,0-2.728,1.339" transform="translate(-389.068 -140.639)" fill="none"/>
    </clipPath>
    <linearGradient id="linear-gradient-11" x1="-5.939" y1="6.849" x2="-5.924" y2="6.849" xlink:href="#linear-gradient"/>
    <clipPath id="clip-path-12">
      <path id="Trazado_117698" data-name="Trazado 117698" d="M431.637,141.978c-3.193,4.609-1.591,5.489-4.966,5.264s-4.79-2.152-7.736-.423-5.793,5.671-8.926,7.167-6.436,1.206-9.875,4.229-11.767,16.975-11.018,21.093a29.088,29.088,0,0,0,3.017,8.045s-1.838-20.427,24.727-24.116a212.013,212.013,0,0,1,51.473-.27l.06-.456c-.043-.176-.1-.354-.153-.529,0,0-8.99-22.646-23.46-15.873,0,0-6.232-5.47-10.415-5.47a3.12,3.12,0,0,0-2.728,1.339" transform="translate(-389.068 -140.639)" fill="none"/>
    </clipPath>
    <linearGradient id="linear-gradient-12" x1="-5.371" y1="4.489" x2="-5.357" y2="4.489" xlink:href="#linear-gradient"/>
    <clipPath id="clip-path-13">
      <path id="Trazado_117699" data-name="Trazado 117699" d="M465.948,286.318a71.145,71.145,0,0,0-1.258,7.993c-.179,1.8-.281,3.523-.324,5.147a15.508,15.508,0,0,0,.559,5.321c.547,1.886,1.915,5.014,2.345,6.393.194.62.375,1.229.532,1.825a1.618,1.618,0,0,1,.052.222c.193.686.363,1.361.5,2.008.157.727.285,1.44.389,2.1.118.841.2,1.632.235,2.384a12.139,12.139,0,0,1,0,1.374c-.052,1-.091,2.01-.143,3.034-.052,1.284-.117,2.58-.169,3.877,0,0,.013,0,0,.012-.079,2.064-.156,4.124-.209,6.173v.013c0,.154,0,.312-.012.467,0,.3-.012.6-.012.895-.014.364-.027.727-.027,1.088,0,.288-.013.572-.013.844v.013c-.013,1.284-.027,2.528-.027,3.761.014,2.449.067,4.783.183,6.974.038.673.078,1.348.13,2.048v.012c.064.779.13,1.57.207,2.374.454,4.732,1.206,9.905,1.984,14.91.065.467.143.933.207,1.387.246,1.621.506,3.215.739,4.759.051.375.117.751.167,1.114.144.972.3,1.816.455,2.515,1.258,5.471,2.826,3.215,2.669-2.515-.089-3.4-.608-8.986-.908-14.728-.051-.908-.089-1.815-.128-2.723v-.169c-.026-.791-.052-1.58-.065-2.373-.039-1.582-.039-3.126,0-4.59.026-.337.039-.674.052-1.011a29.443,29.443,0,0,1,.791-6.016c.078-.3.169-.583.258-.857.131-.388.285-.815.442-1.282.246-.687.519-1.438.8-2.282V338.8q.331-.955.7-2.022c.195-.57.4-1.167.609-1.776s.415-1.219.634-1.841c.027-.078.053-.154.079-.235.194-.582.4-1.167.6-1.762.441-1.285.882-2.592,1.334-3.928l.74-2.177c.246-.727.491-1.44.726-2.166.22-.647.441-1.284.65-1.919s.425-1.284.633-1.906c.2-.57.376-1.14.56-1.684.051-.156.1-.312.154-.468.182-.557.362-1.1.532-1.622.506-1.516.946-2.9,1.322-4.083.156-.493.312-.958.428-1.374q.272-.875.467-1.517a16.174,16.174,0,0,1,.765-2,13.206,13.206,0,0,0,.819-4.6,45.076,45.076,0,0,0-2.389-15.407Z" transform="translate(-464.335 -286.318)" fill="none"/>
    </clipPath>
    <linearGradient id="linear-gradient-13" x1="-23.617" y1="1.872" x2="-23.566" y2="1.872" gradientUnits="objectBoundingBox">
      <stop offset="0" stop-color="#59791d"/>
      <stop offset="0.129" stop-color="#81964b"/>
      <stop offset="0.266" stop-color="#a5b174"/>
      <stop offset="0.407" stop-color="#c3c797"/>
      <stop offset="0.549" stop-color="#dbd9b1"/>
      <stop offset="0.693" stop-color="#ebe5c4"/>
      <stop offset="0.842" stop-color="#f5ecd0"/>
      <stop offset="1" stop-color="#f9efd4"/>
    </linearGradient>
    <clipPath id="clip-path-14">
      <path id="Trazado_117700" data-name="Trazado 117700" d="M470.853,348.555v0s-.032.077-.1.222l-.11.2c-.056.088-.114.191-.2.3a15.922,15.922,0,0,1-1.574,1.823c-.355.371-.749.771-1.158,1.215-.123.136-.2.227-.3.358s-.206.272-.289.407a8.1,8.1,0,0,0-.482.854,9.937,9.937,0,0,0-.993,3.9,9.1,9.1,0,0,0,.158,2.024c.117.646.231,1.285.342,1.9.224,1.228.416,2.377.5,3.37.051.494.066.949.067,1.354,0,.2-.014.39-.021.565s-.036.333-.053.477a3.97,3.97,0,0,1-.157.657c-.052.148-.078.228-.078.228l.089-.224a4.042,4.042,0,0,0,.194-.653c.023-.144.055-.3.079-.478s.04-.364.051-.568a13.591,13.591,0,0,0,.006-1.368c-.038-1-.167-2.167-.325-3.407l-.24-1.908a8.5,8.5,0,0,1-.048-1.937,9.445,9.445,0,0,1,1.125-3.618,7.394,7.394,0,0,1,.478-.753c.084-.122.172-.22.257-.325s.21-.233.29-.312c.416-.407.83-.788,1.21-1.147a17.209,17.209,0,0,0,1.772-1.863c.1-.124.183-.249.255-.353s.136-.223.184-.3l.109-.216.012-.023a.519.519,0,0,0-.314-.691.6.6,0,0,0-.215-.04.577.577,0,0,0-.53.331" transform="translate(-465.641 -348.224)" fill="none"/>
    </clipPath>
    <linearGradient id="linear-gradient-14" x1="-89.649" y1="4.974" x2="-89.456" y2="4.974" xlink:href="#linear-gradient-13"/>
    <clipPath id="clip-path-15">
      <path id="Trazado_117701" data-name="Trazado 117701" d="M471.8,352.252c-.021.07-.067.236-.134.5-.1.351-.237.834-.446,1.466a19.71,19.71,0,0,1-.834,2.195c-.379.827-.88,1.784-1.392,2.846s-1.06,2.213-1.562,3.506a15.846,15.846,0,0,0-1.061,4.225,12.237,12.237,0,0,0,.473,4.627,25.776,25.776,0,0,0,1.866,4.347c.539,1.08,1.1,2.161,1.658,3.223.227.4.446.817.672,1.212.683,1.256,1.374,2.485,2.065,3.663.38.631.748,1.256,1.109,1.863.086.148.2.315.266.437.075.159.161.309.237.467.14.307.245.6.36.906a17.415,17.415,0,0,1,.661,3.625c.2,2.292.144,4.216.144,5.561v.474c0,1.053.047,1.641.047,1.641s-.019-.589.018-1.641c.01-.149.019-.309.029-.474.057-1.344.2-3.268.1-5.587a17.535,17.535,0,0,0-.523-3.725,10.568,10.568,0,0,0-.34-1c-.076-.148-.141-.307-.218-.464-.087-.185-.171-.318-.255-.474q-.5-.935-1.023-1.906c-1-1.871-2-3.865-2.957-5.894-.341-.738-.681-1.474-1.022-2.221-.01-.026-.029-.062-.039-.088a25.5,25.5,0,0,1-1.6-4.242,10.916,10.916,0,0,1-.246-4.189A14.555,14.555,0,0,1,469,363.317c.52-1.185,1.107-2.3,1.657-3.328s1.089-1.941,1.535-2.829a22.762,22.762,0,0,0,1.015-2.344c.244-.65.424-1.186.529-1.529s.18-.526.18-.526a.091.091,0,0,1,.009-.044.863.863,0,0,0,.01-.465Z" transform="translate(-466.317 -352.252)" fill="none"/>
    </clipPath>
    <linearGradient id="linear-gradient-15" x1="-56.533" y1="2.04" x2="-56.412" y2="2.04" xlink:href="#linear-gradient-13"/>
    <clipPath id="clip-path-16">
      <path id="Trazado_117702" data-name="Trazado 117702" d="M476.054,320l0,0s-.1.131-.281.377c-.079.091-.179.2-.3.334-.143.143-.3.31-.5.49a32.006,32.006,0,0,1-3.751,2.809c-.827.56-1.741,1.158-2.7,1.829-.29.207-.472.349-.727.555s-.506.43-.72.652a15.213,15.213,0,0,0-1.278,1.411,19.6,19.6,0,0,0-3.583,6.913,17.282,17.282,0,0,0-.6,3.841c-.069,1.255-.136,2.489-.2,3.685-.126,2.383-.276,4.6-.55,6.489-.124.944-.3,1.8-.474,2.558-.089.376-.2.723-.288,1.048-.105.319-.218.609-.311.873a7.594,7.594,0,0,1-.585,1.167l-.248.4s.092-.134.268-.384a7.67,7.67,0,0,0,.651-1.147c.109-.262.237-.547.36-.865.106-.322.237-.668.347-1.042.218-.753.44-1.61.617-2.555.376-1.888.647-4.111.9-6.49.13-1.186.262-2.411.4-3.657a16.413,16.413,0,0,1,.769-3.638,18.621,18.621,0,0,1,3.707-6.335,14.042,14.042,0,0,1,1.228-1.225c.211-.2.419-.349.621-.513s.5-.357.683-.472c.958-.6,1.9-1.156,2.767-1.683a33.946,33.946,0,0,0,4.14-2.81c.242-.193.45-.4.634-.561.187-.184.351-.363.477-.5l.3-.364.032-.041a.966.966,0,0,0-.28-1.408,1.14,1.14,0,0,0-.62-.18,1.116,1.116,0,0,0-.9.438" transform="translate(-458.953 -319.561)" fill="none"/>
    </clipPath>
    <linearGradient id="linear-gradient-16" x1="-30.027" y1="3.821" x2="-29.962" y2="3.821" xlink:href="#linear-gradient-13"/>
    <clipPath id="clip-path-17">
      <path id="Trazado_117703" data-name="Trazado 117703" d="M469.679,324.915s-.07.189-.2.545-.323.9-.535,1.593-.438,1.561-.651,2.515-.458,2.016-.745,3.178-.607,2.4-.987,3.734c-.377,1.3-.822,2.671-1.364,4.055a41.018,41.018,0,0,1-1.927,4.184c-.734,1.4-1.549,2.8-2.343,4.225a23.018,23.018,0,0,0-1.111,2.211,20.453,20.453,0,0,0-.813,2.3,22.316,22.316,0,0,0-.825,4.618,23.364,23.364,0,0,0,.065,4.359c.066.692.195,1.355.29,1.993s.179,1.251.252,1.846c.276,2.378.394,4.373.465,5.767.036.7.054,1.246.064,1.619s0,.576,0,.576.016-.2.021-.576.012-.923.008-1.621c-.014-1.4-.047-3.4-.222-5.793-.045-.6-.1-1.224-.172-1.87s-.169-1.3-.2-1.98a22.79,22.79,0,0,1,.118-4.263,21.771,21.771,0,0,1,.988-4.446,19.7,19.7,0,0,1,.873-2.178,22.09,22.09,0,0,1,1.16-2.082c.847-1.383,1.727-2.762,2.536-4.162a42.9,42.9,0,0,0,2.163-4.232c.622-1.408,1.141-2.8,1.588-4.132.434-1.308.815-2.586,1.159-3.74s.637-2.238.891-3.18.487-1.723.718-2.361.429-1.137.569-1.484.222-.535.222-.535a.37.37,0,0,0,.014-.039,1,1,0,0,0-.686-1.284,1.17,1.17,0,0,0-.35-.053,1.092,1.092,0,0,0-1.036.69" transform="translate(-458.109 -324.225)" fill="none"/>
    </clipPath>
    <linearGradient id="linear-gradient-17" x1="-40.467" y1="2.63" x2="-40.379" y2="2.63" xlink:href="#linear-gradient-13"/>
    <clipPath id="clip-path-18">
      <path id="Trazado_117704" data-name="Trazado 117704" d="M474.315,305.146s-.109.17-.31.487-.5.8-.863,1.425-.784,1.387-1.212,2.3a20.5,20.5,0,0,0-1.2,3.157,14.681,14.681,0,0,0-.416,1.911c-.022.159-.042.318-.062.477-.014.175-.03.353-.047.53-.022.357-.034.705-.025,1.061.025,1.43.242,2.811.242,4.237a24.8,24.8,0,0,1-.4,4.412,34.818,34.818,0,0,1-1.041,4.517c-.459,1.482-1.076,2.938-1.631,4.408-.274.74-.544,1.453-.769,2.214l-.154.55-.119.578c-.089.384-.113.756-.172,1.13a24.852,24.852,0,0,0-.025,4.287c.091,1.354.283,2.631.4,3.79l.013.21a.413.413,0,0,1-.016.147,3.445,3.445,0,0,1-.228.344q-.257.346-.513.67l-.98,1.221c-.626.762-1.172,1.424-1.622,1.971l-1.427,1.707s.546-.6,1.5-1.652l1.707-1.911,1.036-1.188c.179-.21.362-.428.546-.656a4.049,4.049,0,0,0,.27-.375.639.639,0,0,0,.058-.276l0-.229c-.073-1.191-.206-2.449-.24-3.795a24.2,24.2,0,0,1,.207-4.189c.071-.353.112-.724.209-1.067l.131-.525.176-.541c.237-.692.544-1.42.844-2.13.607-1.425,1.3-2.873,1.84-4.394a35.788,35.788,0,0,0,1.276-4.6,26.236,26.236,0,0,0,.621-4.608c.064-1.519-.095-2.977-.058-4.247.006-.316.032-.635.064-.933.019-.148.038-.294.056-.441s.056-.318.083-.473a13.332,13.332,0,0,1,.442-1.674,19.163,19.163,0,0,1,1.233-2.856c.434-.828.863-1.536,1.229-2.111s.675-1.024.884-1.328l.328-.471.025-.038a.975.975,0,0,0-.386-1.387,1.15,1.15,0,0,0-.555-.141,1.114,1.114,0,0,0-.943.5" transform="translate(-461.734 -304.647)" fill="none"/>
    </clipPath>
    <linearGradient id="linear-gradient-18" x1="-38.519" y1="3.25" x2="-38.436" y2="3.25" xlink:href="#linear-gradient-13"/>
    <clipPath id="clip-path-19">
      <path id="Trazado_117705" data-name="Trazado 117705" d="M470.031,315.329c-.185.32-.427.766-.775,1.343a20.4,20.4,0,0,1-1.324,1.978c-.561.733-1.273,1.566-2.019,2.5s-1.549,1.95-2.338,3.11a16.482,16.482,0,0,0-2.015,3.915,12.3,12.3,0,0,0-.608,4.614,25.069,25.069,0,0,0,.817,4.619c.276,1.163.573,2.328.873,3.477.128.441.246.887.377,1.317.373,1.363.765,2.7,1.167,3.989.224.691.442,1.374.652,2.038.049.163.122.349.158.482.038.17.086.331.123.5.067.328.1.631.141.956a17.211,17.211,0,0,1-.189,3.674c-.337,2.279-.839,4.146-1.15,5.458l-.109.463c-.245,1.029-.334,1.614-.334,1.614s.118-.578.4-1.6c.044-.143.089-.3.139-.458.366-1.3.952-3.152,1.394-5.435a17.425,17.425,0,0,0,.354-3.74,10.41,10.41,0,0,0-.1-1.046c-.04-.161-.067-.328-.106-.5-.04-.2-.092-.342-.139-.515-.18-.674-.367-1.359-.559-2.065-.538-2.024-1.058-4.171-1.522-6.342-.163-.79-.325-1.578-.485-2.374,0-.027-.013-.066-.018-.095a24.983,24.983,0,0,1-.581-4.46,10.954,10.954,0,0,1,.73-4.141,15.026,15.026,0,0,1,2-3.5c.783-1.054,1.615-2.028,2.389-2.922s1.514-1.679,2.154-2.457a22.832,22.832,0,0,0,1.532-2.087c.392-.587.691-1.073.874-1.387s.3-.48.3-.48a.126.126,0,0,1,.018-.04.877.877,0,0,0,.118-.454l-2.091-.424c-.034.064-.119.216-.244.462" transform="translate(-460.931 -314.867)" fill="none"/>
    </clipPath>
    <linearGradient id="linear-gradient-19" x1="-48.778" y1="3.089" x2="-48.672" y2="3.089" xlink:href="#linear-gradient-13"/>
    <clipPath id="clip-path-20">
      <path id="Trazado_117706" data-name="Trazado 117706" d="M473.087,325.958a1.046,1.046,0,0,0-1.039,1.063v.008s0,.053.008.159c.005.052.008.121.013.2.017.13.043.281.08.45a3.918,3.918,0,0,0,.4.9,1.325,1.325,0,0,1,.2.587,7.588,7.588,0,0,1-.412,2.361,33.073,33.073,0,0,1-1.168,3.27c-.122.31-.252.612-.394.893s-.27.59-.441.888a18.981,18.981,0,0,1-1.1,1.815c-.406.611-.875,1.216-1.36,1.867a13.541,13.541,0,0,0-1.385,2.153,9.4,9.4,0,0,0-.8,2.544,16.813,16.813,0,0,0-.145,2.621c.022,1.711.139,3.463.279,5.185s.3,3.445.393,5.133a21.223,21.223,0,0,1-.163,4.9,5.711,5.711,0,0,1-.832,2.116,8.966,8.966,0,0,1-1.7,1.562,3.191,3.191,0,0,0-1.011,2.055,12.41,12.41,0,0,0-.03,2.05c.179,5.181.3,8.635.3,8.635s.017-3.455.042-8.641a12.233,12.233,0,0,1,.105-1.986,2.8,2.8,0,0,1,.945-1.772,9.263,9.263,0,0,0,1.842-1.588,6.3,6.3,0,0,0,1.019-2.3,21.923,21.923,0,0,0,.372-5.054c-.025-1.713-.119-3.443-.189-5.165s-.119-3.432-.074-5.124a15.625,15.625,0,0,1,.227-2.415,8.16,8.16,0,0,1,.769-2.156,41.756,41.756,0,0,1,2.8-3.765,20.48,20.48,0,0,0,1.259-1.916c.2-.311.357-.647.526-.965s.323-.633.454-.928a34.687,34.687,0,0,0,1.361-3.4,8.985,8.985,0,0,0,.6-2.991,3.185,3.185,0,0,0-.376-1.342,2.037,2.037,0,0,1-.207-.481.169.169,0,0,0-.016-.079c0-.075,0-.136,0-.187,0-.105,0-.159,0-.159v-.036a1.063,1.063,0,0,0-1.09-.965h-.056" transform="translate(-462.455 -325.957)" fill="none"/>
    </clipPath>
    <linearGradient id="linear-gradient-20" x1="-45.106" y1="2.422" x2="-45.009" y2="2.422" xlink:href="#linear-gradient-13"/>
    <clipPath id="clip-path-21">
      <path id="Trazado_117707" data-name="Trazado 117707" d="M491,318.206a.247.247,0,0,0-.061.362h0l.026.032.032.04c.023.026.052.056.086.087a1.055,1.055,0,0,0,.22.139.375.375,0,0,1,.131.1,1.948,1.948,0,0,1,.267.556,8.316,8.316,0,0,1,.246.848c.019.083.039.163.049.241s.031.162.042.248a4.938,4.938,0,0,1,.04.53c.005.181,0,.373-.009.574a3.372,3.372,0,0,0,.03.638,2.45,2.45,0,0,0,.213.646,4.582,4.582,0,0,0,.366.578c.263.363.552.721.843,1.068s.585.7.857,1.045a5.671,5.671,0,0,1,.707,1.067,1.43,1.43,0,0,1,.141.557,2.02,2.02,0,0,1-.127.554.8.8,0,0,0,.095.57,3.757,3.757,0,0,0,.3.441c.821,1.08,1.368,1.8,1.368,1.8l-1.3-1.849a3.275,3.275,0,0,1-.276-.437.672.672,0,0,1-.066-.5,2.171,2.171,0,0,0,.153-.578,1.59,1.59,0,0,0-.13-.624,6,6,0,0,0-.685-1.127c-.263-.362-.546-.717-.821-1.075s-.543-.717-.788-1.084a4.345,4.345,0,0,1-.318-.543,2.106,2.106,0,0,1-.159-.56,9.536,9.536,0,0,1,.029-1.165,4.62,4.62,0,0,0-.022-.573c0-.092-.021-.183-.032-.274s-.027-.176-.043-.257a9.265,9.265,0,0,0-.223-.9,2.365,2.365,0,0,0-.324-.714.95.95,0,0,0-.284-.239.779.779,0,0,1-.117-.074.026.026,0,0,0-.016-.016.431.431,0,0,0-.029-.04l-.023-.034-.006-.008a.3.3,0,0,0-.389-.056" transform="translate(-490.882 -318.157)" fill="none"/>
    </clipPath>
    <linearGradient id="linear-gradient-21" x1="-102.349" y1="10.873" x2="-102.141" y2="10.873" xlink:href="#linear-gradient-13"/>
    <clipPath id="clip-path-22">
      <path id="Trazado_117708" data-name="Trazado 117708" d="M467.848,360.491a.245.245,0,0,0-.061.362h0l.026.032c.009.013.019.025.034.043s.051.053.084.084a1.1,1.1,0,0,0,.22.14.4.4,0,0,1,.132.1,2.074,2.074,0,0,1,.268.556,8.657,8.657,0,0,1,.244.851,2.435,2.435,0,0,1,.051.241c.014.079.031.159.041.246a4.6,4.6,0,0,1,.038.529c.008.183,0,.373-.006.574a3.192,3.192,0,0,0,.03.64,2.382,2.382,0,0,0,.213.644,4.433,4.433,0,0,0,.364.578c.263.362.554.72.843,1.07s.585.695.858,1.044a5.8,5.8,0,0,1,.705,1.064,1.432,1.432,0,0,1,.143.56,2.122,2.122,0,0,1-.128.554.789.789,0,0,0,.1.568,3.2,3.2,0,0,0,.3.441c.821,1.084,1.368,1.8,1.368,1.8s-.517-.739-1.3-1.848a3.241,3.241,0,0,1-.277-.437.683.683,0,0,1-.066-.5,2.086,2.086,0,0,0,.153-.578,1.629,1.629,0,0,0-.13-.624,5.861,5.861,0,0,0-.685-1.125c-.264-.363-.544-.718-.819-1.077s-.543-.716-.79-1.081a4.444,4.444,0,0,1-.316-.545,2.068,2.068,0,0,1-.161-.56,9.825,9.825,0,0,1,.03-1.166,5.139,5.139,0,0,0-.022-.572c-.005-.092-.022-.185-.034-.275a2.286,2.286,0,0,0-.044-.257,8.754,8.754,0,0,0-.222-.9,2.328,2.328,0,0,0-.323-.713.9.9,0,0,0-.284-.236.506.506,0,0,1-.117-.078l-.016-.014-.029-.039-.025-.035-.006-.007a.283.283,0,0,0-.224-.106.287.287,0,0,0-.163.049" transform="translate(-467.733 -360.442)" fill="none"/>
    </clipPath>
    <linearGradient id="linear-gradient-22" x1="-97.501" y1="6.613" x2="-97.293" y2="6.613" xlink:href="#linear-gradient-13"/>
    <clipPath id="clip-path-23">
      <path id="Trazado_117709" data-name="Trazado 117709" d="M458.011,313.54a.266.266,0,0,0-.261.275s0,.014,0,.04l0,.052a1.025,1.025,0,0,0,.022.115.909.909,0,0,0,.1.227.315.315,0,0,1,.051.149,1.871,1.871,0,0,1-.1.6c-.071.248-.169.537-.289.838-.031.078-.063.156-.1.228s-.067.15-.11.227a4.446,4.446,0,0,1-.275.464c-.1.158-.22.312-.342.481a3.649,3.649,0,0,0-.349.552,2.453,2.453,0,0,0-.2.651,4.43,4.43,0,0,0-.03.668c.01.437.045.883.084,1.321s.086.878.114,1.308a5.484,5.484,0,0,1-.03,1.251,1.46,1.46,0,0,1-.207.541,2.324,2.324,0,0,1-.428.4.817.817,0,0,0-.253.525,2.942,2.942,0,0,0,0,.522c.058,1.321.1,2.2.1,2.2l-.013-2.2a3.183,3.183,0,0,1,.023-.507.7.7,0,0,1,.236-.455,2.347,2.347,0,0,0,.465-.408,1.57,1.57,0,0,0,.254-.59,5.532,5.532,0,0,0,.083-1.289c-.012-.438-.04-.878-.062-1.317s-.039-.875-.032-1.306a4.1,4.1,0,0,1,.052-.616,1.978,1.978,0,0,1,.192-.552,10.3,10.3,0,0,1,.7-.966,5.058,5.058,0,0,0,.316-.491c.049-.082.089-.166.132-.249s.08-.162.114-.237a8.845,8.845,0,0,0,.337-.869,2.309,2.309,0,0,0,.145-.764.786.786,0,0,0-.1-.341.522.522,0,0,1-.052-.123.024.024,0,0,0-.006-.019v-.1a.269.269,0,0,0-.279-.244h-.017" transform="translate(-455.413 -313.54)" fill="none"/>
    </clipPath>
    <linearGradient id="linear-gradient-23" x1="-179.618" y1="10.655" x2="-179.224" y2="10.655" xlink:href="#linear-gradient-13"/>
    <clipPath id="clip-path-24">
      <path id="Trazado_117710" data-name="Trazado 117710" d="M460.06,320.634a.26.26,0,0,0-.22.3v0l.007.038a.351.351,0,0,1,.012.052c.01.031.023.069.039.11a.923.923,0,0,0,.137.213.359.359,0,0,1,.073.141,1.947,1.947,0,0,1-.01.611,7.986,7.986,0,0,1-.166.865c-.018.082-.039.163-.062.239s-.045.159-.079.24a4.447,4.447,0,0,1-.2.494c-.078.17-.174.337-.27.519a3.226,3.226,0,0,0-.264.59,2.293,2.293,0,0,0-.1.67,4.381,4.381,0,0,0,.066.666c.074.432.174.867.276,1.3s.213.86.3,1.282a5.418,5.418,0,0,1,.154,1.241,1.409,1.409,0,0,1-.127.563,2.172,2.172,0,0,1-.367.453.8.8,0,0,0-.174.554,3.151,3.151,0,0,0,.074.517c.25,1.3.417,2.17.417,2.17s-.134-.874-.332-2.182a3.109,3.109,0,0,1-.052-.506.693.693,0,0,1,.167-.48,2.253,2.253,0,0,0,.4-.463,1.62,1.62,0,0,0,.167-.616,5.616,5.616,0,0,0-.108-1.287c-.073-.432-.166-.866-.252-1.3s-.166-.862-.222-1.289a4.066,4.066,0,0,1-.038-.618,2.077,2.077,0,0,1,.108-.57,10.35,10.35,0,0,1,.559-1.045,5.024,5.024,0,0,0,.241-.528c.038-.086.063-.175.095-.259s.056-.172.078-.25a8.77,8.77,0,0,0,.21-.9,2.246,2.246,0,0,0,.03-.774.832.832,0,0,0-.146-.325.565.565,0,0,1-.073-.115l-.005-.019a.263.263,0,0,1-.009-.047l-.006-.04,0-.009a.281.281,0,0,0-.325-.2" transform="translate(-458.953 -320.629)" fill="none"/>
    </clipPath>
    <linearGradient id="linear-gradient-24" x1="-306.43" y1="9.86" x2="-305.762" y2="9.86" xlink:href="#linear-gradient-13"/>
    <clipPath id="clip-path-25">
      <path id="Trazado_117711" data-name="Trazado 117711" d="M473.754,330.569a.243.243,0,0,0,.017.364v0l.032.026.042.035c.027.021.061.044.1.069a1.157,1.157,0,0,0,.248.1.375.375,0,0,1,.149.074,2.018,2.018,0,0,1,.381.5,8.429,8.429,0,0,1,.424.787c.036.076.073.152.1.227s.065.152.091.233a4.368,4.368,0,0,1,.153.512c.045.178.078.366.115.564a3.409,3.409,0,0,0,.166.621,2.639,2.639,0,0,0,.347.594,4.882,4.882,0,0,0,.482.5c.335.306.7.6,1.054.892s.722.574,1.066.865a6.149,6.149,0,0,1,.92.915,1.468,1.468,0,0,1,.258.522,2.069,2.069,0,0,1-.005.565.8.8,0,0,0,.215.541,3.2,3.2,0,0,0,.392.375l1.724,1.516-1.663-1.571a3.492,3.492,0,0,1-.367-.379.7.7,0,0,1-.172-.478,2.059,2.059,0,0,0,.027-.594,1.623,1.623,0,0,0-.262-.586,6.22,6.22,0,0,0-.911-.979c-.336-.3-.688-.6-1.035-.9s-.686-.6-1.006-.914a4.766,4.766,0,0,1-.425-.476,2.143,2.143,0,0,1-.279-.519,10.236,10.236,0,0,1-.223-1.149,4.44,4.44,0,0,0-.143-.557c-.023-.089-.06-.175-.091-.261s-.063-.169-.1-.245a9.309,9.309,0,0,0-.412-.841,2.382,2.382,0,0,0-.471-.641.926.926,0,0,0-.328-.18.723.723,0,0,1-.13-.053l-.018-.012a.34.34,0,0,1-.038-.034l-.031-.029-.008-.007a.293.293,0,0,0-.393.017" transform="translate(-473.68 -330.485)" fill="none"/>
    </clipPath>
    <linearGradient id="linear-gradient-25" x1="-70.089" y1="10.678" x2="-69.941" y2="10.678" xlink:href="#linear-gradient-13"/>
    <clipPath id="clip-path-26">
      <path id="Trazado_117712" data-name="Trazado 117712" d="M450.829,311.887a4.144,4.144,0,0,0,.546.135.974.974,0,0,0,.613-.088,2.376,2.376,0,0,1,.532-.279,1.825,1.825,0,0,1,.617-.044,6.849,6.849,0,0,1,1.308.3c.442.139.887.293,1.333.445s.9.3,1.354.421a5.045,5.045,0,0,0,.705.148,2.846,2.846,0,0,0,.727-.006,3.911,3.911,0,0,0,.666-.166c.206-.065.4-.13.589-.18s.376-.092.556-.124c.092-.019.179-.026.266-.039s.174-.021.263-.029c.344-.031.67-.04.948-.04a2.36,2.36,0,0,1,.653.07.4.4,0,0,1,.141.086,1.069,1.069,0,0,0,.21.153c.041.021.08.038.113.051l.053.016.04.013h0a.282.282,0,0,0,.351-.163.255.255,0,0,0-.175-.327l-.01,0a.31.31,0,0,0-.041-.012c-.013,0-.03-.009-.049-.013a.047.047,0,0,0-.019-.01.552.552,0,0,1-.113-.08.965.965,0,0,0-.329-.178,2.807,2.807,0,0,0-.834-.071c-.3.01-.63.03-.993.075-.087.009-.179.021-.277.039s-.2.03-.292.052c-.193.042-.4.092-.594.156a12.129,12.129,0,0,1-1.191.377,2.554,2.554,0,0,1-.624.026,4.6,4.6,0,0,1-.655-.115c-.452-.105-.9-.235-1.352-.371s-.9-.275-1.354-.4a7.064,7.064,0,0,0-1.364-.266,1.97,1.97,0,0,0-.681.074,2.448,2.448,0,0,0-.547.309.833.833,0,0,1-.535.093,3.981,3.981,0,0,1-.534-.113l-2.29-.587Zm-2.265-.664h0" transform="translate(-448.564 -311.222)" fill="none"/>
    </clipPath>
    <linearGradient id="linear-gradient-26" x1="-38.958" y1="75.676" x2="-38.871" y2="75.676" xlink:href="#linear-gradient-13"/>
    <clipPath id="clip-path-27">
      <path id="Trazado_117713" data-name="Trazado 117713" d="M471.975,310.288a.183.183,0,0,0-.032.023s-.178.141-.515.4c-.083.066-.175.14-.28.219s-.2.146-.318.227c-.224.166-.5.351-.827.556-.643.414-1.474.849-2.494,1.461a9.554,9.554,0,0,0-2.968,2.758,18.685,18.685,0,0,0-1.989,3.987,42.387,42.387,0,0,1-1.846,4.3,15.329,15.329,0,0,0-1.072,2.38,17.19,17.19,0,0,0-.563,2.58c-.266,1.723-.458,3.441-.638,5.194a35.593,35.593,0,0,0-.175,5.242c.04.867.124,1.726.235,2.564s.24,1.654.279,2.445a9.8,9.8,0,0,1-.9,4.47c-.3.685-.6,1.359-.9,2s-.567,1.285-.814,1.9a58,58,0,0,0-2.1,6.005c-.421,1.473-.589,2.328-.589,2.328s.2-.851.679-2.3a57.932,57.932,0,0,1,2.33-5.912c.271-.6.569-1.216.882-1.855s.651-1.3.983-1.987a10.385,10.385,0,0,0,1.123-4.665c-.009-.84-.114-1.671-.184-2.5s-.126-1.667-.131-2.514.029-1.7.091-2.548l.115-1.276.167-1.3c.241-1.7.506-3.44.83-5.1a16.041,16.041,0,0,1,.615-2.385,14.185,14.185,0,0,1,1.083-2.16,45,45,0,0,0,2.076-4.365,17.355,17.355,0,0,1,1.95-3.585,7.7,7.7,0,0,1,2.506-2.157c.918-.51,1.845-.957,2.567-1.387q.545-.315.971-.6c.141-.093.272-.182.393-.259l.288-.213.53-.388a.962.962,0,0,0,.18-1.422,1.119,1.119,0,0,0-.857-.386,1.139,1.139,0,0,0-.677.219" transform="translate(-453.466 -310.069)" fill="none"/>
    </clipPath>
    <linearGradient id="linear-gradient-27" x1="-27.681" y1="2.918" x2="-27.62" y2="2.918" xlink:href="#linear-gradient-13"/>
    <clipPath id="clip-path-28">
      <path id="Trazado_117714" data-name="Trazado 117714" d="M474.435,304.348c-.012.01-.029.022-.04.034l-1.46,1.256c-.933.809-2.255,1.968-3.817,3.376s-3.339,3.044-5.422,4.61c-1.035.786-2.15,1.58-3.275,2.362-1.153.793-2.314,1.534-3.528,2.27s-2.441,1.449-3.609,2.251a12.34,12.34,0,0,0-3.053,2.8,11.839,11.839,0,0,0-1.685,3.359c-.354,1.106-.657,2.173-.9,3.156-.5,1.971-.752,3.638-.962,4.794a9.6,9.6,0,0,1-.314,1.329,1.917,1.917,0,0,1-.135.336l-.053.113s.021-.038.058-.11a2.191,2.191,0,0,0,.153-.331,9.928,9.928,0,0,0,.382-1.319c.27-1.151.608-2.8,1.2-4.733q.441-1.455,1.055-3.092a11.448,11.448,0,0,1,1.761-3.126,11.7,11.7,0,0,1,3.007-2.5c1.163-.722,2.426-1.376,3.677-2.064s2.511-1.412,3.688-2.144c1.2-.755,2.348-1.5,3.455-2.257,2.22-1.513,4.132-3.122,5.754-4.448s2.992-2.422,3.952-3.179l1.522-1.19a.961.961,0,0,0,.131-1.427,1.128,1.128,0,0,0-.838-.362,1.145,1.145,0,0,0-.7.239" transform="translate(-446.179 -304.109)" fill="none"/>
    </clipPath>
    <linearGradient id="linear-gradient-28" x1="-18.839" y1="4.833" x2="-18.797" y2="4.833" xlink:href="#linear-gradient-13"/>
    <clipPath id="clip-path-29">
      <path id="Trazado_117715" data-name="Trazado 117715" d="M472.271,305.315l-.034.032s-.128.128-.367.363-.6.6-1.035,1.066c-.876.922-2.051,2.245-3.526,3.773-.363.372-.774.8-1.147,1.163a11.156,11.156,0,0,1-1.289,1.086c-.473.34-1,.643-1.592,1.032a4.378,4.378,0,0,0-1.584,1.682,6.79,6.79,0,0,0-.6,2.1c-.044.349-.078.688-.106,1.045-.018.34-.045.668-.056,1.022-.065,1.391.029,2.793,0,4.128a11.509,11.509,0,0,1-.808,3.886c-.235.635-.5,1.236-.791,1.851a16.014,16.014,0,0,1-.965,1.7c-.357.541-.755,1.042-1.143,1.566a4.422,4.422,0,0,0-.823,1.753,7.475,7.475,0,0,0-.1,1.771c.026.559.044,1.093.053,1.609.036,2.065-.005,3.79-.038,5s-.067,1.9-.067,1.9.06-.688.162-1.892.219-2.926.285-5a18.357,18.357,0,0,1,.2-3.283c.239-1.107,1.264-1.956,2.054-3.069a16.921,16.921,0,0,0,1.1-1.741c.315-.592.634-1.227.9-1.866a12.465,12.465,0,0,0,1.068-4.123c.095-1.42.071-2.782.2-4.1.023-.325.071-.67.105-1,.042-.312.089-.638.144-.948a5.594,5.594,0,0,1,.556-1.671,2.935,2.935,0,0,1,1.154-1.094c.516-.307,1.123-.624,1.683-.987a13.716,13.716,0,0,0,1.526-1.169c.475-.425.857-.788,1.261-1.168,1.579-1.49,2.835-2.778,3.724-3.63.442-.429.8-.756,1.036-.972l.384-.345a.962.962,0,0,0,.021-1.434,1.129,1.129,0,0,0-.783-.307,1.147,1.147,0,0,0-.764.286" transform="translate(-456.25 -305.028)" fill="none"/>
    </clipPath>
    <linearGradient id="linear-gradient-29" x1="-31.759" y1="3.918" x2="-31.69" y2="3.918" xlink:href="#linear-gradient-13"/>
    <clipPath id="clip-path-30">
      <path id="Trazado_117716" data-name="Trazado 117716" d="M477.567,313.42a.966.966,0,0,0,.18,1.424s.187.135.53.388l.289.211.393.259c.283.193.608.394.971.605.722.429,1.646.876,2.566,1.387a7.664,7.664,0,0,1,2.5,2.157,17.235,17.235,0,0,1,1.952,3.585,44.129,44.129,0,0,0,2.076,4.365,14.127,14.127,0,0,1,1.083,2.16,16.621,16.621,0,0,1,.615,2.386c.324,1.658.589,3.394.828,5.1l.167,1.3.115,1.277c.064.849.1,1.7.091,2.546s-.053,1.682-.13,2.513-.178,1.663-.184,2.5a10.375,10.375,0,0,0,1.122,4.665c.333.694.659,1.351.984,1.988s.611,1.254.88,1.858A57.327,57.327,0,0,1,496.93,362c.48,1.455.681,2.305.681,2.305s-.167-.857-.59-2.33a57.585,57.585,0,0,0-2.1-6c-.248-.612-.525-1.246-.813-1.9s-.6-1.319-.9-2a9.839,9.839,0,0,1-.9-4.472c.039-.791.172-1.605.279-2.445s.194-1.7.233-2.563a35.431,35.431,0,0,0-.175-5.243c-.179-1.752-.371-3.472-.637-5.192a17.408,17.408,0,0,0-.564-2.58,15.148,15.148,0,0,0-1.072-2.38,43.133,43.133,0,0,1-1.846-4.3,18.519,18.519,0,0,0-1.989-3.989,9.514,9.514,0,0,0-2.968-2.755c-1.022-.613-1.85-1.048-2.493-1.462-.325-.2-.6-.39-.827-.555-.115-.083-.223-.157-.32-.227l-.279-.219c-.336-.264-.513-.407-.513-.407s-.022-.016-.032-.023a1.154,1.154,0,0,0-.675-.217,1.128,1.128,0,0,0-.86.385" transform="translate(-477.332 -313.035)" fill="none"/>
    </clipPath>
    <linearGradient id="linear-gradient-30" x1="-29.132" y1="2.843" x2="-29.071" y2="2.843" xlink:href="#linear-gradient-13"/>
    <clipPath id="clip-path-31">
      <path id="Trazado_117717" data-name="Trazado 117717" d="M478.188,308.49a.965.965,0,0,0,.131,1.429s.556.433,1.523,1.19,2.326,1.846,3.95,3.179,3.535,2.934,5.755,4.446c1.106.764,2.258,1.505,3.455,2.26,1.176.731,2.441,1.461,3.689,2.143s2.513,1.342,3.677,2.064a11.686,11.686,0,0,1,3.005,2.5,11.44,11.44,0,0,1,1.761,3.127c.412,1.093.761,2.122,1.057,3.092.592,1.932.93,3.583,1.2,4.731a9.842,9.842,0,0,0,.381,1.321,2.228,2.228,0,0,0,.154.331c.039.071.058.109.058.109l-.054-.111a2.262,2.262,0,0,1-.135-.336,9.949,9.949,0,0,1-.312-1.33c-.211-1.156-.465-2.824-.963-4.793-.245-.981-.548-2.051-.9-3.154a11.806,11.806,0,0,0-1.687-3.362,12.279,12.279,0,0,0-3.052-2.8c-1.169-.8-2.406-1.514-3.611-2.251s-2.374-1.478-3.528-2.271c-1.123-.783-2.239-1.577-3.275-2.362-2.082-1.566-3.853-3.2-5.421-4.61s-2.883-2.567-3.817-3.375l-1.461-1.258-.039-.032a1.155,1.155,0,0,0-1.542.122" transform="translate(-477.931 -308.13)" fill="none"/>
    </clipPath>
    <linearGradient id="linear-gradient-31" x1="-20.176" y1="4.674" x2="-20.134" y2="4.674" xlink:href="#linear-gradient-13"/>
    <clipPath id="clip-path-32">
      <path id="Trazado_117718" data-name="Trazado 117718" d="M475.153,313.409a.986.986,0,0,0-.6,1.321l.139.32c.082.2.242.533.452.949.217.4.484.885.835,1.408s.762,1.089,1.22,1.68c.922,1.18,1.971,2.5,2.969,4.007.5.77,1.016,1.565,1.543,2.371a15.777,15.777,0,0,1,1.424,2.423,19.028,19.028,0,0,1,.756,2.7c.219.923.407,1.823.546,2.7.28,1.763.4,3.438.541,4.873a28.719,28.719,0,0,0,.5,3.455c.1.41.18.731.252.946s.1.332.1.332l-.078-.337c-.057-.219-.114-.545-.184-.957a28.375,28.375,0,0,1-.248-3.458c-.039-1.436-.036-3.118-.193-4.928-.078-.908-.206-1.842-.357-2.774a19.806,19.806,0,0,0-.6-2.881,16.2,16.2,0,0,0-1.33-2.686c-.467-.84-.928-1.667-1.374-2.467-.913-1.618-1.917-3.069-2.732-4.272a18.378,18.378,0,0,1-1.679-2.929c-.148-.354-.257-.626-.334-.854l-.118-.327a.519.519,0,0,0-.025-.062,1.1,1.1,0,0,0-1.014-.633,1.153,1.153,0,0,0-.412.076" transform="translate(-474.472 -313.333)" fill="none"/>
    </clipPath>
    <linearGradient id="linear-gradient-32" x1="-51.361" y1="4.916" x2="-51.253" y2="4.916" xlink:href="#linear-gradient-13"/>
    <clipPath id="clip-path-33">
      <path id="Trazado_117719" data-name="Trazado 117719" d="M477.562,309.357a.962.962,0,0,0,.021,1.433l.384.344c.237.22.592.546,1.037.974.887.853,2.142,2.141,3.722,3.631.4.379.787.742,1.261,1.167a13.156,13.156,0,0,0,1.526,1.169c.559.363,1.166.679,1.683.988a2.937,2.937,0,0,1,1.153,1.093,5.57,5.57,0,0,1,.556,1.671c.056.309.1.635.145.949.034.331.08.677.1,1,.13,1.32.105,2.681.2,4.1A12.464,12.464,0,0,0,490.422,332c.271.639.591,1.274.906,1.864a16.878,16.878,0,0,0,1.1,1.742c.791,1.114,1.816,1.963,2.054,3.07a18.124,18.124,0,0,1,.2,3.283c.067,2.072.194,3.792.286,5s.162,1.89.162,1.89-.025-.688-.067-1.894-.075-2.93-.039-5c.009-.517.029-1.051.053-1.61a7.465,7.465,0,0,0-.1-1.771,4.41,4.41,0,0,0-.825-1.752c-.388-.525-.787-1.027-1.143-1.566a16.281,16.281,0,0,1-.965-1.7c-.289-.615-.555-1.216-.79-1.849a11.5,11.5,0,0,1-.809-3.887c-.026-1.338.066-2.738,0-4.128-.009-.355-.038-.683-.054-1.022-.03-.357-.064-.7-.106-1.046a6.771,6.771,0,0,0-.6-2.1,4.389,4.389,0,0,0-1.586-1.684c-.594-.388-1.119-.691-1.592-1.031a11.108,11.108,0,0,1-1.289-1.086c-.373-.366-.782-.791-1.146-1.163-1.477-1.527-2.65-2.851-3.526-3.773-.436-.46-.789-.818-1.035-1.064s-.367-.363-.367-.363a.427.427,0,0,0-.035-.034,1.153,1.153,0,0,0-1.545.022" transform="translate(-477.252 -309.048)" fill="none"/>
    </clipPath>
    <linearGradient id="linear-gradient-33" x1="-33.218" y1="3.788" x2="-33.149" y2="3.788" xlink:href="#linear-gradient-13"/>
    <clipPath id="clip-path-34">
      <path id="Trazado_117720" data-name="Trazado 117720" d="M473.188,325.549a.962.962,0,0,0,.182,1.422s.183.136.529.388c.086.065.181.135.289.213l.392.259c.284.193.608.393.971.605.724.428,1.649.878,2.568,1.387a7.689,7.689,0,0,1,2.5,2.157,17.234,17.234,0,0,1,1.95,3.585,44.6,44.6,0,0,0,2.078,4.365,14.36,14.36,0,0,1,1.081,2.16,16.315,16.315,0,0,1,.616,2.384c.323,1.659.587,3.394.828,5.1l.167,1.3.115,1.276c.061.849.1,1.7.091,2.548s-.054,1.682-.13,2.511-.176,1.662-.185,2.5a10.364,10.364,0,0,0,1.124,4.665c.331.694.657,1.352.982,1.988s.612,1.255.882,1.855a57.6,57.6,0,0,1,2.328,5.911c.481,1.456.681,2.306.681,2.306s-.167-.857-.589-2.33a58.228,58.228,0,0,0-2.1-6.005c-.246-.611-.525-1.243-.814-1.9s-.6-1.321-.9-2a9.84,9.84,0,0,1-.9-4.47c.039-.792.174-1.606.279-2.448s.194-1.7.235-2.563a35.427,35.427,0,0,0-.175-5.242c-.18-1.753-.373-3.471-.637-5.194a17.427,17.427,0,0,0-.564-2.579,15.274,15.274,0,0,0-1.072-2.38,42.075,42.075,0,0,1-1.845-4.3,18.692,18.692,0,0,0-1.99-3.988,9.547,9.547,0,0,0-2.968-2.756c-1.02-.613-1.851-1.048-2.494-1.464-.324-.2-.6-.389-.827-.554l-.319-.227c-.1-.08-.2-.154-.28-.22l-.513-.4-.031-.025a1.139,1.139,0,0,0-.675-.217,1.126,1.126,0,0,0-.86.385" transform="translate(-472.952 -325.164)" fill="none"/>
    </clipPath>
    <linearGradient id="linear-gradient-34" x1="-28.864" y1="2.539" x2="-28.803" y2="2.539" xlink:href="#linear-gradient-13"/>
    <clipPath id="clip-path-35">
      <path id="Trazado_117721" data-name="Trazado 117721" d="M479.187,303.4a.664.664,0,0,0-.032.989s.109.11.318.316l.175.171c.073.067.152.137.239.216.172.157.372.327.6.5.447.362,1.029.756,1.6,1.191a5.138,5.138,0,0,1,1.473,1.713,11.616,11.616,0,0,1,.939,2.636,29.794,29.794,0,0,0,.937,3.179,9.637,9.637,0,0,1,.5,1.579,11.007,11.007,0,0,1,.157,1.689c.039,1.164.029,2.376.005,3.563l-.03.9-.061.882c-.051.589-.122,1.175-.219,1.752s-.223,1.143-.366,1.7-.3,1.12-.4,1.692a7.1,7.1,0,0,0,.253,3.294c.15.506.3.987.453,1.452s.28.915.4,1.352a39.337,39.337,0,0,1,.939,4.262c.167,1.04.21,1.64.21,1.64s-.018-.6-.145-1.646a38.644,38.644,0,0,0-.775-4.306c-.1-.441-.222-.9-.345-1.374s-.267-.958-.394-1.455a6.71,6.71,0,0,1-.121-3.141c.112-.537.294-1.08.459-1.644s.32-1.142.442-1.732a24.332,24.332,0,0,0,.46-3.6c.071-1.216.128-2.409.136-3.611a11.782,11.782,0,0,0-.1-1.816,10.279,10.279,0,0,0-.472-1.728,29.085,29.085,0,0,1-.786-3.115,12.57,12.57,0,0,0-.919-2.915,6.392,6.392,0,0,0-1.726-2.166c-.63-.515-1.149-.891-1.542-1.236-.2-.17-.371-.324-.5-.458-.07-.067-.135-.127-.195-.185s-.117-.123-.166-.176c-.2-.213-.307-.327-.307-.327l-.019-.018a.795.795,0,0,0-1.067-.031" transform="translate(-478.95 -303.207)" fill="none"/>
    </clipPath>
    <linearGradient id="linear-gradient-35" x1="-69.076" y1="4.306" x2="-68.931" y2="4.306" xlink:href="#linear-gradient-13"/>
    <clipPath id="clip-path-36">
      <path id="Trazado_117722" data-name="Trazado 117722" d="M473.153,319.921a.963.963,0,0,0,.132,1.429l1.521,1.191c.961.756,2.326,1.845,3.953,3.176s3.533,2.935,5.753,4.448c1.108.762,2.258,1.5,3.455,2.258,1.177.733,2.441,1.461,3.689,2.144s2.514,1.342,3.677,2.063a11.677,11.677,0,0,1,3.007,2.5,11.441,11.441,0,0,1,1.762,3.127q.615,1.637,1.053,3.091c.594,1.934.931,3.582,1.2,4.733a10.063,10.063,0,0,0,.382,1.319,2.545,2.545,0,0,0,.152.332c.04.071.06.11.06.11s-.017-.04-.053-.113a2.172,2.172,0,0,1-.135-.337,9.613,9.613,0,0,1-.314-1.328c-.211-1.158-.465-2.825-.961-4.8-.246-.983-.548-2.05-.9-3.152a11.856,11.856,0,0,0-1.684-3.363,12.362,12.362,0,0,0-3.053-2.8c-1.171-.8-2.406-1.512-3.611-2.249s-2.374-1.478-3.528-2.271c-1.124-.782-2.239-1.575-3.275-2.362-2.083-1.565-3.853-3.2-5.421-4.61s-2.885-2.566-3.818-3.376-1.46-1.256-1.46-1.256l-.039-.032a1.144,1.144,0,0,0-.705-.239,1.128,1.128,0,0,0-.836.36" transform="translate(-472.896 -319.561)" fill="none"/>
    </clipPath>
    <linearGradient id="linear-gradient-36" x1="-19.964" y1="4.221" x2="-19.922" y2="4.221" xlink:href="#linear-gradient-13"/>
    <clipPath id="clip-path-37">
      <path id="Trazado_117723" data-name="Trazado 117723" d="M470.774,325.538a.992.992,0,0,0-.6,1.322s.049.109.14.318.244.534.454.95a16.116,16.116,0,0,0,.834,1.407c.346.525.764,1.092,1.221,1.68.922,1.181,1.971,2.5,2.966,4.01.5.769,1.019,1.564,1.544,2.37a15.794,15.794,0,0,1,1.425,2.424,19.167,19.167,0,0,1,.757,2.7c.215.923.406,1.824.543,2.7.281,1.763.4,3.438.541,4.872a28.281,28.281,0,0,0,.5,3.455c.1.411.18.731.252.948s.1.332.1.332-.027-.118-.079-.337-.113-.545-.182-.958a27.509,27.509,0,0,1-.249-3.456c-.04-1.437-.036-3.119-.195-4.928-.076-.908-.206-1.844-.357-2.776a19.362,19.362,0,0,0-.6-2.878A16.125,16.125,0,0,0,478.462,337c-.469-.839-.93-1.666-1.376-2.466-.914-1.618-1.916-3.07-2.732-4.272a18.193,18.193,0,0,1-1.678-2.929c-.148-.354-.258-.626-.334-.854l-.118-.327-.025-.064a1.1,1.1,0,0,0-1.013-.63,1.158,1.158,0,0,0-.414.075" transform="translate(-470.093 -325.463)" fill="none"/>
    </clipPath>
    <linearGradient id="linear-gradient-37" x1="-50.893" y1="4.387" x2="-50.785" y2="4.387" xlink:href="#linear-gradient-13"/>
    <clipPath id="clip-path-38">
      <path id="Trazado_117724" data-name="Trazado 117724" d="M472.526,320.786a.963.963,0,0,0,.022,1.434s.134.119.381.345.594.544,1.037.974c.889.851,2.144,2.141,3.723,3.632.4.379.787.742,1.262,1.167a13.206,13.206,0,0,0,1.527,1.168c.559.362,1.166.679,1.683.989a2.9,2.9,0,0,1,1.151,1.092,5.6,5.6,0,0,1,.559,1.671c.053.31.1.635.143.949.035.331.082.677.1,1,.13,1.321.105,2.681.2,4.1a12.471,12.471,0,0,0,1.067,4.124c.272.639.59,1.272.9,1.864a16.791,16.791,0,0,0,1.1,1.741c.79,1.114,1.815,1.963,2.052,3.07a18.364,18.364,0,0,1,.2,3.283c.065,2.072.192,3.794.285,5s.162,1.892.162,1.892-.025-.688-.069-1.9-.074-2.93-.038-5c.009-.516.027-1.051.053-1.61a7.541,7.541,0,0,0-.1-1.771,4.413,4.413,0,0,0-.826-1.752c-.388-.525-.786-1.025-1.142-1.566a15.81,15.81,0,0,1-.963-1.7c-.29-.615-.557-1.215-.792-1.85a11.479,11.479,0,0,1-.808-3.887c-.027-1.335.067-2.737,0-4.128-.008-.354-.035-.682-.053-1.02-.029-.357-.064-.695-.108-1.045a6.828,6.828,0,0,0-.6-2.1,4.41,4.41,0,0,0-1.586-1.682c-.594-.389-1.12-.691-1.593-1.032a11.22,11.22,0,0,1-1.286-1.085c-.373-.367-.786-.791-1.147-1.164-1.477-1.526-2.65-2.85-3.526-3.773-.434-.46-.79-.818-1.036-1.066s-.366-.362-.366-.362l-.036-.034a1.154,1.154,0,0,0-1.545.021" transform="translate(-472.216 -320.479)" fill="none"/>
    </clipPath>
    <linearGradient id="linear-gradient-38" x1="-32.863" y1="3.418" x2="-32.793" y2="3.418" xlink:href="#linear-gradient-13"/>
    <clipPath id="clip-path-39">
      <path id="Trazado_117725" data-name="Trazado 117725" d="M468.853,337.783a.962.962,0,0,0,.132,1.427l1.522,1.191c.958.756,2.326,1.846,3.95,3.178s3.534,2.933,5.755,4.448c1.106.761,2.257,1.5,3.455,2.257,1.175.732,2.441,1.462,3.688,2.144s2.513,1.342,3.677,2.063a11.7,11.7,0,0,1,3.005,2.5,11.4,11.4,0,0,1,1.761,3.126c.412,1.092.761,2.122,1.055,3.092.593,1.932.93,3.582,1.2,4.732a10.218,10.218,0,0,0,.383,1.319,2.44,2.44,0,0,0,.153.332c.04.073.06.112.06.112s-.017-.04-.052-.114a2.05,2.05,0,0,1-.136-.336,10.035,10.035,0,0,1-.314-1.329c-.213-1.156-.465-2.824-.961-4.794-.245-.983-.55-2.051-.9-3.154a11.8,11.8,0,0,0-1.684-3.363,12.38,12.38,0,0,0-3.052-2.8c-1.172-.8-2.408-1.51-3.611-2.248s-2.374-1.478-3.528-2.273c-1.124-.781-2.239-1.574-3.276-2.362-2.082-1.565-3.851-3.2-5.421-4.61s-2.883-2.566-3.816-3.375l-1.461-1.258c-.013-.01-.027-.023-.039-.031a1.145,1.145,0,0,0-.705-.24,1.132,1.132,0,0,0-.836.362" transform="translate(-468.596 -337.421)" fill="none"/>
    </clipPath>
    <linearGradient id="linear-gradient-39" x1="-19.782" y1="3.514" x2="-19.74" y2="3.514" xlink:href="#linear-gradient-13"/>
    <clipPath id="clip-path-40">
      <path id="Trazado_117726" data-name="Trazado 117726" d="M483.29,347.8h0m-12.409-13.3a.4.4,0,0,0,.054.6l.634.5c.4.315.969.769,1.647,1.324s1.47,1.223,2.4,1.853c.46.318.94.626,1.439.94s1.016.609,1.535.893,1.046.559,1.532.858a4.89,4.89,0,0,1,1.251,1.044,4.775,4.775,0,0,1,.734,1.3c.171.454.316.883.439,1.287.246.8.388,1.491.5,1.969a4.063,4.063,0,0,0,.161.551,1.075,1.075,0,0,0,.062.137l.025.047s-.009-.018-.022-.048a.736.736,0,0,1-.056-.14,4.073,4.073,0,0,1-.131-.554c-.088-.481-.193-1.176-.4-2-.1-.408-.228-.854-.376-1.313a4.987,4.987,0,0,0-.7-1.4,5.187,5.187,0,0,0-1.273-1.167c-.487-.332-1-.629-1.5-.937s-.989-.615-1.47-.945-.932-.655-1.364-.983c-.867-.652-1.6-1.334-2.257-1.921s-1.2-1.068-1.591-1.405l-.608-.524-.016-.013a.478.478,0,0,0-.294-.1.464.464,0,0,0-.347.15" transform="translate(-470.774 -334.354)" fill="none"/>
    </clipPath>
    <linearGradient id="linear-gradient-40" x1="-47.74" y1="8.719" x2="-47.638" y2="8.719" xlink:href="#linear-gradient-13"/>
    <clipPath id="clip-path-41">
      <path id="Trazado_117727" data-name="Trazado 117727" d="M469.017,339.324a.96.96,0,0,0,.021,1.433l.382.346c.239.218.594.545,1.036.974.889.85,2.144,2.141,3.725,3.63.4.377.786.742,1.26,1.166a13.318,13.318,0,0,0,1.527,1.172c.559.362,1.164.678,1.683.985a2.936,2.936,0,0,1,1.151,1.094,5.561,5.561,0,0,1,.559,1.671c.053.31.1.637.144.949.034.331.079.677.1,1,.13,1.32.105,2.681.2,4.1a12.425,12.425,0,0,0,1.067,4.122c.271.64.59,1.273.906,1.866a16.582,16.582,0,0,0,1.1,1.741c.79,1.114,1.815,1.963,2.051,3.069a18.386,18.386,0,0,1,.2,3.284c.065,2.072.192,3.794.285,5s.162,1.892.162,1.892-.025-.691-.069-1.9-.074-2.931-.038-5c.009-.517.029-1.051.053-1.609a7.544,7.544,0,0,0-.1-1.772,4.413,4.413,0,0,0-.826-1.752c-.388-.524-.787-1.025-1.141-1.566a15.812,15.812,0,0,1-.965-1.7c-.292-.616-.559-1.215-.791-1.85a11.48,11.48,0,0,1-.809-3.887c-.026-1.335.066-2.736,0-4.127-.008-.355-.035-.683-.053-1.023-.028-.355-.062-.7-.108-1.044a6.688,6.688,0,0,0-.6-2.1,4.4,4.4,0,0,0-1.583-1.683c-.594-.389-1.121-.694-1.593-1.032a11.113,11.113,0,0,1-1.287-1.086c-.375-.366-.786-.792-1.147-1.164-1.475-1.525-2.65-2.848-3.526-3.771-.434-.46-.79-.818-1.036-1.066l-.367-.362a.414.414,0,0,0-.035-.032,1.151,1.151,0,0,0-1.544.019" transform="translate(-468.706 -339.017)" fill="none"/>
    </clipPath>
    <linearGradient id="linear-gradient-41" x1="-32.618" y1="2.818" x2="-32.549" y2="2.818" xlink:href="#linear-gradient-13"/>
  </defs>
  <g id="Grupo_59349" data-name="Grupo 59349" transform="translate(3858.647 -11437.686)">
    <g id="Grupo_59330" data-name="Grupo 59330" transform="translate(-4280 -1324)">
      <rect id="Rectángulo_16162" data-name="Rectángulo 16162" width="1076" height="115.015" transform="translate(422 13197.025)" fill="#8e4d2b"/>
      <path id="Trazado_117604" data-name="Trazado 117604" d="M79.611,369.324c5.556,7.429,7.484,15.847,4.305,18.8s-10.257-.678-15.814-8.108-7.483-15.847-4.305-18.8,10.259.679,15.814,8.108" transform="translate(876.335 12889.477)" fill="#7a4225"/>
      <path id="Trazado_117605" data-name="Trazado 117605" d="M563.848,378.295c6.952,7.429,9.365,15.846,5.387,18.8s-12.833-.678-19.787-8.108-9.363-15.847-5.388-18.8,12.836.679,19.788,8.108" transform="translate(536.966 12871.137)" fill="#b56237"/>
      <path id="Trazado_117606" data-name="Trazado 117606" d="M108.494,363.018c-3.189,6.353-8.531,10.4-11.931,9.051s-3.57-7.6-.38-13.954,8.529-10.406,11.93-9.051,3.57,7.6.381,13.954" transform="translate(332.774 12865.101)" fill="#7a4225"/>
      <path id="Trazado_117607" data-name="Trazado 117607" d="M736.769,363.56c-3.189,6.352-8.531,10.4-11.93,9.049s-3.57-7.6-.381-13.954,8.53-10.4,11.93-9.051,3.57,7.6.381,13.955" transform="translate(618.976 12865.261)" fill="#7a4225"/>
      <path id="Trazado_117732" data-name="Trazado 117732" d="M0,0H1076.647V66.639H0Z" transform="translate(421.353 13132.386)" fill="#7a4225"/>
      <path id="Trazado_117608" data-name="Trazado 117608" d="M63.895,418.129c0,5.968-4.34,10.8-9.694,10.8s-9.694-4.837-9.694-10.8,4.339-10.8,9.694-10.8,9.694,4.836,9.694,10.8" transform="translate(855.896 12874.451)" fill="#7a4225"/>
      <path id="Trazado_117609" data-name="Trazado 117609" d="M408.969,362.271c0,9.309-8.471,16.854-18.922,16.854s-18.922-7.546-18.922-16.854,8.471-16.854,18.922-16.854,18.922,7.546,18.922,16.854" transform="translate(459.061 12864.097)" fill="#7a4225"/>
      <path id="Trazado_117610" data-name="Trazado 117610" d="M230.827,361.436c0,5.371-4.888,9.724-10.917,9.724s-10.917-4.352-10.917-9.724,4.886-9.724,10.917-9.724,10.917,4.352,10.917,9.724" transform="translate(385.204 12865.963)" fill="#b56237"/>
      <path id="Trazado_117611" data-name="Trazado 117611" d="M648.337,346.575c0,12.053-10.97,21.824-24.5,21.824s-24.5-9.77-24.5-21.824,10.969-21.825,24.5-21.825,24.5,9.772,24.5,21.825" transform="translate(563.018 12857.969)" fill="#7a4225"/>
      <path id="Trazado_117612" data-name="Trazado 117612" d="M737.825,424.065c-1.245,3.612-5.543,5.641-9.6,4.531s-6.333-4.936-5.089-8.549,5.544-5.641,9.6-4.533,6.332,4.938,5.087,8.55" transform="translate(619.26 12884.79)" fill="#7a4225"/>
      <path id="Trazado_117613" data-name="Trazado 117613" d="M747.6,406.724a4.709,4.709,0,0,1-5.732,2.707,4.025,4.025,0,0,1-3.038-5.106,4.708,4.708,0,0,1,5.73-2.707,4.027,4.027,0,0,1,3.039,5.106" transform="translate(626.47 12880.706)" fill="#7a4225"/>
      <path id="Trazado_117614" data-name="Trazado 117614" d="M31.965,377.378c0,2.685-2.809,4.862-6.273,4.862s-6.272-2.177-6.272-4.862,2.808-4.862,6.272-4.862,6.273,2.177,6.273,4.862" transform="translate(467.248 12843.131)" fill="#b56237"/>
      <path id="Trazado_117615" data-name="Trazado 117615" d="M118.052,397.683c0,3.253-1.371,5.889-3.064,5.889s-3.064-2.636-3.064-5.889,1.371-5.887,3.064-5.887,3.064,2.636,3.064,5.887" transform="translate(340.985 12877.848)" fill="#b56237"/>
      <g id="Grupo_57506" data-name="Grupo 57506" transform="translate(944.873 12922.694)">
        <g id="Grupo_57505" data-name="Grupo 57505" clip-path="url(#clip-path)">
          <rect id="Rectángulo_16165" data-name="Rectángulo 16165" width="146.395" height="100.636" transform="translate(-7.081 0)" fill="url(#linear-gradient)"/>
        </g>
      </g>
      <g id="Grupo_57508" data-name="Grupo 57508" transform="translate(783.229 12827.845)">
        <g id="Grupo_57507" data-name="Grupo 57507" clip-path="url(#clip-path-2)">
          <rect id="Rectángulo_16166" data-name="Rectángulo 16166" width="122.936" height="79.228" transform="translate(-4.868 -1.689) rotate(-3.025)" fill="url(#linear-gradient-2)"/>
        </g>
      </g>
      <path id="Trazado_117618" data-name="Trazado 117618" d="M482.155,43.7s-3.348,26.7-3.932,38.2-.237,85.857,0,114.2,1.057,55.458,3.932,88.322,1.644,72.712,4.518,78.052-2.345,12.324-8.772,12.324-13.821,0-13.411-6.162,6.573-40.258,6.984-49.3,2.055-100.235,2.055-110.095-1.953-99.414-.72-107.425,5.058-48.705,9.345-58.128" transform="translate(442.71 12774.643)" fill="#59791d"/>
      <path id="Trazado_117619" data-name="Trazado 117619" d="M474.835,100.983,485.762,86.4l1.169.722-12.1,22.591Z" transform="translate(445.781 12787.302)" fill="#59791d"/>
      <path id="Trazado_117620" data-name="Trazado 117620" d="M474.832,147.8l14.112-20.129-13.876,32.041Z" transform="translate(445.781 12799.538)" fill="#59791d"/>
      <g id="Grupo_57512" data-name="Grupo 57512" transform="translate(814.77 12790.698)">
        <g id="Grupo_57511" data-name="Grupo 57511" clip-path="url(#clip-path-3)">
          <rect id="Rectángulo_16168" data-name="Rectángulo 16168" width="88.122" height="38.357" transform="translate(0 -0.032)" fill="url(#linear-gradient-3)"/>
        </g>
      </g>
      <path id="Trazado_117622" data-name="Trazado 117622" d="M459.368,49.842S475.5,82.484,475.6,89.787l1.89-15.5-15.8-24.719Z" transform="translate(441.196 12776.381)" fill="#59791d"/>
      <path id="Trazado_117623" data-name="Trazado 117623" d="M475.4,109.777S465.236,89.025,458.041,88.1s-1.547-5.338-1.547-5.338l2.733-.4s6.407,10.566,9.9,14.16a34.9,34.9,0,0,0,6.289,5.273Z" transform="translate(439.719 12786.106)" fill="#59791d"/>
      <path id="Trazado_117624" data-name="Trazado 117624" d="M477.608,199.162S467.351,170.2,449.635,160.8l.771-3.2s6.161,4.582,11.4,8.434,16.017,19.257,16.017,19.257Z" transform="translate(438.31 12808.412)" fill="#59791d"/>
      <g id="Grupo_57516" data-name="Grupo 57516" transform="translate(922.024 12761.686)">
        <g id="Grupo_57515" data-name="Grupo 57515" clip-path="url(#clip-path-4)">
          <rect id="Rectángulo_16170" data-name="Rectángulo 16170" width="32.155" height="56.659" transform="translate(-2.714 0)" fill="url(#linear-gradient-4)"/>
        </g>
      </g>
      <path id="Trazado_117626" data-name="Trazado 117626" d="M484.824,55.574s-5.452-7.482-12.075-11.95-18.025-17.1-17.408-27.113S454.723.643,458.112,5.265s1.849,6.162,6.162,10.784,6.934,1.908,11.556,7.578,8.994,31.947,8.994,31.947" transform="translate(439.995 12762.771)" fill="#98b523"/>
      <g id="Grupo_57520" data-name="Grupo 57520" transform="translate(923.721 13046.722)">
        <g id="Grupo_57519" data-name="Grupo 57519" clip-path="url(#clip-path-5)">
          <rect id="Rectángulo_16172" data-name="Rectángulo 16172" width="79.192" height="87.855" transform="translate(-25.243 34.903) rotate(-58.677)" fill="url(#linear-gradient-5)"/>
        </g>
      </g>
      <g id="Grupo_57522" data-name="Grupo 57522" transform="translate(923.721 13056.16)">
        <g id="Grupo_57521" data-name="Grupo 57521" clip-path="url(#clip-path-6)">
          <rect id="Rectángulo_16173" data-name="Rectángulo 16173" width="76.041" height="43.027" transform="matrix(0.998, -0.064, 0.064, 0.998, -6.451, 0.157)" fill="url(#linear-gradient-6)"/>
        </g>
      </g>
      <g id="Grupo_57524" data-name="Grupo 57524" transform="translate(947.502 12940.348)">
        <g id="Grupo_57523" data-name="Grupo 57523" clip-path="url(#clip-path-7)">
          <rect id="Rectángulo_16174" data-name="Rectángulo 16174" width="103.754" height="148.187" transform="translate(-13.086 80.865) rotate(-80.808)" fill="url(#linear-gradient-7)"/>
        </g>
      </g>
      <path id="Trazado_117630" data-name="Trazado 117630" d="M589.919,70.85c-12.153,11.9-30.88,32.907-42.276,32.907s-12.908-3.547-19.229,1.267-12.663,10.634-25.065,5.82a122.379,122.379,0,0,1-20.247-9.87S489.938,72.62,499.557,66.3s8.1-14.432,13.411-17.216,13.668-4.044,23.286-6.324,10.382-.511,18.483,0,13.923-2.273,18.225-1.136,5.317,4.934,13.67,3.921a22.137,22.137,0,0,0,13.4-7.324.024.024,0,0,0,.008-.016s2.03,20.757-10.122,32.649" transform="translate(448.233 12773.012)" fill="#98b523"/>
      <g id="Grupo_57528" data-name="Grupo 57528" transform="translate(931.335 12811.229)">
        <g id="Grupo_57527" data-name="Grupo 57527" clip-path="url(#clip-path-8)">
          <rect id="Rectángulo_16176" data-name="Rectángulo 16176" width="63.591" height="117.377" transform="translate(-0.448 62.754) rotate(-89.591)" fill="url(#linear-gradient-8)"/>
        </g>
      </g>
      <path id="Trazado_117632" data-name="Trazado 117632" d="M507.331,123.46c-.044.609-.121,1.77-.18,3.161-.022.631-.053,1.309-.091,2.024a3.582,3.582,0,0,0-.022.677,4.4,4.4,0,0,0-.451.083q-.587.124-1.309.316l-.18.044c-.624.166-1.286.324-2.008.542-.384.105-.783.211-1.2.316-.971.255-2.033.519-3.183.782-.407.1-.827.188-1.256.279a70.725,70.725,0,0,1-11.374,1.482c-4.688.226-10.232,2.115-15.1,4.259v-7.855c6.018-.481,20.914-4.715,24.283-5.19.565-.083,1.3-.188,2.174-.293,1.709-.213,3.913-.467,6.274-.692,1.167-.166,2.37-.271,3.559-.369a.243.243,0,0,1,.067-.006v.052c0,.075.008.158.008.227a.533.533,0,0,1-.008.163" transform="translate(444.637 12798.158)" fill="#59791d"/>
      <path id="Trazado_117633" data-name="Trazado 117633" d="M507.331,123.46c-.044.609-.121,1.77-.18,3.161-.963-.008-1.949.016-2.979.053-.232.005-.474.014-.714.022-.661.022-1.331.061-2.024.111-.933.054-1.9.137-2.889.227-.316.03-.655.061-1.009.1-.458.047-.946.089-1.459.144-4.687.487-11.307,1.3-14.753,1.986-2.22.428-6.537,1.557-10.351,2.6v-2.288c6.018-.481,20.914-4.715,24.283-5.19.565-.083,1.3-.188,2.174-.293,1.709-.213,3.913-.467,6.274-.692,1.167-.166,2.37-.271,3.559-.369a.243.243,0,0,1,.067-.006v.052c0,.075.008.158.008.227a.533.533,0,0,1-.008.163" transform="translate(444.637 12798.158)" fill="#78a126"/>
      <path id="Trazado_117634" data-name="Trazado 117634" d="M507.06,127.358a3.582,3.582,0,0,0-.022.677,4.4,4.4,0,0,0-.451.083q-.587.124-1.309.316l-.18.044c-.624.166-1.286.324-2.008.542-.384.105-.783.211-1.2.316-.971.255-2.033.519-3.183.782-.407.1-.827.188-1.256.279a70.577,70.577,0,0,1-11.374,1.482c-4.688.226-10.232,2.115-15.1,4.258v-1.888c2.046-.813,3.979-1.557,4.77-1.806,2.03-.609,9.081-.473,10.99-1.173,1.046-.384,5.959-1.361,10.4-2.2q.677-.124,1.331-.249c1.212-.226,2.356-.436,3.326-.608.519-.1.993-.182,1.407-.257.85-.135,1.407-.233,1.595-.248.1-.016.2-.03.316-.053.564-.082,1.286-.18,1.955-.293" transform="translate(444.637 12799.445)" fill="#415903"/>
      <path id="Trazado_117635" data-name="Trazado 117635" d="M515,142.941c5.046,10.107,6.844,17.352,9.348,25.773s6.187,22.628,6.127,33.947-4.289,29.638-14.26,41.379c-10.234,12.05-25.2,19.261-33.484,18.616s-12.125-6.023-13.931-13.984,0-18.58,1.658-26.966,8.157-17.921,13.552-30.838,7.967-29.288,8.016-33.728-1.755-9.107,1.265-16,7.923-7.54,11.182-6.682,8.552,4.525,10.526,8.482" transform="translate(443.77 12801.463)" fill="#272861"/>
      <path id="Trazado_117636" data-name="Trazado 117636" d="M515.127,143.323c4.911,9.839,5.352,17.416,7.788,25.612s5.95,21.767,5.893,32.786-2.793,28.581-12.5,40.008c-9.962,11.731-24.528,18.75-32.592,18.121s-11.8-5.863-13.56-13.611,0-18.086,1.613-26.247,7.94-17.446,13.192-30.018,7.756-28.508,7.8-32.831-1.709-8.863,1.23-15.572,7.711-7.339,10.885-6.5,8.323,4.4,10.245,8.256" transform="translate(444.178 12801.646)" fill="#181027"/>
      <path id="Trazado_117637" data-name="Trazado 117637" d="M494.947,158.276c-.66,9.738-2.644,19.775-13.021,38.712-6.961,12.7-12.367,25.341-7.551,26.579,4.889,1.259,5.759-3.012,13.748-18.7S500,174.215,500.8,163.413c.7-9.45-1.678-13.533-2.019-13.9s-3.832,8.767-3.832,8.767" transform="translate(445.101 12806.01)" fill="#23204d"/>
      <path id="Trazado_117638" data-name="Trazado 117638" d="M511.25,142.795c1.774,5.09,4.3,13.085,6.471,20.442s6.3,24.448,6.253,34.383-5.526,30.527-9.414,36.474-9.441,12.874-14.526,15.52-11.908,3.594-15.407.576-7.584-16.858-.546-27.16,17.849-32.67,19.389-46.173S501.638,146.3,501,143.4s8.651-5.189,10.25-.608" transform="translate(447.38 12803.251)" fill="#272457"/>
      <path id="Trazado_117639" data-name="Trazado 117639" d="M513.459,160.508c.915,2.9,7.727,24.926,1.682,47.245-6.14,22.668-19.082,36.182-24.754,34.79s-2.214-8.151,1.849-13.708,10.35-11.4,16-29.406c4.634-14.767,1.562-36.278.8-38.51s2.579-6.258,4.421-.412" transform="translate(449.509 12808.376)" fill="#363178"/>
      <path id="Trazado_117640" data-name="Trazado 117640" d="M511.281,182.268c.424,9.706-3.353,22.643-5.6,26.256-2.216,3.572-4.849,1.724-1.549-5.589,1.143-2.533,2.632-7.385,4.551-20.863.569-3.987,2.415-3.895,2.594.2" transform="translate(454.007 12814.798)" fill="#524ab8"/>
      <path id="Trazado_117641" data-name="Trazado 117641" d="M510.182,181.89c.722,5.2-3.34,19.354-3.937,21.572-1.01,3.752-2.37,3.6-1.093-.539a90.059,90.059,0,0,0,3.625-21.006c.074-2.174,1.1-2.217,1.405-.027" transform="translate(454.616 12815.132)" fill="#fff"/>
      <path id="Trazado_117642" data-name="Trazado 117642" d="M512.156,152.66a6.917,6.917,0,0,0,.9.341c4.53,1.381,7.979-2.8,8.856-6.084,0,0-3.691,3.567-4.98,3.287a23.873,23.873,0,0,1-3.46-2.5c-.823-.9-.774-4.237-1.823-7.378s-4.577-5.988-7.289-7.348a7.306,7.306,0,0,0-5.085-.258,5.254,5.254,0,0,0-2.314,1.18c-.9,1.013,1.685,3.034,3.253,4.347s3.436,4.542,3.967,5.52,1.568,3.508,2.288,4.495a19.653,19.653,0,0,0,5.688,4.4" transform="translate(452.286 12800.935)" fill="#618f24"/>
      <path id="Trazado_117643" data-name="Trazado 117643" d="M501.784,207.176c-2.87,3.506-9.632,12.257-9.54,14.677.073,1.949,3.888,2.664,8.894-5.694s2.9-11.733.646-8.983" transform="translate(450.943 12822.832)" fill="#524ab8"/>
      <path id="Trazado_117644" data-name="Trazado 117644" d="M512.482,153c4.53,1.379,7.977-2.8,8.856-6.084,0,0-3.692,3.567-4.981,3.287a23.948,23.948,0,0,1-3.46-2.5c-.822-.9-.773-4.237-1.822-7.378s-4.577-5.988-7.289-7.348a7.306,7.306,0,0,0-5.085-.258l.206,1.609,1.549-.858c1.44.63,1.5-.8,3.962,1.513s3.482,2.058,4.415,5.313,1.548,5.546,2.008,7.293c.277,1.061,1.067,3.594,1.64,5.418" transform="translate(452.858 12800.935)" fill="#98b523"/>
      <path id="Trazado_117645" data-name="Trazado 117645" d="M485.517,160.114a28.469,28.469,0,0,1-2.141-4.531,4.3,4.3,0,0,1,1.075-3.462c1.793-2.086,5.239-3.071,6.466-3.934,1.765-1.242,8.187-6.014,8.279-7.114s-1.536-9.865-1.536-9.865l-1.551-1.692c-1.316,2.621-1.449,4.81-4.014,6.612s-5.335,2.97-6.775,4.793-5.488,8.277-4.811,12.1a10.927,10.927,0,0,0,5.008,7.093" transform="translate(447.441 12800.086)" fill="#98b523"/>
      <path id="Trazado_117646" data-name="Trazado 117646" d="M485.517,160.114a28.469,28.469,0,0,1-2.141-4.531,4.3,4.3,0,0,1,1.075-3.462,7.468,7.468,0,0,1,.5-3.972c1.09-1.8,5-5.38,7.461-7.3a13.036,13.036,0,0,0,4.124-5.837l-.074-5.115-.349-.382c-1.316,2.621-1.449,4.81-4.014,6.612s-5.335,2.97-6.775,4.793-5.488,8.277-4.811,12.1a10.927,10.927,0,0,0,5.008,7.093" transform="translate(447.441 12800.086)" fill="#70a42a"/>
      <path id="Trazado_117647" data-name="Trazado 117647" d="M493.945,171.114c.237-1.539,3.115-5.221,4.037-6.615s5.933-4.361,10.054-11.445c4.2-7.215-2.446-10.819-3.475-11.963s-1.154-15.251-1.622-17.128c-.335-1.35-2.611-1.451-5.572-1.482s-6.913,3.226-6.913,3.226.1.219.255.589c.605,1.425,2.068,5.1,1.981,7.067-.106,2.48,1,7.877-.005,8.981s-2.264,3.724-3.962,5.467c-1.246,1.276-1.365,5.515-1.094,8.141a6.6,6.6,0,0,0,.415,2.007c3.528,6.412,5.663,14.694,5.9,13.155" transform="translate(449.54 12797.999)" fill="#70a42a"/>
      <path id="Trazado_117648" data-name="Trazado 117648" d="M501.455,206.475c-1.514,1.849-5.08,6.466-5.033,7.743.039,1.027,2.051,1.405,4.692-3s1.53-6.189.341-4.739" transform="translate(452.182 12822.756)" fill="#fff"/>
      <path id="Trazado_117649" data-name="Trazado 117649" d="M493.917,171.114c.237-1.539,3.115-5.221,4.037-6.615s5.933-4.361,10.054-11.445c4.2-7.215-2.446-10.819-3.475-11.963s-1.154-15.251-1.622-17.128c-.335-1.35-2.611-1.451-5.572-1.482s-6.913,3.226-6.913,3.226.1.219.255.589c2.379-.655,4.106-1.211,5.93-.98,2.133.271,3.32,1.566,3.91,5.57s-.673,10.47.412,12.215,3.739,4.45,4.3,5.813-3.847,7.981-5.845,9.984a98.191,98.191,0,0,0-6.377,8.246s-2.94-8.434-3.615-9.357a17.944,17.944,0,0,0-1.8-1.836,6.6,6.6,0,0,0,.415,2.007c3.528,6.412,5.663,14.694,5.9,13.155" transform="translate(449.567 12797.999)" fill="#98b523"/>
      <path id="Trazado_117650" data-name="Trazado 117650" d="M494.81,123.969c-.135,1.722.764.67,1.08,4.146a62.748,62.748,0,0,1,.463,8.366c-.108,2.5-1.42,5.3-1.71,5.108s-1.7-8.537-1.7-10.053a21.2,21.2,0,0,0-1.554-5.571c-.252-.477-.892-1.4-.892-1.4Z" transform="translate(450.425 12798.44)" fill="#98b523"/>
      <path id="Trazado_117651" data-name="Trazado 117651" d="M498.049,154.588c.427-2.213-.367-4.715-.2-5.557s-2.581-6.454-2.511-7.031a10.868,10.868,0,0,0-.263-2.156s-.353,2.791-.353,4.47,1.01,4.089,1.363,5.222-1.1,8.973-.963,8.846,2.924-3.795,2.924-3.795" transform="translate(451.679 12803.147)" fill="#98b523"/>
      <path id="Trazado_117652" data-name="Trazado 117652" d="M489.557,154.669c.546-.56,1.172-4.23,1.281-4.673s1.153-5.166,1.153-5.166a56.732,56.732,0,0,1-.34,5.877c-.309,2.081-.81,6.016-.81,6.016Z" transform="translate(450.146 12804.626)" fill="#98b523"/>
      <path id="Trazado_117653" data-name="Trazado 117653" d="M453.677,189.9c.027.381.075,1.1.113,1.975.014.4.032.818.056,1.265a2.193,2.193,0,0,1,.016.423,2.638,2.638,0,0,1,.28.051c.245.052.519.118.818.2.039.009.076.018.113.029.392.1.8.2,1.256.338q.358.1.752.2c.607.159,1.269.324,1.989.489.253.061.517.117.786.174a43.992,43.992,0,0,0,7.107.926,28.717,28.717,0,0,1,9.435,2.66v-4.907c-3.761-.3-13.07-2.947-15.175-3.244-.351-.052-.813-.117-1.359-.183-1.067-.132-2.444-.292-3.921-.433-.727-.1-1.481-.169-2.224-.229a.114.114,0,0,0-.042-.005v.034c0,.047-.005.1-.005.14a.368.368,0,0,0,.005.1" transform="translate(439.506 12817.905)" fill="#59791d"/>
      <path id="Trazado_117654" data-name="Trazado 117654" d="M453.677,189.9c.027.381.075,1.1.113,1.975.6-.005,1.217.009,1.86.032l.447.014c.415.014.832.038,1.265.07.582.034,1.184.086,1.8.141.2.019.411.038.631.062.287.027.593.056.911.088,2.93.306,7.066.814,9.218,1.241,1.387.268,4.087.974,6.469,1.622v-1.429c-3.761-.3-13.07-2.947-15.175-3.244-.351-.052-.813-.117-1.359-.183-1.067-.132-2.444-.292-3.921-.433-.727-.1-1.481-.169-2.224-.229a.114.114,0,0,0-.042-.005v.034c0,.047-.005.1-.005.14a.368.368,0,0,0,.005.1" transform="translate(439.506 12817.905)" fill="#78a126"/>
      <path id="Trazado_117655" data-name="Trazado 117655" d="M453.8,192.333a2.094,2.094,0,0,1,.016.423c.108.019.2.029.281.052.244.052.517.118.817.2l.113.029c.392.1.8.2,1.256.338.24.066.489.132.752.2.607.159,1.271.324,1.989.489.254.06.517.117.786.174a44.14,44.14,0,0,0,7.107.926,28.733,28.733,0,0,1,9.436,2.66v-1.18c-1.28-.508-2.488-.974-2.982-1.128-1.269-.381-5.673-.3-6.867-.734-.653-.24-3.724-.851-6.5-1.377l-.832-.156c-.756-.141-1.472-.272-2.078-.38-.324-.062-.621-.114-.879-.161-.532-.084-.878-.145-1-.154-.061-.01-.128-.019-.2-.034-.353-.052-.8-.113-1.223-.183" transform="translate(439.547 12818.71)" fill="#415903"/>
      <path id="Trazado_117656" data-name="Trazado 117656" d="M452.609,202.07c-3.154,6.316-4.278,10.844-5.842,16.106s-3.866,14.139-3.829,21.213,2.68,18.52,8.911,25.857c6.4,7.53,15.747,12.037,20.924,11.633s7.577-3.764,8.706-8.738,0-11.611-1.036-16.852-5.1-11.2-8.469-19.27a74.413,74.413,0,0,1-5.011-21.077c-.03-2.776,1.1-5.69-.79-10s-4.95-4.711-6.988-4.176a12.175,12.175,0,0,0-6.577,5.3" transform="translate(436.325 12819.97)" fill="#272861"/>
      <path id="Trazado_117657" data-name="Trazado 117657" d="M452.094,202.31c-3.069,6.148-3.345,10.883-4.867,16.005s-3.718,13.6-3.682,20.487,1.745,17.86,7.81,25c6.223,7.329,15.327,11.715,20.366,11.323s7.374-3.664,8.473-8.506,0-11.3-1.009-16.4-4.96-10.9-8.243-18.758a72.468,72.468,0,0,1-4.876-20.516c-.029-2.7,1.07-5.539-.769-9.73s-4.819-4.587-6.8-4.064a11.841,11.841,0,0,0-6.4,5.159" transform="translate(436.505 12820.084)" fill="#181027"/>
      <path id="Trazado_117658" data-name="Trazado 117658" d="M460.274,211.654c.412,6.086,1.65,12.358,8.135,24.191,4.351,7.936,7.728,15.835,4.721,16.609-3.056.787-3.6-1.881-8.592-11.687s-7.424-19.153-7.92-25.9c-.436-5.905,1.047-8.456,1.26-8.689s2.4,5.479,2.4,5.479" transform="translate(440.357 12822.812)" fill="#23204d"/>
      <path id="Trazado_117659" data-name="Trazado 117659" d="M452.284,201.98c-1.11,3.18-2.691,8.178-4.045,12.774s-3.936,15.276-3.908,21.485,3.453,19.076,5.882,22.792,5.9,8.045,9.078,9.7,7.442,2.246,9.629.359,4.739-10.534.341-16.972-11.155-20.416-12.116-28.853,1.143-19.1,1.543-20.9-5.406-3.243-6.4-.38" transform="translate(436.738 12821.088)" fill="#272457"/>
      <path id="Trazado_117660" data-name="Trazado 117660" d="M448.967,213.049c-.572,1.815-4.829,15.576-1.051,29.524,3.838,14.164,11.925,22.609,15.47,21.741s1.383-5.094-1.156-8.567-6.468-7.124-10-18.376c-2.9-9.226-.978-22.669-.5-24.063s-1.612-3.911-2.763-.258" transform="translate(437.342 12824.29)" fill="#363178"/>
      <path id="Trazado_117661" data-name="Trazado 117661" d="M447.26,226.646c-.266,6.065,2.094,14.15,3.5,16.408,1.386,2.231,3.03,1.076.968-3.493-.714-1.583-1.644-4.615-2.843-13.037-.354-2.492-1.509-2.434-1.621.122" transform="translate(437.6 12828.304)" fill="#524ab8"/>
      <path id="Trazado_117662" data-name="Trazado 117662" d="M447.5,226.41c-.452,3.246,2.086,12.094,2.459,13.48.633,2.345,1.482,2.251.683-.336a56.292,56.292,0,0,1-2.265-13.127c-.045-1.359-.688-1.386-.878-.017" transform="translate(437.662 12828.512)" fill="#fff"/>
      <path id="Trazado_117663" data-name="Trazado 117663" d="M449.056,208.145a4.623,4.623,0,0,1-.561.214c-2.83.862-4.985-1.75-5.533-3.8,0,0,2.306,2.229,3.112,2.054a14.862,14.862,0,0,0,2.163-1.566c.515-.56.482-2.647,1.138-4.61s2.86-3.742,4.556-4.591a4.552,4.552,0,0,1,3.176-.162,3.274,3.274,0,0,1,1.447.738c.563.631-1.053,1.9-2.033,2.716a14.751,14.751,0,0,0-2.479,3.45,31.342,31.342,0,0,1-1.431,2.808,12.249,12.249,0,0,1-3.554,2.752" transform="translate(436.332 12819.641)" fill="#618f24"/>
      <path id="Trazado_117664" data-name="Trazado 117664" d="M453.656,242.21c1.794,2.19,6.02,7.66,5.963,9.173-.047,1.217-2.428,1.665-5.558-3.559s-1.811-7.332-.4-5.614" transform="translate(439.053 12833.323)" fill="#524ab8"/>
      <path id="Trazado_117665" data-name="Trazado 117665" d="M448.5,208.358c-2.832.862-4.986-1.75-5.535-3.8,0,0,2.308,2.23,3.113,2.054a15,15,0,0,0,2.163-1.565c.513-.56.482-2.647,1.138-4.61s2.86-3.743,4.555-4.592a4.563,4.563,0,0,1,3.178-.162l-.128,1.006-.969-.537c-.9.394-.94-.5-2.476.945s-2.177,1.286-2.758,3.322-.967,3.465-1.256,4.556c-.172.663-.666,2.247-1.024,3.386" transform="translate(436.332 12819.641)" fill="#98b523"/>
      <path id="Trazado_117666" data-name="Trazado 117666" d="M464.794,212.8a17.79,17.79,0,0,0,1.338-2.832,2.694,2.694,0,0,0-.672-2.164c-1.121-1.3-3.275-1.919-4.041-2.457-1.1-.777-5.116-3.759-5.174-4.446s.961-6.165.961-6.165l.97-1.057c.821,1.639.906,3.005,2.507,4.132s3.333,1.855,4.234,2.995,3.429,5.172,3.007,7.56a6.824,6.824,0,0,1-3.13,4.433" transform="translate(440.269 12819.109)" fill="#98b523"/>
      <path id="Trazado_117667" data-name="Trazado 117667" d="M464.412,212.8a17.79,17.79,0,0,0,1.338-2.832,2.694,2.694,0,0,0-.672-2.164,4.674,4.674,0,0,0-.31-2.481,25.986,25.986,0,0,0-4.662-4.561,8.147,8.147,0,0,1-2.579-3.647l.047-3.2.219-.239c.821,1.639.906,3.005,2.507,4.132s3.333,1.855,4.234,2.995,3.429,5.172,3.007,7.56a6.824,6.824,0,0,1-3.13,4.433" transform="translate(440.65 12819.109)" fill="#70a42a"/>
      <path id="Trazado_117668" data-name="Trazado 117668" d="M459.974,219.676c-.147-.962-1.947-3.263-2.523-4.133s-3.708-2.727-6.281-7.153c-2.623-4.509,1.529-6.761,2.17-7.476s.721-9.53,1.014-10.7c.209-.844,1.632-.908,3.482-.927s4.32,2.016,4.32,2.016-.061.136-.159.367a13.892,13.892,0,0,0-1.239,4.417c.066,1.551-.622,4.923,0,5.612s1.414,2.327,2.478,3.416c.777.8.852,3.446.682,5.086a4.173,4.173,0,0,1-.258,1.255c-2.205,4.007-3.541,9.182-3.688,8.221" transform="translate(438.51 12817.806)" fill="#70a42a"/>
      <path id="Trazado_117669" data-name="Trazado 117669" d="M453.053,241.773c.946,1.155,3.175,4.041,3.145,4.838-.025.642-1.282.879-2.933-1.877s-.954-3.867-.213-2.961" transform="translate(439.087 12833.276)" fill="#fff"/>
      <path id="Trazado_117670" data-name="Trazado 117670" d="M459.974,219.676c-.147-.962-1.947-3.263-2.523-4.133s-3.708-2.727-6.281-7.153c-2.623-4.509,1.529-6.761,2.17-7.476s.721-9.53,1.014-10.7c.209-.844,1.632-.908,3.482-.927s4.32,2.016,4.32,2.016-.061.136-.159.367a9.655,9.655,0,0,0-3.707-.612c-1.333.17-2.074.979-2.444,3.481s.421,6.543-.258,7.634-2.335,2.78-2.689,3.633,2.4,4.986,3.652,6.239a61.442,61.442,0,0,1,3.987,5.152s1.837-5.27,2.258-5.846a10.99,10.99,0,0,1,1.124-1.149,4.173,4.173,0,0,1-.258,1.255c-2.205,4.007-3.541,9.182-3.688,8.221" transform="translate(438.51 12817.806)" fill="#98b523"/>
      <path id="Trazado_117671" data-name="Trazado 117671" d="M457.143,190.216c.084,1.076-.476.419-.675,2.592a39.377,39.377,0,0,0-.288,5.227c.067,1.561.887,3.311,1.068,3.192a42.56,42.56,0,0,0,1.062-6.281,13.281,13.281,0,0,1,.971-3.482c.158-.3.557-.874.557-.874Z" transform="translate(440.246 12818.082)" fill="#98b523"/>
      <path id="Trazado_117672" data-name="Trazado 117672" d="M454.772,209.349c-.266-1.383.231-2.946.125-3.472s1.612-4.033,1.567-4.394a6.73,6.73,0,0,1,.166-1.347s.219,1.744.22,2.793a12.607,12.607,0,0,1-.853,3.263c-.22.708.69,5.609.6,5.528s-1.828-2.371-1.828-2.371" transform="translate(439.81 12821.023)" fill="#98b523"/>
      <path id="Trazado_117673" data-name="Trazado 117673" d="M459.934,209.4a12.6,12.6,0,0,1-.8-2.92c-.067-.276-.721-3.228-.721-3.228a35.612,35.612,0,0,0,.213,3.672c.193,1.3.507,3.76.507,3.76Z" transform="translate(440.913 12821.947)" fill="#98b523"/>
      <path id="Trazado_117674" data-name="Trazado 117674" d="M457.591,77.213c.023.316.062.917.093,1.639.012.327.027.678.047,1.049a1.769,1.769,0,0,1,.012.351,2.322,2.322,0,0,1,.235.041c.2.044.429.1.678.165l.095.023c.323.086.665.167,1.04.281.2.054.407.109.625.163.5.132,1.053.27,1.649.406.211.051.429.1.652.144a36.631,36.631,0,0,0,5.9.769,23.806,23.806,0,0,1,7.827,2.207V80.38c-3.119-.25-10.842-2.445-12.59-2.691-.292-.043-.674-.1-1.127-.152-.885-.109-2.028-.242-3.253-.359-.605-.086-1.229-.14-1.845-.191a.082.082,0,0,0-.035-.005v.029c0,.039,0,.082,0,.117a.292.292,0,0,0,0,.086" transform="translate(440.667 12784.51)" fill="#59791d"/>
      <path id="Trazado_117675" data-name="Trazado 117675" d="M457.591,77.213c.023.316.062.917.093,1.639.5,0,1.011.008,1.545.027l.37.01c.342.013.691.032,1.049.06.484.027.983.07,1.5.117.163.016.338.031.522.051.239.023.491.047.756.074,2.431.254,5.863.674,7.648,1.029,1.151.223,3.39.808,5.367,1.346V80.38c-3.119-.25-10.842-2.445-12.59-2.691-.292-.043-.674-.1-1.127-.152-.885-.109-2.028-.242-3.253-.359-.605-.086-1.229-.14-1.845-.191a.082.082,0,0,0-.035-.005v.029c0,.039,0,.082,0,.117a.292.292,0,0,0,0,.086" transform="translate(440.667 12784.51)" fill="#78a126"/>
      <path id="Trazado_117676" data-name="Trazado 117676" d="M457.7,79.233a1.769,1.769,0,0,1,.012.351,2.258,2.258,0,0,1,.233.043q.305.064.679.163l.093.023c.323.087.666.169,1.041.281q.3.082.624.165c.5.132,1.054.268,1.65.4.211.051.429.1.652.144a36.466,36.466,0,0,0,5.9.769,23.787,23.787,0,0,1,7.827,2.208v-.979c-1.062-.421-2.063-.808-2.474-.936-1.051-.316-4.706-.246-5.7-.609-.542-.2-3.088-.705-5.389-1.142-.235-.043-.464-.086-.691-.13-.627-.117-1.22-.226-1.724-.315-.268-.051-.513-.093-.729-.132-.441-.07-.73-.121-.827-.128-.051-.009-.105-.017-.163-.029-.292-.043-.666-.093-1.014-.152" transform="translate(440.701 12785.177)" fill="#415903"/>
      <path id="Trazado_117677" data-name="Trazado 117677" d="M456.7,87.313a71.205,71.205,0,0,0-4.846,13.363c-1.3,4.365-3.209,11.731-3.178,17.6s2.223,15.366,7.394,21.453c5.305,6.249,13.065,9.987,17.359,9.652s6.288-3.122,7.224-7.25,0-9.633-.86-13.98-4.229-9.292-7.026-15.99a61.628,61.628,0,0,1-4.157-17.487c-.026-2.3.91-4.721-.656-8.295s-4.107-3.909-5.8-3.464a10.088,10.088,0,0,0-5.457,4.4" transform="translate(438.027 12786.223)" fill="#272861"/>
      <path id="Trazado_117678" data-name="Trazado 117678" d="M456.277,87.511c-2.546,5.1-2.774,9.029-4.036,13.279s-3.086,11.286-3.056,17,1.447,14.819,6.479,20.744c5.165,6.081,12.717,9.721,16.9,9.4s6.119-3.04,7.03-7.058,0-9.376-.835-13.608-4.118-9.044-6.84-15.563a60.138,60.138,0,0,1-4.046-17.022c-.023-2.242.887-4.6-.638-8.073s-4-3.805-5.642-3.372a9.83,9.83,0,0,0-5.313,4.28" transform="translate(438.177 12786.318)" fill="#181027"/>
      <path id="Trazado_117679" data-name="Trazado 117679" d="M463.066,95.263c.342,5.05,1.37,10.254,6.751,20.071,3.608,6.585,6.411,13.139,3.915,13.78-2.536.652-2.987-1.561-7.128-9.7s-6.158-15.89-6.572-21.492c-.36-4.9.87-7.015,1.048-7.208s1.986,4.545,1.986,4.545" transform="translate(441.373 12788.58)" fill="#23204d"/>
      <path id="Trazado_117680" data-name="Trazado 117680" d="M456.436,87.237c-.92,2.638-2.234,6.785-3.357,10.6s-3.266,12.676-3.241,17.827,2.864,15.827,4.88,18.911,4.9,6.674,7.531,8.047,6.174,1.863,7.989.3,3.932-8.741.283-14.082S461.268,111.9,460.468,104.9s.95-15.844,1.282-17.344-4.486-2.69-5.314-.315" transform="translate(438.37 12787.15)" fill="#272457"/>
      <path id="Trazado_117681" data-name="Trazado 117681" d="M453.685,96.421c-.475,1.507-4.007,12.923-.872,24.5,3.184,11.751,9.893,18.759,12.835,18.037s1.146-4.227-.959-7.107-5.366-5.911-8.3-15.247c-2.4-7.654-.812-18.808-.415-19.965s-1.338-3.245-2.292-.214" transform="translate(438.872 12789.808)" fill="#363178"/>
      <path id="Trazado_117682" data-name="Trazado 117682" d="M452.267,107.7c-.22,5.032,1.739,11.74,2.9,13.613,1.149,1.851,2.514.893.8-2.9-.593-1.313-1.364-3.829-2.358-10.817-.294-2.067-1.252-2.019-1.346.1" transform="translate(439.085 12793.138)" fill="#524ab8"/>
      <path id="Trazado_117683" data-name="Trazado 117683" d="M452.469,107.506c-.373,2.694,1.732,10.035,2.041,11.185.525,1.945,1.229,1.867.568-.279a46.658,46.658,0,0,1-1.88-10.892c-.039-1.127-.57-1.149-.729-.014" transform="translate(439.137 12793.311)" fill="#fff"/>
      <path id="Trazado_117684" data-name="Trazado 117684" d="M453.759,92.351a3.433,3.433,0,0,1-.465.176c-2.349.716-4.137-1.451-4.592-3.154,0,0,1.914,1.85,2.583,1.7a12.457,12.457,0,0,0,1.794-1.3c.427-.465.4-2.2.944-3.826a7.84,7.84,0,0,1,3.779-3.809,3.787,3.787,0,0,1,2.636-.135,2.714,2.714,0,0,1,1.2.613c.467.524-.875,1.571-1.687,2.252a12.308,12.308,0,0,0-2.057,2.863,25.646,25.646,0,0,1-1.186,2.331,10.182,10.182,0,0,1-2.948,2.283" transform="translate(438.033 12785.949)" fill="#618f24"/>
      <path id="Trazado_117685" data-name="Trazado 117685" d="M457.573,120.616c1.488,1.818,4.994,6.355,4.946,7.61-.038,1.01-2.015,1.382-4.61-2.952s-1.5-6.084-.336-4.658" transform="translate(440.291 12797.302)" fill="#524ab8"/>
      <path id="Trazado_117686" data-name="Trazado 117686" d="M453.292,92.529c-2.349.716-4.136-1.451-4.592-3.154,0,0,1.915,1.85,2.583,1.7a12.347,12.347,0,0,0,1.794-1.3c.427-.465.4-2.2.944-3.826a7.837,7.837,0,0,1,3.781-3.809,3.779,3.779,0,0,1,2.636-.135l-.106.835-.8-.445c-.749.325-.781-.414-2.055.783s-1.806,1.067-2.29,2.755-.8,2.876-1.041,3.781c-.144.551-.554,1.864-.85,2.809" transform="translate(438.033 12785.949)" fill="#98b523"/>
      <path id="Trazado_117687" data-name="Trazado 117687" d="M466.815,96.216a14.667,14.667,0,0,0,1.11-2.349,2.228,2.228,0,0,0-.558-1.794c-.93-1.081-2.716-1.592-3.351-2.039-.915-.644-4.246-3.118-4.294-3.689s.8-5.115.8-5.115l.8-.876c.682,1.359.752,2.493,2.081,3.428s2.767,1.539,3.513,2.485,2.844,4.29,2.494,6.272a5.663,5.663,0,0,1-2.6,3.677" transform="translate(441.301 12785.51)" fill="#98b523"/>
      <path id="Trazado_117688" data-name="Trazado 117688" d="M466.5,96.216a14.667,14.667,0,0,0,1.11-2.349,2.228,2.228,0,0,0-.558-1.794,3.884,3.884,0,0,0-.255-2.06,21.509,21.509,0,0,0-3.87-3.783,6.758,6.758,0,0,1-2.138-3.027l.038-2.651.182-.2c.682,1.359.752,2.493,2.081,3.428s2.767,1.539,3.513,2.485,2.844,4.29,2.494,6.272a5.663,5.663,0,0,1-2.6,3.677" transform="translate(441.617 12785.51)" fill="#70a42a"/>
      <path id="Trazado_117689" data-name="Trazado 117689" d="M462.817,101.919c-.122-.8-1.615-2.707-2.093-3.429s-3.077-2.261-5.213-5.934c-2.174-3.74,1.268-5.61,1.8-6.2s.6-7.907.841-8.88c.174-.7,1.354-.753,2.89-.769s3.583,1.672,3.583,1.672-.052.113-.132.3a11.5,11.5,0,0,0-1.027,3.664c.055,1.287-.517,4.084,0,4.657s1.173,1.93,2.055,2.834c.644.661.707,2.859.565,4.221a3.382,3.382,0,0,1-.215,1.04c-1.828,3.324-2.935,7.618-3.058,6.821" transform="translate(439.841 12784.428)" fill="#70a42a"/>
      <path id="Trazado_117690" data-name="Trazado 117690" d="M457.075,120.253c.784.958,2.633,3.351,2.609,4.014-.019.533-1.063.729-2.432-1.557s-.793-3.209-.176-2.457" transform="translate(440.319 12797.263)" fill="#fff"/>
      <path id="Trazado_117691" data-name="Trazado 117691" d="M462.817,101.919c-.122-.8-1.615-2.707-2.093-3.429s-3.077-2.261-5.213-5.934c-2.174-3.74,1.268-5.61,1.8-6.2s.6-7.907.841-8.88c.174-.7,1.354-.753,2.89-.769s3.583,1.672,3.583,1.672-.052.113-.132.3a7.993,7.993,0,0,0-3.075-.508c-1.106.14-1.72.812-2.028,2.889s.35,5.428-.214,6.332-1.937,2.308-2.23,3.014,1.994,4.137,3.03,5.177a50.927,50.927,0,0,1,3.306,4.276s1.525-4.373,1.875-4.851a9.174,9.174,0,0,1,.932-.952,3.382,3.382,0,0,1-.215,1.04c-1.828,3.324-2.935,7.618-3.058,6.821" transform="translate(439.841 12784.428)" fill="#98b523"/>
      <path id="Trazado_117692" data-name="Trazado 117692" d="M460.469,77.476c.067.892-.4.347-.563,2.151a32.5,32.5,0,0,0-.239,4.337c.056,1.294.735,2.747.885,2.647a35.331,35.331,0,0,0,.882-5.211,11.022,11.022,0,0,1,.806-2.89c.131-.246.463-.725.463-.725Z" transform="translate(441.281 12784.656)" fill="#98b523"/>
      <path id="Trazado_117693" data-name="Trazado 117693" d="M458.5,93.351a17.041,17.041,0,0,1,.1-2.881c-.088-.436,1.337-3.346,1.3-3.646a5.718,5.718,0,0,1,.137-1.118s.182,1.448.183,2.318a10.41,10.41,0,0,1-.707,2.707c-.183.587.573,4.653.5,4.587s-1.517-1.968-1.517-1.968" transform="translate(440.919 12787.097)" fill="#98b523"/>
      <path id="Trazado_117694" data-name="Trazado 117694" d="M462.784,93.394a10.353,10.353,0,0,1-.665-2.422c-.057-.229-.6-2.68-.6-2.68a29.415,29.415,0,0,0,.176,3.048c.159,1.079.42,3.118.42,3.118Z" transform="translate(441.834 12787.863)" fill="#98b523"/>
      <g id="Grupo_57532" data-name="Grupo 57532" transform="translate(814.77 12790.698)">
        <g id="Grupo_57531" data-name="Grupo 57531" clip-path="url(#clip-path-9)">
          <rect id="Rectángulo_16178" data-name="Rectángulo 16178" width="69.107" height="94.786" transform="translate(-13.475 28.995) rotate(-65.098)" fill="url(#linear-gradient-9)"/>
        </g>
      </g>
      <g id="Grupo_57534" data-name="Grupo 57534" transform="translate(783.229 12827.845)">
        <g id="Grupo_57533" data-name="Grupo 57533" clip-path="url(#clip-path-10)">
          <rect id="Rectángulo_16179" data-name="Rectángulo 16179" width="134.59" height="126.588" transform="matrix(0.788, -0.616, 0.616, 0.788, -34.873, 24.57)" fill="url(#linear-gradient-10)"/>
        </g>
      </g>
      <g id="Grupo_57536" data-name="Grupo 57536" transform="translate(809.422 12944.021)">
        <g id="Grupo_57535" data-name="Grupo 57535" clip-path="url(#clip-path-11)">
          <rect id="Rectángulo_16180" data-name="Rectángulo 16180" width="84.6" height="54.522" transform="translate(-3.35 -1.163) rotate(-3.025)" fill="url(#linear-gradient-11)"/>
        </g>
      </g>
      <g id="Grupo_57538" data-name="Grupo 57538" transform="translate(809.422 12944.021)">
        <g id="Grupo_57537" data-name="Grupo 57537" clip-path="url(#clip-path-12)">
          <rect id="Rectángulo_16181" data-name="Rectángulo 16181" width="92.62" height="87.114" transform="translate(-24 16.908) rotate(-38.013)" fill="url(#linear-gradient-12)"/>
        </g>
      </g>
      <g id="Grupo_57540" data-name="Grupo 57540" transform="translate(907.003 13132.893)">
        <g id="Grupo_57539" data-name="Grupo 57539" clip-path="url(#clip-path-13)">
          <rect id="Rectángulo_16182" data-name="Rectángulo 16182" width="25.454" height="96.875" transform="matrix(1, -0.016, 0.016, 1, -1.632, 0.024)" fill="url(#linear-gradient-13)"/>
        </g>
      </g>
      <g id="Grupo_57542" data-name="Grupo 57542" transform="translate(908.697 13213.153)">
        <g id="Grupo_57541" data-name="Grupo 57541" clip-path="url(#clip-path-14)">
          <rect id="Rectángulo_16183" data-name="Rectángulo 16183" width="6.732" height="20.292" transform="translate(-0.344 0.005) rotate(-0.905)" fill="url(#linear-gradient-14)"/>
        </g>
      </g>
      <g id="Grupo_57544" data-name="Grupo 57544" transform="translate(909.573 13218.375)">
        <g id="Grupo_57543" data-name="Grupo 57543" clip-path="url(#clip-path-15)">
          <rect id="Rectángulo_16184" data-name="Rectángulo 16184" width="10.686" height="46.936" transform="translate(-0.832 0.012) rotate(-0.905)" fill="url(#linear-gradient-15)"/>
        </g>
      </g>
      <g id="Grupo_57546" data-name="Grupo 57546" transform="translate(900.026 13175.992)">
        <g id="Grupo_57545" data-name="Grupo 57545" clip-path="url(#clip-path-16)">
          <rect id="Rectángulo_16185" data-name="Rectángulo 16185" width="19.807" height="36.169" transform="translate(-0.567 0.009) rotate(-0.905)" fill="url(#linear-gradient-16)"/>
        </g>
      </g>
      <g id="Grupo_57548" data-name="Grupo 57548" transform="translate(898.931 13182.039)">
        <g id="Grupo_57547" data-name="Grupo 57547" clip-path="url(#clip-path-17)">
          <rect id="Rectángulo_16186" data-name="Rectángulo 16186" width="14.666" height="50.222" transform="translate(-0.834 0.013) rotate(-0.905)" fill="url(#linear-gradient-17)"/>
        </g>
      </g>
      <g id="Grupo_57550" data-name="Grupo 57550" transform="translate(903.631 13156.656)">
        <g id="Grupo_57549" data-name="Grupo 57549" clip-path="url(#clip-path-18)">
          <rect id="Rectángulo_16187" data-name="Rectángulo 16187" width="15.531" height="48.464" transform="translate(-0.762 0.012) rotate(-0.905)" fill="url(#linear-gradient-18)"/>
        </g>
      </g>
      <g id="Grupo_57552" data-name="Grupo 57552" transform="translate(902.591 13169.906)">
        <g id="Grupo_57551" data-name="Grupo 57551" clip-path="url(#clip-path-19)">
          <rect id="Rectángulo_16188" data-name="Rectángulo 16188" width="12.242" height="46.693" transform="translate(-0.807 0.012) rotate(-0.905)" fill="url(#linear-gradient-19)"/>
        </g>
      </g>
      <g id="Grupo_57554" data-name="Grupo 57554" transform="translate(904.567 13184.284)">
        <g id="Grupo_57553" data-name="Grupo 57553" clip-path="url(#clip-path-20)">
          <rect id="Rectángulo_16189" data-name="Rectángulo 16189" width="13.282" height="53.605" transform="matrix(1, -0.016, 0.016, 1, -0.879, 0.013)" fill="url(#linear-gradient-20)"/>
        </g>
      </g>
      <g id="Grupo_57556" data-name="Grupo 57556" transform="translate(941.421 13174.172)">
        <g id="Grupo_57555" data-name="Grupo 57555" clip-path="url(#clip-path-21)">
          <rect id="Rectángulo_16190" data-name="Rectángulo 16190" width="6.217" height="12.868" transform="translate(-0.239 0.003) rotate(-0.905)" fill="url(#linear-gradient-21)"/>
        </g>
      </g>
      <g id="Grupo_57558" data-name="Grupo 57558" transform="translate(911.409 13228.993)">
        <g id="Grupo_57557" data-name="Grupo 57557" clip-path="url(#clip-path-22)">
          <rect id="Rectángulo_16191" data-name="Rectángulo 16191" width="6.218" height="12.868" transform="translate(-0.239 0.003) rotate(-0.905)" fill="url(#linear-gradient-22)"/>
        </g>
      </g>
      <g id="Grupo_57560" data-name="Grupo 57560" transform="translate(895.436 13168.186)">
        <g id="Grupo_57559" data-name="Grupo 57559" clip-path="url(#clip-path-23)">
          <rect id="Rectángulo_16192" data-name="Rectángulo 16192" width="3.287" height="13.691" transform="translate(-0.226 0.003) rotate(-0.905)" fill="url(#linear-gradient-23)"/>
        </g>
      </g>
      <g id="Grupo_57562" data-name="Grupo 57562" transform="translate(900.026 13177.376)">
        <g id="Grupo_57561" data-name="Grupo 57561" clip-path="url(#clip-path-24)">
          <rect id="Rectángulo_16193" data-name="Rectángulo 16193" width="1.941" height="13.862" transform="translate(-0.219 0.003) rotate(-0.905)" fill="url(#linear-gradient-24)"/>
        </g>
      </g>
      <g id="Grupo_57564" data-name="Grupo 57564" transform="translate(919.119 13190.154)">
        <g id="Grupo_57563" data-name="Grupo 57563" clip-path="url(#clip-path-25)">
          <rect id="Rectángulo_16194" data-name="Rectángulo 16194" width="8.76" height="11.608" transform="matrix(1, -0.016, 0.016, 1, -0.212, 0.003)" fill="url(#linear-gradient-25)"/>
        </g>
      </g>
      <g id="Grupo_57566" data-name="Grupo 57566" transform="translate(886.557 13165.181)">
        <g id="Grupo_57565" data-name="Grupo 57565" clip-path="url(#clip-path-26)">
          <rect id="Rectángulo_16195" data-name="Rectángulo 16195" width="14.927" height="1.969" transform="matrix(1, -0.016, 0.016, 1, -0.027, 0)" fill="url(#linear-gradient-26)"/>
        </g>
      </g>
      <g id="Grupo_57568" data-name="Grupo 57568" transform="translate(892.912 13163.686)">
        <g id="Grupo_57567" data-name="Grupo 57567" clip-path="url(#clip-path-27)">
          <rect id="Rectángulo_16196" data-name="Rectángulo 16196" width="21.224" height="51.582" transform="translate(-0.81 0.013) rotate(-0.905)" fill="url(#linear-gradient-27)"/>
        </g>
      </g>
      <g id="Grupo_57570" data-name="Grupo 57570" transform="translate(883.465 13155.958)">
        <g id="Grupo_57569" data-name="Grupo 57569" clip-path="url(#clip-path-28)">
          <rect id="Rectángulo_16197" data-name="Rectángulo 16197" width="30.692" height="32.759" transform="translate(-0.51 0.008) rotate(-0.905)" fill="url(#linear-gradient-28)"/>
        </g>
      </g>
      <g id="Grupo_57572" data-name="Grupo 57572" transform="translate(896.521 13157.15)">
        <g id="Grupo_57571" data-name="Grupo 57571" clip-path="url(#clip-path-29)">
          <rect id="Rectángulo_16198" data-name="Rectángulo 16198" width="18.615" height="40.08" transform="translate(-0.629 0.01) rotate(-0.905)" fill="url(#linear-gradient-29)"/>
        </g>
      </g>
      <g id="Grupo_57574" data-name="Grupo 57574" transform="translate(923.854 13167.531)">
        <g id="Grupo_57573" data-name="Grupo 57573" clip-path="url(#clip-path-30)">
          <rect id="Rectángulo_16199" data-name="Rectángulo 16199" width="21.224" height="51.582" transform="translate(-0.948 0.013) rotate(-0.905)" fill="url(#linear-gradient-30)"/>
        </g>
      </g>
      <g id="Grupo_57576" data-name="Grupo 57576" transform="translate(924.63 13161.172)">
        <g id="Grupo_57575" data-name="Grupo 57575" clip-path="url(#clip-path-31)">
          <rect id="Rectángulo_16200" data-name="Rectángulo 16200" width="30.692" height="32.758" transform="translate(-0.642 0.008) rotate(-0.905)" fill="url(#linear-gradient-31)"/>
        </g>
      </g>
      <g id="Grupo_57578" data-name="Grupo 57578" transform="translate(920.146 13167.917)">
        <g id="Grupo_57577" data-name="Grupo 57577" clip-path="url(#clip-path-32)">
          <rect id="Rectángulo_16201" data-name="Rectángulo 16201" width="11.969" height="29.743" transform="translate(-0.615 0.007) rotate(-0.905)" fill="url(#linear-gradient-32)"/>
        </g>
      </g>
      <g id="Grupo_57580" data-name="Grupo 57580" transform="translate(923.75 13162.361)">
        <g id="Grupo_57579" data-name="Grupo 57579" clip-path="url(#clip-path-33)">
          <rect id="Rectángulo_16202" data-name="Rectángulo 16202" width="18.614" height="40.079" transform="translate(-0.739 0.01) rotate(-0.905)" fill="url(#linear-gradient-33)"/>
        </g>
      </g>
      <g id="Grupo_57582" data-name="Grupo 57582" transform="translate(918.176 13183.256)">
        <g id="Grupo_57581" data-name="Grupo 57581" clip-path="url(#clip-path-34)">
          <rect id="Rectángulo_16203" data-name="Rectángulo 16203" width="21.224" height="51.582" transform="translate(-0.949 0.013) rotate(-0.905)" fill="url(#linear-gradient-34)"/>
        </g>
      </g>
      <g id="Grupo_57584" data-name="Grupo 57584" transform="translate(925.951 13154.789)">
        <g id="Grupo_57583" data-name="Grupo 57583" clip-path="url(#clip-path-35)">
          <rect id="Rectángulo_16204" data-name="Rectángulo 16204" width="8.984" height="36.998" transform="translate(-0.664 0.009) rotate(-0.905)" fill="url(#linear-gradient-35)"/>
        </g>
      </g>
      <g id="Grupo_57586" data-name="Grupo 57586" transform="translate(918.102 13175.992)">
        <g id="Grupo_57585" data-name="Grupo 57585" clip-path="url(#clip-path-36)">
          <rect id="Rectángulo_16205" data-name="Rectángulo 16205" width="30.691" height="32.759" transform="matrix(1, -0.016, 0.016, 1, -0.642, 0.008)" fill="url(#linear-gradient-36)"/>
        </g>
      </g>
      <g id="Grupo_57588" data-name="Grupo 57588" transform="translate(914.469 13183.644)">
        <g id="Grupo_57587" data-name="Grupo 57587" clip-path="url(#clip-path-37)">
          <rect id="Rectángulo_16206" data-name="Rectángulo 16206" width="11.968" height="29.742" transform="matrix(1, -0.016, 0.016, 1, -0.613, 0.007)" fill="url(#linear-gradient-37)"/>
        </g>
      </g>
      <g id="Grupo_57590" data-name="Grupo 57590" transform="translate(917.222 13177.182)">
        <g id="Grupo_57589" data-name="Grupo 57589" clip-path="url(#clip-path-38)">
          <rect id="Rectángulo_16207" data-name="Rectángulo 16207" width="18.617" height="40.08" transform="translate(-0.741 0.01) rotate(-0.905)" fill="url(#linear-gradient-38)"/>
        </g>
      </g>
      <g id="Grupo_57592" data-name="Grupo 57592" transform="translate(912.527 13199.146)">
        <g id="Grupo_57591" data-name="Grupo 57591" clip-path="url(#clip-path-39)">
          <rect id="Rectángulo_16208" data-name="Rectángulo 16208" width="30.691" height="32.761" transform="translate(-0.642 0.008) rotate(-0.905)" fill="url(#linear-gradient-39)"/>
        </g>
      </g>
      <g id="Grupo_57594" data-name="Grupo 57594" transform="translate(915.352 13195.171)">
        <g id="Grupo_57593" data-name="Grupo 57593" clip-path="url(#clip-path-40)">
          <rect id="Rectángulo_16209" data-name="Rectángulo 16209" width="12.782" height="13.644" transform="translate(-0.267 0.003) rotate(-0.905)" fill="url(#linear-gradient-40)"/>
        </g>
      </g>
      <g id="Grupo_57596" data-name="Grupo 57596" transform="translate(912.671 13201.216)">
        <g id="Grupo_57595" data-name="Grupo 57595" clip-path="url(#clip-path-41)">
          <rect id="Rectángulo_16210" data-name="Rectángulo 16210" width="18.617" height="40.08" transform="translate(-0.741 0.01) rotate(-0.905)" fill="url(#linear-gradient-41)"/>
        </g>
      </g>
    </g>
    <g id="Grupo_59331" data-name="Grupo 59331" transform="translate(-4280 -1324)">
      <text id="Para_la_aplicación_de_fertilizantes_químicos_o_el_uso_de_abonos_orgánicos_tenga_en_cuenta_las_dosificación_y_manejo_recomendado_por_el_técnico." data-name="Para la aplicación de fertilizantes químicos, o el uso de abonos orgánicos tenga en cuenta las dosificación y manejo recomendado por el técnico." transform="translate(513 12917)" fill="#00223d" font-size="18" font-family="Helvetica"><tspan x="0" y="14">Para la aplicación de fertilizantes </tspan><tspan x="0" y="35.6">químicos, o el uso de abonos </tspan><tspan x="0" y="57.2">orgánicos tenga en cuenta las </tspan><tspan x="0" y="78.8">dosificación y manejo recomendado </tspan></text>
      <path id="Trazado_117728" data-name="Trazado 117728" d="M-1865,11739h291v149" transform="translate(2370 1274)" fill="none" stroke="#004222" stroke-width="2"/>
      <circle id="Elipse_1229" data-name="Elipse 1229" cx="11" cy="11" r="11" transform="translate(785 13151)" fill="#004222"/>
    </g>
    <g id="Grupo_59332" data-name="Grupo 59332" transform="translate(-4280 -1324)">
      <text id="Diseñar_un_plan_de_fertilización_para_la_nutrición_del_cultivo_basado_en_el_análisis_de_suelo_y_los_requerimientos_de_la_especie_sembrada._este_plan_debe_ser_elaborado_y_ejecutado_bajo_la_supervisión_del_asistente_técnico." data-name="Diseñar un plan de fertilización para la nutrición del cultivo, basado en el análisis de suelo y los requerimientos de la especie sembrada. este plan debe ser elaborado y ejecutado bajo la supervisión del asistente técnico." transform="translate(1092 12790)" fill="#00223d" font-size="18" font-family="Helvetica"><tspan x="0" y="14">Diseñar un plan de fertilización para </tspan><tspan x="0" y="35.6">la nutrición del cultivo, basado en el </tspan><tspan x="0" y="57.2">análisis de suelo y los </tspan><tspan x="0" y="78.8">requerimientos de la especie </tspan></text>
      <circle id="Elipse_1230" data-name="Elipse 1230" cx="11" cy="11" r="11" transform="translate(893 12902)" fill="#004222"/>
      <path id="Trazado_117729" data-name="Trazado 117729" d="M-989,11612h-374.4v26.6H-1466" transform="translate(2370 1274)" fill="none" stroke="#004222" stroke-width="2"/>
    </g>
    <g id="Grupo_59333" data-name="Grupo 59333" transform="translate(-4280 -1324)">
      <text id="Llevar_registro_de_las_aplicaciones_de_fertilizantes_realizas_en_el_cultivo." data-name="Llevar registro de las aplicaciones de fertilizantes realizas en el cultivo." transform="translate(505 13229)" fill="#fff" font-size="18" font-family="Helvetica"><tspan x="0" y="14">Llevar registro de las aplicaciones </tspan><tspan x="0" y="35.6">de fertilizantes realizas en el cultivo.</tspan></text>
      <circle id="Elipse_1231" data-name="Elipse 1231" cx="11" cy="11" r="11" transform="translate(871 13196)" fill="#004222"/>
      <path id="Trazado_117730" data-name="Trazado 117730" d="M-1882.267,12025.733H-1552.4v-92.4h73.733" transform="translate(2370 1274)" fill="none" stroke="#004222" stroke-width="2"/>
    </g>
    <g id="Grupo_59334" data-name="Grupo 59334" transform="translate(-4280 -1324)">
      <text id="Para_el_almacenamiento_de_fertilizantes_e_insumos_agrícolas_debe_contar_con_un_lugar_específico_en_predio_que_esté_debidamente_demarcado_tenga_en_cuenta_que_los_fertilizantes_deben_estar_separados_y_aislados_de_las_semillas_productos_cosechados_y_agroquí" data-name="Para el almacenamiento de fertilizantes e insumos agrícolas debe contar con un lugar específico en predio que esté debidamente demarcado; tenga en cuenta que los fertilizantes deben estar separados y aislados de las semillas, productos cosechados y agroquí" transform="translate(1019 13140)" fill="#fff" font-size="18" font-family="Helvetica"><tspan x="0" y="14">Para el almacenamiento de fertilizantes e </tspan><tspan x="0" y="35.6">insumos agrícolas debe contar con un </tspan><tspan x="0" y="57.2">lugar específico en predio que esté </tspan><tspan x="0" y="78.8">debidamente demarcado; tenga en </tspan><tspan x="0" y="100.4">cuenta que los fertilizantes deben estar </tspan><tspan x="0" y="122">separados y aislados de las semillas, </tspan><tspan x="0" y="143.6">productos cosechados y agroquímicos. </tspan></text>
      <circle id="Elipse_1232" data-name="Elipse 1232" cx="11" cy="11" r="11" transform="translate(987 13036)" fill="#004222"/>
      <path id="Trazado_117731" data-name="Trazado 117731" d="M-1018,12025.733h-354v-252.4" transform="translate(2370 1274)" fill="none" stroke="#004222" stroke-width="2"/>
    </g>
  </g>
</svg>
